ISO-10303-21;
HEADER;
/* Generated by software containing ST-Developer
 * from STEP Tools, Inc. (www.steptools.com) 
 */

FILE_DESCRIPTION(
/* description */ (''),
/* implementation_level */ '2;1');

FILE_NAME(
/* name */ 'ARM.step',
/* time_stamp */ '2026-05-25T19:21:52+09:00',
/* author */ (''),
/* organization */ (''),
/* preprocessor_version */ 'ST-DEVELOPER v20.1',
/* originating_system */ 'Autodesk Translation Framework v15.8.0.0',
/* authorisation */ '');

FILE_SCHEMA (('AUTOMOTIVE_DESIGN { 1 0 10303 214 3 1 1 }'));
ENDSEC;

DATA;
#10=MECHANICAL_DESIGN_GEOMETRIC_PRESENTATION_REPRESENTATION('',(#13),#598);
#11=SHAPE_REPRESENTATION_RELATIONSHIP('SRR','None',#605,#12);
#12=ADVANCED_BREP_SHAPE_REPRESENTATION('',(#14),#597);
#13=STYLED_ITEM('',(#615),#14);
#14=MANIFOLD_SOLID_BREP('\X2\BCF8CCB4\X0\1',#344);
#15=B_SPLINE_CURVE_WITH_KNOTS('',3,(#530,#531,#532,#533),.UNSPECIFIED.,
 .F.,.F.,(4,4),(0.,0.0775728398155415),.UNSPECIFIED.);
#16=B_SPLINE_CURVE_WITH_KNOTS('',3,(#536,#537,#538,#539),.UNSPECIFIED.,
 .F.,.F.,(4,4),(0.,0.077573408069847),.UNSPECIFIED.);
#17=CONICAL_SURFACE('',#370,6.79999999999999,0.785398163397774);
#18=FACE_BOUND('',#61,.T.);
#19=FACE_BOUND('',#65,.T.);
#20=FACE_BOUND('',#73,.T.);
#21=FACE_BOUND('',#74,.T.);
#22=FACE_BOUND('',#79,.T.);
#23=FACE_BOUND('',#85,.T.);
#24=FACE_BOUND('',#86,.T.);
#25=PLANE('',#361);
#26=PLANE('',#368);
#27=PLANE('',#369);
#28=PLANE('',#373);
#29=PLANE('',#374);
#30=PLANE('',#375);
#31=PLANE('',#376);
#32=PLANE('',#377);
#33=PLANE('',#385);
#34=PLANE('',#386);
#35=PLANE('',#387);
#36=PLANE('',#390);
#37=PLANE('',#393);
#38=FACE_OUTER_BOUND('',#59,.T.);
#39=FACE_OUTER_BOUND('',#60,.T.);
#40=FACE_OUTER_BOUND('',#62,.T.);
#41=FACE_OUTER_BOUND('',#63,.T.);
#42=FACE_OUTER_BOUND('',#64,.T.);
#43=FACE_OUTER_BOUND('',#66,.T.);
#44=FACE_OUTER_BOUND('',#67,.T.);
#45=FACE_OUTER_BOUND('',#68,.T.);
#46=FACE_OUTER_BOUND('',#69,.T.);
#47=FACE_OUTER_BOUND('',#70,.T.);
#48=FACE_OUTER_BOUND('',#71,.T.);
#49=FACE_OUTER_BOUND('',#72,.T.);
#50=FACE_OUTER_BOUND('',#75,.T.);
#51=FACE_OUTER_BOUND('',#76,.T.);
#52=FACE_OUTER_BOUND('',#77,.T.);
#53=FACE_OUTER_BOUND('',#78,.T.);
#54=FACE_OUTER_BOUND('',#80,.T.);
#55=FACE_OUTER_BOUND('',#81,.T.);
#56=FACE_OUTER_BOUND('',#82,.T.);
#57=FACE_OUTER_BOUND('',#83,.T.);
#58=FACE_OUTER_BOUND('',#84,.T.);
#59=EDGE_LOOP('',(#228,#229,#230,#231));
#60=EDGE_LOOP('',(#232));
#61=EDGE_LOOP('',(#233));
#62=EDGE_LOOP('',(#234,#235,#236,#237));
#63=EDGE_LOOP('',(#238,#239,#240,#241));
#64=EDGE_LOOP('',(#242));
#65=EDGE_LOOP('',(#243));
#66=EDGE_LOOP('',(#244,#245,#246,#247));
#67=EDGE_LOOP('',(#248,#249,#250,#251));
#68=EDGE_LOOP('',(#252,#253,#254,#255));
#69=EDGE_LOOP('',(#256,#257,#258,#259));
#70=EDGE_LOOP('',(#260,#261,#262,#263));
#71=EDGE_LOOP('',(#264,#265,#266,#267));
#72=EDGE_LOOP('',(#268,#269,#270,#271));
#73=EDGE_LOOP('',(#272));
#74=EDGE_LOOP('',(#273,#274,#275,#276));
#75=EDGE_LOOP('',(#277,#278,#279,#280));
#76=EDGE_LOOP('',(#281,#282,#283,#284));
#77=EDGE_LOOP('',(#285,#286,#287,#288));
#78=EDGE_LOOP('',(#289,#290,#291,#292));
#79=EDGE_LOOP('',(#293));
#80=EDGE_LOOP('',(#294,#295,#296,#297));
#81=EDGE_LOOP('',(#298,#299,#300,#301));
#82=EDGE_LOOP('',(#302,#303,#304,#305));
#83=EDGE_LOOP('',(#306,#307,#308,#309));
#84=EDGE_LOOP('',(#310,#311,#312,#313));
#85=EDGE_LOOP('',(#314));
#86=EDGE_LOOP('',(#315));
#87=LINE('',#500,#114);
#88=LINE('',#509,#115);
#89=LINE('',#514,#116);
#90=LINE('',#519,#117);
#91=LINE('',#521,#118);
#92=LINE('',#523,#119);
#93=LINE('',#524,#120);
#94=LINE('',#541,#121);
#95=LINE('',#542,#122);
#96=LINE('',#544,#123);
#97=LINE('',#545,#124);
#98=LINE('',#548,#125);
#99=LINE('',#550,#126);
#100=LINE('',#551,#127);
#101=LINE('',#554,#128);
#102=LINE('',#555,#129);
#103=LINE('',#561,#130);
#104=LINE('',#564,#131);
#105=LINE('',#569,#132);
#106=LINE('',#573,#133);
#107=LINE('',#576,#134);
#108=LINE('',#580,#135);
#109=LINE('',#582,#136);
#110=LINE('',#583,#137);
#111=LINE('',#587,#138);
#112=LINE('',#590,#139);
#113=LINE('',#591,#140);
#114=VECTOR('',#400,10.);
#115=VECTOR('',#411,3.15000000000001);
#116=VECTOR('',#418,8.99999999999999);
#117=VECTOR('',#423,10.);
#118=VECTOR('',#424,10.);
#119=VECTOR('',#425,10.);
#120=VECTOR('',#426,10.);
#121=VECTOR('',#435,10.);
#122=VECTOR('',#436,10.);
#123=VECTOR('',#439,10.);
#124=VECTOR('',#440,10.);
#125=VECTOR('',#443,10.);
#126=VECTOR('',#444,10.);
#127=VECTOR('',#445,10.);
#128=VECTOR('',#448,10.);
#129=VECTOR('',#449,10.);
#130=VECTOR('',#454,10.);
#131=VECTOR('',#457,10.);
#132=VECTOR('',#462,2.00000000000001);
#133=VECTOR('',#467,10.);
#134=VECTOR('',#472,10.);
#135=VECTOR('',#477,10.);
#136=VECTOR('',#478,10.);
#137=VECTOR('',#479,10.);
#138=VECTOR('',#484,10.);
#139=VECTOR('',#487,10.);
#140=VECTOR('',#488,10.);
#141=CIRCLE('',#359,10.);
#142=CIRCLE('',#360,10.);
#143=CIRCLE('',#362,8.99999999999999);
#144=CIRCLE('',#364,3.15000000000001);
#145=CIRCLE('',#365,3.15000000000001);
#146=CIRCLE('',#367,8.99999999999999);
#147=CIRCLE('',#371,7.04999999999999);
#148=CIRCLE('',#372,6.54999999999999);
#149=CIRCLE('',#378,15.);
#150=CIRCLE('',#379,15.);
#151=CIRCLE('',#381,2.00000000000001);
#152=CIRCLE('',#382,2.00000000000001);
#153=CIRCLE('',#384,6.54999999999999);
#154=CIRCLE('',#389,15.);
#155=CIRCLE('',#392,15.);
#156=VERTEX_POINT('',#497);
#157=VERTEX_POINT('',#499);
#158=VERTEX_POINT('',#503);
#159=VERTEX_POINT('',#506);
#160=VERTEX_POINT('',#508);
#161=VERTEX_POINT('',#512);
#162=VERTEX_POINT('',#517);
#163=VERTEX_POINT('',#518);
#164=VERTEX_POINT('',#520);
#165=VERTEX_POINT('',#522);
#166=VERTEX_POINT('',#526);
#167=VERTEX_POINT('',#527);
#168=VERTEX_POINT('',#529);
#169=VERTEX_POINT('',#534);
#170=VERTEX_POINT('',#547);
#171=VERTEX_POINT('',#549);
#172=VERTEX_POINT('',#553);
#173=VERTEX_POINT('',#557);
#174=VERTEX_POINT('',#558);
#175=VERTEX_POINT('',#560);
#176=VERTEX_POINT('',#562);
#177=VERTEX_POINT('',#566);
#178=VERTEX_POINT('',#568);
#179=VERTEX_POINT('',#572);
#180=VERTEX_POINT('',#579);
#181=VERTEX_POINT('',#581);
#182=VERTEX_POINT('',#585);
#183=VERTEX_POINT('',#589);
#184=EDGE_CURVE('',#156,#156,#141,.T.);
#185=EDGE_CURVE('',#156,#157,#87,.T.);
#186=EDGE_CURVE('',#157,#157,#142,.T.);
#187=EDGE_CURVE('',#158,#158,#143,.T.);
#188=EDGE_CURVE('',#159,#159,#144,.T.);
#189=EDGE_CURVE('',#159,#160,#88,.T.);
#190=EDGE_CURVE('',#160,#160,#145,.T.);
#191=EDGE_CURVE('',#161,#161,#146,.T.);
#192=EDGE_CURVE('',#161,#158,#89,.T.);
#193=EDGE_CURVE('',#162,#163,#90,.T.);
#194=EDGE_CURVE('',#163,#164,#91,.T.);
#195=EDGE_CURVE('',#164,#165,#92,.T.);
#196=EDGE_CURVE('',#162,#165,#93,.T.);
#197=EDGE_CURVE('',#166,#167,#147,.T.);
#198=EDGE_CURVE('',#167,#168,#15,.T.);
#199=EDGE_CURVE('',#168,#169,#148,.T.);
#200=EDGE_CURVE('',#169,#166,#16,.T.);
#201=EDGE_CURVE('',#165,#168,#94,.T.);
#202=EDGE_CURVE('',#167,#162,#95,.T.);
#203=EDGE_CURVE('',#163,#166,#96,.T.);
#204=EDGE_CURVE('',#169,#164,#97,.T.);
#205=EDGE_CURVE('',#164,#170,#98,.T.);
#206=EDGE_CURVE('',#170,#171,#99,.T.);
#207=EDGE_CURVE('',#165,#171,#100,.T.);
#208=EDGE_CURVE('',#169,#172,#101,.T.);
#209=EDGE_CURVE('',#172,#170,#102,.T.);
#210=EDGE_CURVE('',#173,#174,#149,.T.);
#211=EDGE_CURVE('',#173,#175,#103,.T.);
#212=EDGE_CURVE('',#176,#175,#150,.T.);
#213=EDGE_CURVE('',#174,#176,#104,.T.);
#214=EDGE_CURVE('',#177,#177,#151,.T.);
#215=EDGE_CURVE('',#177,#178,#105,.T.);
#216=EDGE_CURVE('',#178,#178,#152,.T.);
#217=EDGE_CURVE('',#168,#179,#106,.T.);
#218=EDGE_CURVE('',#179,#172,#153,.T.);
#219=EDGE_CURVE('',#171,#179,#107,.T.);
#220=EDGE_CURVE('',#173,#180,#108,.T.);
#221=EDGE_CURVE('',#181,#180,#109,.T.);
#222=EDGE_CURVE('',#175,#181,#110,.T.);
#223=EDGE_CURVE('',#182,#181,#154,.T.);
#224=EDGE_CURVE('',#176,#182,#111,.T.);
#225=EDGE_CURVE('',#183,#182,#112,.T.);
#226=EDGE_CURVE('',#174,#183,#113,.T.);
#227=EDGE_CURVE('',#180,#183,#155,.T.);
#228=ORIENTED_EDGE('',*,*,#184,.F.);
#229=ORIENTED_EDGE('',*,*,#185,.T.);
#230=ORIENTED_EDGE('',*,*,#186,.F.);
#231=ORIENTED_EDGE('',*,*,#185,.F.);
#232=ORIENTED_EDGE('',*,*,#184,.T.);
#233=ORIENTED_EDGE('',*,*,#187,.F.);
#234=ORIENTED_EDGE('',*,*,#188,.F.);
#235=ORIENTED_EDGE('',*,*,#189,.T.);
#236=ORIENTED_EDGE('',*,*,#190,.F.);
#237=ORIENTED_EDGE('',*,*,#189,.F.);
#238=ORIENTED_EDGE('',*,*,#191,.F.);
#239=ORIENTED_EDGE('',*,*,#192,.T.);
#240=ORIENTED_EDGE('',*,*,#187,.T.);
#241=ORIENTED_EDGE('',*,*,#192,.F.);
#242=ORIENTED_EDGE('',*,*,#191,.T.);
#243=ORIENTED_EDGE('',*,*,#188,.T.);
#244=ORIENTED_EDGE('',*,*,#193,.T.);
#245=ORIENTED_EDGE('',*,*,#194,.T.);
#246=ORIENTED_EDGE('',*,*,#195,.T.);
#247=ORIENTED_EDGE('',*,*,#196,.F.);
#248=ORIENTED_EDGE('',*,*,#197,.T.);
#249=ORIENTED_EDGE('',*,*,#198,.T.);
#250=ORIENTED_EDGE('',*,*,#199,.T.);
#251=ORIENTED_EDGE('',*,*,#200,.T.);
#252=ORIENTED_EDGE('',*,*,#201,.T.);
#253=ORIENTED_EDGE('',*,*,#198,.F.);
#254=ORIENTED_EDGE('',*,*,#202,.T.);
#255=ORIENTED_EDGE('',*,*,#196,.T.);
#256=ORIENTED_EDGE('',*,*,#203,.T.);
#257=ORIENTED_EDGE('',*,*,#200,.F.);
#258=ORIENTED_EDGE('',*,*,#204,.T.);
#259=ORIENTED_EDGE('',*,*,#194,.F.);
#260=ORIENTED_EDGE('',*,*,#195,.F.);
#261=ORIENTED_EDGE('',*,*,#205,.T.);
#262=ORIENTED_EDGE('',*,*,#206,.T.);
#263=ORIENTED_EDGE('',*,*,#207,.F.);
#264=ORIENTED_EDGE('',*,*,#204,.F.);
#265=ORIENTED_EDGE('',*,*,#208,.T.);
#266=ORIENTED_EDGE('',*,*,#209,.T.);
#267=ORIENTED_EDGE('',*,*,#205,.F.);
#268=ORIENTED_EDGE('',*,*,#210,.F.);
#269=ORIENTED_EDGE('',*,*,#211,.T.);
#270=ORIENTED_EDGE('',*,*,#212,.F.);
#271=ORIENTED_EDGE('',*,*,#213,.F.);
#272=ORIENTED_EDGE('',*,*,#186,.T.);
#273=ORIENTED_EDGE('',*,*,#197,.F.);
#274=ORIENTED_EDGE('',*,*,#203,.F.);
#275=ORIENTED_EDGE('',*,*,#193,.F.);
#276=ORIENTED_EDGE('',*,*,#202,.F.);
#277=ORIENTED_EDGE('',*,*,#214,.F.);
#278=ORIENTED_EDGE('',*,*,#215,.T.);
#279=ORIENTED_EDGE('',*,*,#216,.F.);
#280=ORIENTED_EDGE('',*,*,#215,.F.);
#281=ORIENTED_EDGE('',*,*,#199,.F.);
#282=ORIENTED_EDGE('',*,*,#217,.T.);
#283=ORIENTED_EDGE('',*,*,#218,.T.);
#284=ORIENTED_EDGE('',*,*,#208,.F.);
#285=ORIENTED_EDGE('',*,*,#201,.F.);
#286=ORIENTED_EDGE('',*,*,#207,.T.);
#287=ORIENTED_EDGE('',*,*,#219,.T.);
#288=ORIENTED_EDGE('',*,*,#217,.F.);
#289=ORIENTED_EDGE('',*,*,#209,.F.);
#290=ORIENTED_EDGE('',*,*,#218,.F.);
#291=ORIENTED_EDGE('',*,*,#219,.F.);
#292=ORIENTED_EDGE('',*,*,#206,.F.);
#293=ORIENTED_EDGE('',*,*,#216,.T.);
#294=ORIENTED_EDGE('',*,*,#211,.F.);
#295=ORIENTED_EDGE('',*,*,#220,.T.);
#296=ORIENTED_EDGE('',*,*,#221,.F.);
#297=ORIENTED_EDGE('',*,*,#222,.F.);
#298=ORIENTED_EDGE('',*,*,#212,.T.);
#299=ORIENTED_EDGE('',*,*,#222,.T.);
#300=ORIENTED_EDGE('',*,*,#223,.F.);
#301=ORIENTED_EDGE('',*,*,#224,.F.);
#302=ORIENTED_EDGE('',*,*,#213,.T.);
#303=ORIENTED_EDGE('',*,*,#224,.T.);
#304=ORIENTED_EDGE('',*,*,#225,.F.);
#305=ORIENTED_EDGE('',*,*,#226,.F.);
#306=ORIENTED_EDGE('',*,*,#210,.T.);
#307=ORIENTED_EDGE('',*,*,#226,.T.);
#308=ORIENTED_EDGE('',*,*,#227,.F.);
#309=ORIENTED_EDGE('',*,*,#220,.F.);
#310=ORIENTED_EDGE('',*,*,#227,.T.);
#311=ORIENTED_EDGE('',*,*,#225,.T.);
#312=ORIENTED_EDGE('',*,*,#223,.T.);
#313=ORIENTED_EDGE('',*,*,#221,.T.);
#314=ORIENTED_EDGE('',*,*,#190,.T.);
#315=ORIENTED_EDGE('',*,*,#214,.T.);
#316=CYLINDRICAL_SURFACE('',#358,10.);
#317=CYLINDRICAL_SURFACE('',#363,3.15000000000001);
#318=CYLINDRICAL_SURFACE('',#366,8.99999999999999);
#319=CYLINDRICAL_SURFACE('',#380,2.00000000000001);
#320=CYLINDRICAL_SURFACE('',#383,6.54999999999999);
#321=CYLINDRICAL_SURFACE('',#388,15.);
#322=CYLINDRICAL_SURFACE('',#391,15.);
#323=ADVANCED_FACE('',(#38),#316,.T.);
#324=ADVANCED_FACE('',(#39,#18),#25,.T.);
#325=ADVANCED_FACE('',(#40),#317,.F.);
#326=ADVANCED_FACE('',(#41),#318,.T.);
#327=ADVANCED_FACE('',(#42,#19),#26,.T.);
#328=ADVANCED_FACE('',(#43),#27,.T.);
#329=ADVANCED_FACE('',(#44),#17,.F.);
#330=ADVANCED_FACE('',(#45),#28,.T.);
#331=ADVANCED_FACE('',(#46),#29,.T.);
#332=ADVANCED_FACE('',(#47),#30,.F.);
#333=ADVANCED_FACE('',(#48),#31,.F.);
#334=ADVANCED_FACE('',(#49,#20,#21),#32,.F.);
#335=ADVANCED_FACE('',(#50),#319,.F.);
#336=ADVANCED_FACE('',(#51),#320,.F.);
#337=ADVANCED_FACE('',(#52),#33,.F.);
#338=ADVANCED_FACE('',(#53,#22),#34,.T.);
#339=ADVANCED_FACE('',(#54),#35,.T.);
#340=ADVANCED_FACE('',(#55),#321,.T.);
#341=ADVANCED_FACE('',(#56),#36,.T.);
#342=ADVANCED_FACE('',(#57),#322,.T.);
#343=ADVANCED_FACE('',(#58,#23,#24),#37,.T.);
#344=CLOSED_SHELL('',(#323,#324,#325,#326,#327,#328,#329,#330,#331,#332,
#333,#334,#335,#336,#337,#338,#339,#340,#341,#342,#343));
#345=DERIVED_UNIT_ELEMENT(#347,1.);
#346=DERIVED_UNIT_ELEMENT(#600,-3.);
#347=(
MASS_UNIT()
NAMED_UNIT(*)
SI_UNIT(.KILO.,.GRAM.)
);
#348=DERIVED_UNIT((#345,#346));
#349=MEASURE_REPRESENTATION_ITEM('density measure',
POSITIVE_RATIO_MEASURE(7850.),#348);
#350=PROPERTY_DEFINITION_REPRESENTATION(#355,#352);
#351=PROPERTY_DEFINITION_REPRESENTATION(#356,#353);
#352=REPRESENTATION('material name',(#354),#597);
#353=REPRESENTATION('density',(#349),#597);
#354=DESCRIPTIVE_REPRESENTATION_ITEM('\X2\AC15CCA0\X0\','\X2\AC15CCA0\X0\');
#355=PROPERTY_DEFINITION('material property','material name',#607);
#356=PROPERTY_DEFINITION('material property','density of part',#607);
#357=AXIS2_PLACEMENT_3D('',#495,#394,#395);
#358=AXIS2_PLACEMENT_3D('',#496,#396,#397);
#359=AXIS2_PLACEMENT_3D('',#498,#398,#399);
#360=AXIS2_PLACEMENT_3D('',#501,#401,#402);
#361=AXIS2_PLACEMENT_3D('',#502,#403,#404);
#362=AXIS2_PLACEMENT_3D('',#504,#405,#406);
#363=AXIS2_PLACEMENT_3D('',#505,#407,#408);
#364=AXIS2_PLACEMENT_3D('',#507,#409,#410);
#365=AXIS2_PLACEMENT_3D('',#510,#412,#413);
#366=AXIS2_PLACEMENT_3D('',#511,#414,#415);
#367=AXIS2_PLACEMENT_3D('',#513,#416,#417);
#368=AXIS2_PLACEMENT_3D('',#515,#419,#420);
#369=AXIS2_PLACEMENT_3D('',#516,#421,#422);
#370=AXIS2_PLACEMENT_3D('',#525,#427,#428);
#371=AXIS2_PLACEMENT_3D('',#528,#429,#430);
#372=AXIS2_PLACEMENT_3D('',#535,#431,#432);
#373=AXIS2_PLACEMENT_3D('',#540,#433,#434);
#374=AXIS2_PLACEMENT_3D('',#543,#437,#438);
#375=AXIS2_PLACEMENT_3D('',#546,#441,#442);
#376=AXIS2_PLACEMENT_3D('',#552,#446,#447);
#377=AXIS2_PLACEMENT_3D('',#556,#450,#451);
#378=AXIS2_PLACEMENT_3D('',#559,#452,#453);
#379=AXIS2_PLACEMENT_3D('',#563,#455,#456);
#380=AXIS2_PLACEMENT_3D('',#565,#458,#459);
#381=AXIS2_PLACEMENT_3D('',#567,#460,#461);
#382=AXIS2_PLACEMENT_3D('',#570,#463,#464);
#383=AXIS2_PLACEMENT_3D('',#571,#465,#466);
#384=AXIS2_PLACEMENT_3D('',#574,#468,#469);
#385=AXIS2_PLACEMENT_3D('',#575,#470,#471);
#386=AXIS2_PLACEMENT_3D('',#577,#473,#474);
#387=AXIS2_PLACEMENT_3D('',#578,#475,#476);
#388=AXIS2_PLACEMENT_3D('',#584,#480,#481);
#389=AXIS2_PLACEMENT_3D('',#586,#482,#483);
#390=AXIS2_PLACEMENT_3D('',#588,#485,#486);
#391=AXIS2_PLACEMENT_3D('',#592,#489,#490);
#392=AXIS2_PLACEMENT_3D('',#593,#491,#492);
#393=AXIS2_PLACEMENT_3D('',#594,#493,#494);
#394=DIRECTION('axis',(0.,0.,1.));
#395=DIRECTION('refdir',(1.,0.,0.));
#396=DIRECTION('center_axis',(-1.,0.,-8.32667268468867E-16));
#397=DIRECTION('ref_axis',(4.73316543132607E-30,-1.,-5.44009282066326E-15));
#398=DIRECTION('center_axis',(-1.,-4.94399078631321E-15,-8.35197355559984E-16));
#399=DIRECTION('ref_axis',(4.94399078631321E-15,-1.,-5.44009282066326E-15));
#400=DIRECTION('',(1.,0.,8.32667268468867E-16));
#401=DIRECTION('center_axis',(1.,0.,0.));
#402=DIRECTION('ref_axis',(4.73316543132607E-30,-1.,-5.44009282066326E-15));
#403=DIRECTION('center_axis',(-1.,-4.94399078631321E-15,-8.35197355559984E-16));
#404=DIRECTION('ref_axis',(4.94399078631321E-15,-1.,-5.44009282066326E-15));
#405=DIRECTION('center_axis',(-1.,-4.94399078631321E-15,-8.35197355559984E-16));
#406=DIRECTION('ref_axis',(4.736951571734E-15,-1.,-5.44009282066326E-15));
#407=DIRECTION('center_axis',(1.,4.87507880452896E-15,8.33143350383368E-16));
#408=DIRECTION('ref_axis',(4.87507880452897E-15,-1.,-5.44009282066325E-15));
#409=DIRECTION('center_axis',(1.,4.94399078631321E-15,8.35197355559983E-16));
#410=DIRECTION('ref_axis',(4.87507880452897E-15,-1.,-5.44009282066325E-15));
#411=DIRECTION('',(1.,4.87507880452896E-15,8.33143350383368E-16));
#412=DIRECTION('center_axis',(-1.,0.,0.));
#413=DIRECTION('ref_axis',(4.87507880452897E-15,-1.,-5.44009282066325E-15));
#414=DIRECTION('center_axis',(-1.,-4.736951571734E-15,-8.32667268468867E-16));
#415=DIRECTION('ref_axis',(4.736951571734E-15,-1.,-5.44009282066326E-15));
#416=DIRECTION('center_axis',(-1.,-4.94399078631321E-15,-8.35197355559983E-16));
#417=DIRECTION('ref_axis',(4.94399078631321E-15,-1.,-5.44009282066326E-15));
#418=DIRECTION('',(1.,4.736951571734E-15,8.32667268468867E-16));
#419=DIRECTION('center_axis',(-1.,-4.94399078631321E-15,-8.35197355559983E-16));
#420=DIRECTION('ref_axis',(4.94399078631321E-15,-1.,-5.44009282066326E-15));
#421=DIRECTION('center_axis',(-0.707106781186549,3.55686330063362E-15,-0.707106781186546));
#422=DIRECTION('ref_axis',(-0.707106781186546,0.,0.707106781186549));
#423=DIRECTION('',(0.,1.,5.03016431926321E-15));
#424=DIRECTION('',(0.577350269189628,-0.577350269189616,-0.577350269189634));
#425=DIRECTION('',(0.,-1.,-5.03016431926321E-15));
#426=DIRECTION('',(0.577350269189623,0.577350269189631,-0.577350269189623));
#427=DIRECTION('center_axis',(-1.,0.,0.));
#428=DIRECTION('ref_axis',(2.19365333674051E-15,7.84423588978568E-15,-1.));
#429=DIRECTION('center_axis',(-1.,0.,0.));
#430=DIRECTION('ref_axis',(0.,-1.,-5.88418203051333E-15));
#431=DIRECTION('center_axis',(1.,0.,0.));
#432=DIRECTION('ref_axis',(4.55476112666731E-15,-1.,-5.88418203051333E-15));
#433=DIRECTION('center_axis',(-0.707106781186553,0.707106781186543,4.16074501551197E-15));
#434=DIRECTION('ref_axis',(5.88418203051324E-15,0.,1.));
#435=DIRECTION('',(0.,5.88418203051332E-15,-1.));
#436=DIRECTION('',(0.,-5.88418203051332E-15,1.));
#437=DIRECTION('center_axis',(-0.707106781186553,-0.707106781186543,-4.16074501551197E-15));
#438=DIRECTION('ref_axis',(-5.88418203051324E-15,0.,1.));
#439=DIRECTION('',(0.,5.88418203051332E-15,-1.));
#440=DIRECTION('',(0.,-5.88418203051332E-15,1.));
#441=DIRECTION('center_axis',(-8.54017711250097E-16,-5.03016431926321E-15,
1.));
#442=DIRECTION('ref_axis',(4.94399078631321E-15,-1.,-5.0301643192632E-15));
#443=DIRECTION('',(1.,4.55476112666731E-15,8.5401771125012E-16));
#444=DIRECTION('',(4.94399078631321E-15,-1.,-5.0301643192632E-15));
#445=DIRECTION('',(1.,4.55476112666731E-15,8.5401771125012E-16));
#446=DIRECTION('center_axis',(-4.55476112666731E-15,1.,5.88418203051332E-15));
#447=DIRECTION('ref_axis',(-8.35197355559954E-16,-5.88418203051333E-15,
1.));
#448=DIRECTION('',(1.,4.55476112666731E-15,8.5401771125012E-16));
#449=DIRECTION('',(-8.35197355559954E-16,-5.88418203051333E-15,1.));
#450=DIRECTION('center_axis',(1.,0.,0.));
#451=DIRECTION('ref_axis',(0.,1.,0.));
#452=DIRECTION('center_axis',(1.,0.,0.));
#453=DIRECTION('ref_axis',(0.,1.,0.));
#454=DIRECTION('',(0.,1.,-6.24503561822887E-17));
#455=DIRECTION('center_axis',(1.,0.,0.));
#456=DIRECTION('ref_axis',(0.,1.,0.));
#457=DIRECTION('',(0.,1.,-1.03226797518736E-16));
#458=DIRECTION('center_axis',(-1.,0.,0.));
#459=DIRECTION('ref_axis',(0.,1.,0.));
#460=DIRECTION('center_axis',(-1.,0.,0.));
#461=DIRECTION('ref_axis',(0.,1.,0.));
#462=DIRECTION('',(-1.,0.,0.));
#463=DIRECTION('center_axis',(1.,4.94399078631321E-15,8.35197355559983E-16));
#464=DIRECTION('ref_axis',(0.,1.,0.));
#465=DIRECTION('center_axis',(1.,4.55476112666731E-15,8.5401771125012E-16));
#466=DIRECTION('ref_axis',(8.54017711250089E-16,6.93317271518112E-15,-1.));
#467=DIRECTION('',(1.,4.55476112666731E-15,8.5401771125012E-16));
#468=DIRECTION('center_axis',(1.,4.94399078631321E-15,8.35197355559983E-16));
#469=DIRECTION('ref_axis',(4.94399078631321E-15,-1.,-5.88418203051333E-15));
#470=DIRECTION('center_axis',(4.55476112666731E-15,-1.,-5.88418203051332E-15));
#471=DIRECTION('ref_axis',(8.35197355559954E-16,5.88418203051333E-15,-1.));
#472=DIRECTION('',(8.35197355559954E-16,5.88418203051333E-15,-1.));
#473=DIRECTION('center_axis',(-1.,-4.94399078631321E-15,-8.35197355559983E-16));
#474=DIRECTION('ref_axis',(4.94399078631321E-15,-1.,-5.88418203051332E-15));
#475=DIRECTION('center_axis',(0.,6.24503561822887E-17,1.));
#476=DIRECTION('ref_axis',(0.,-1.,6.24503561822887E-17));
#477=DIRECTION('',(1.,0.,0.));
#478=DIRECTION('',(0.,-1.,6.24503561822887E-17));
#479=DIRECTION('',(1.,0.,0.));
#480=DIRECTION('center_axis',(1.,0.,0.));
#481=DIRECTION('ref_axis',(0.,1.,0.));
#482=DIRECTION('center_axis',(1.,0.,0.));
#483=DIRECTION('ref_axis',(0.,1.,0.));
#484=DIRECTION('',(1.,0.,0.));
#485=DIRECTION('center_axis',(0.,-1.03226797518736E-16,-1.));
#486=DIRECTION('ref_axis',(0.,1.,-1.03226797518736E-16));
#487=DIRECTION('',(0.,1.,-1.03226797518736E-16));
#488=DIRECTION('',(1.,0.,0.));
#489=DIRECTION('center_axis',(1.,0.,0.));
#490=DIRECTION('ref_axis',(0.,-1.,2.50531962987119E-9));
#491=DIRECTION('center_axis',(1.,0.,0.));
#492=DIRECTION('ref_axis',(0.,1.,0.));
#493=DIRECTION('center_axis',(1.,0.,0.));
#494=DIRECTION('ref_axis',(0.,1.,0.));
#495=CARTESIAN_POINT('',(0.,0.,0.));
#496=CARTESIAN_POINT('Origin',(1.33242388200536E-13,-199.715435130587,1.79310919452902));
#497=CARTESIAN_POINT('',(-0.999999999999916,-189.715435130587,1.79310919452907));
#498=CARTESIAN_POINT('Origin',(-0.999999999999867,-199.715435130587,1.79310919452901));
#499=CARTESIAN_POINT('',(8.38024803374042E-14,-189.715435130587,1.79310919452907));
#500=CARTESIAN_POINT('',(1.33242388200536E-13,-189.715435130587,1.79310919452907));
#501=CARTESIAN_POINT('Origin',(1.79860286390391E-27,-199.715435130587,1.79310919452902));
#502=CARTESIAN_POINT('Origin',(-0.999999999999867,-199.715435130587,1.79310919452902));
#503=CARTESIAN_POINT('',(-0.999999999999911,-190.715435130587,1.79310919452906));
#504=CARTESIAN_POINT('Origin',(-0.999999999999867,-199.715435130587,1.7931091945301));
#505=CARTESIAN_POINT('Origin',(-29.9999999999999,-199.715435130587,1.79310919452903));
#506=CARTESIAN_POINT('',(-29.9999999999999,-196.565435130587,1.79310919452905));
#507=CARTESIAN_POINT('Origin',(-29.9999999999999,-199.715435130587,1.79310919452903));
#508=CARTESIAN_POINT('',(23.0000000000001,-196.565435130587,1.79310919452909));
#509=CARTESIAN_POINT('',(-29.9999999999999,-196.565435130587,1.79310919452905));
#510=CARTESIAN_POINT('Origin',(23.0000000000002,-199.715435130587,1.79310919452908));
#511=CARTESIAN_POINT('Origin',(1.33242388200536E-13,-199.715435130587,1.7931091945301));
#512=CARTESIAN_POINT('',(-29.9999999999999,-190.715435130588,1.79310919453012));
#513=CARTESIAN_POINT('Origin',(-29.9999999999999,-199.715435130588,1.79310919453008));
#514=CARTESIAN_POINT('',(9.06098240549296E-14,-190.715435130587,1.79310919453015));
#515=CARTESIAN_POINT('Origin',(-29.9999999999999,-199.715435130588,1.79310919453008));
#516=CARTESIAN_POINT('Origin',(0.25,-149.665435130588,10.7931091945303));
#517=CARTESIAN_POINT('',(0.,-137.815435130588,11.0431091945304));
#518=CARTESIAN_POINT('',(0.,-131.615435130588,11.0431091945304));
#519=CARTESIAN_POINT('',(0.,-149.665435130588,11.0431091945303));
#520=CARTESIAN_POINT('',(0.5,-132.115435130588,10.5431091945304));
#521=CARTESIAN_POINT('',(0.,-131.615435130588,11.0431091945304));
#522=CARTESIAN_POINT('',(0.5,-137.315435130588,10.5431091945304));
#523=CARTESIAN_POINT('',(0.5,-149.665435130588,10.5431091945303));
#524=CARTESIAN_POINT('',(0.,-137.815435130588,11.0431091945304));
#525=CARTESIAN_POINT('Origin',(0.249999999999852,-134.715435130588,1.79310919453042));
#526=CARTESIAN_POINT('',(0.,-131.615435130588,8.12497305914407));
#527=CARTESIAN_POINT('',(0.,-137.815435130588,8.12497305914404));
#528=CARTESIAN_POINT('Origin',(0.,-134.715435130588,1.79310919453042));
#529=CARTESIAN_POINT('',(0.499999999999704,-137.315435130588,7.80497246642871));
#530=CARTESIAN_POINT('Ctrl Pts',(-1.83880688453542E-15,-137.815435130588,
8.12497305914405));
#531=CARTESIAN_POINT('Ctrl Pts',(0.1672883067965,-137.648146823791,8.02061377000333));
#532=CARTESIAN_POINT('Ctrl Pts',(0.334179906158883,-137.481255224429,7.91392194532536));
#533=CARTESIAN_POINT('Ctrl Pts',(0.49999999999979,-137.315435130588,7.80497246642855));
#534=CARTESIAN_POINT('',(0.5,-132.115435130588,7.80497246642874));
#535=CARTESIAN_POINT('Origin',(0.499999999999704,-134.715435130588,1.79310919453042));
#536=CARTESIAN_POINT('Ctrl Pts',(0.499999999999798,-132.115435130587,7.80497246642855));
#537=CARTESIAN_POINT('Ctrl Pts',(0.33417990615823,-131.949615036746,7.9139219453258));
#538=CARTESIAN_POINT('Ctrl Pts',(0.167288306795028,-131.782723437383,8.02061377000426));
#539=CARTESIAN_POINT('Ctrl Pts',(-1.57859836313889E-14,-131.615435130588,
8.12497305914407));
#540=CARTESIAN_POINT('Origin',(0.25,-137.565435130588,6.16810919453087));
#541=CARTESIAN_POINT('',(0.5,-137.315435130588,6.16810919453087));
#542=CARTESIAN_POINT('',(0.,-137.815435130588,6.16810919453087));
#543=CARTESIAN_POINT('Origin',(0.25,-131.865435130588,4.79904083048006));
#544=CARTESIAN_POINT('',(0.,-131.615435130588,4.79904083048006));
#545=CARTESIAN_POINT('',(0.5,-132.115435130588,4.79904083048006));
#546=CARTESIAN_POINT('Origin',(4.88345491264323E-15,-132.115435130588,10.5431091945304));
#547=CARTESIAN_POINT('',(19.5,-132.115435130587,10.5431091945304));
#548=CARTESIAN_POINT('',(4.88345491264323E-15,-132.115435130588,10.5431091945304));
#549=CARTESIAN_POINT('',(19.5,-137.315435130587,10.5431091945304));
#550=CARTESIAN_POINT('',(19.5,-132.115435130587,10.5431091945304));
#551=CARTESIAN_POINT('',(3.05922070014719E-14,-137.315435130588,10.5431091945304));
#552=CARTESIAN_POINT('Origin',(7.17033946711537E-15,-132.115435130588,7.80497246642874));
#553=CARTESIAN_POINT('',(19.5,-132.115435130587,7.80497246642876));
#554=CARTESIAN_POINT('',(7.17033946711537E-15,-132.115435130588,7.80497246642874));
#555=CARTESIAN_POINT('',(19.5,-132.115435130587,5.34310919453044));
#556=CARTESIAN_POINT('Origin',(0.,-167.215435130587,1.79310919453117));
#557=CARTESIAN_POINT('',(0.,-199.715434873011,16.7931091945312));
#558=CARTESIAN_POINT('',(0.,-199.71543494817,-13.2068908054688));
#559=CARTESIAN_POINT('Origin',(0.,-199.715435130587,1.79310919453117));
#560=CARTESIAN_POINT('',(0.,-134.715434972903,16.7931091945312));
#561=CARTESIAN_POINT('',(0.,-254.967346546239,16.7931091945312));
#562=CARTESIAN_POINT('',(0.,-134.71543494817,-13.2068908054688));
#563=CARTESIAN_POINT('Origin',(0.,-134.715435130587,1.79310919453116));
#564=CARTESIAN_POINT('',(0.,-207.136302890411,-13.2068908054688));
#565=CARTESIAN_POINT('Origin',(23.,-134.715435130587,1.79310919453116));
#566=CARTESIAN_POINT('',(23.,-136.715435130587,1.79310919453116));
#567=CARTESIAN_POINT('Origin',(23.,-134.715435130587,1.79310919453116));
#568=CARTESIAN_POINT('',(19.5,-136.715435130587,1.79310919453116));
#569=CARTESIAN_POINT('',(23.,-136.715435130587,1.79310919453116));
#570=CARTESIAN_POINT('Origin',(19.5,-134.715435130587,1.79310919453116));
#571=CARTESIAN_POINT('Origin',(2.50458078182072E-14,-134.715435130588,1.79310919453042));
#572=CARTESIAN_POINT('',(19.5,-137.315435130587,7.80497246642873));
#573=CARTESIAN_POINT('',(3.28790915559442E-14,-137.315435130588,7.80497246642871));
#574=CARTESIAN_POINT('Origin',(19.5,-134.715435130587,1.79310919453043));
#575=CARTESIAN_POINT('Origin',(3.05922070014719E-14,-137.315435130588,10.5431091945304));
#576=CARTESIAN_POINT('',(19.5,-137.315435130587,10.5431091945304));
#577=CARTESIAN_POINT('Origin',(19.5,-134.715435130587,2.89310919453043));
#578=CARTESIAN_POINT('Origin',(0.,-134.715434972903,16.7931091945312));
#579=CARTESIAN_POINT('',(23.,-199.715434873011,16.7931091945312));
#580=CARTESIAN_POINT('',(0.,-199.715434873011,16.7931091945312));
#581=CARTESIAN_POINT('',(23.,-134.715434972903,16.7931091945312));
#582=CARTESIAN_POINT('',(23.,-254.967346546239,16.7931091945312));
#583=CARTESIAN_POINT('',(0.,-134.715434972903,16.7931091945312));
#584=CARTESIAN_POINT('Origin',(0.,-134.715435130587,1.79310919453116));
#585=CARTESIAN_POINT('',(23.,-134.71543494817,-13.2068908054688));
#586=CARTESIAN_POINT('Origin',(23.,-134.715435130587,1.79310919453116));
#587=CARTESIAN_POINT('',(0.,-134.71543494817,-13.2068908054688));
#588=CARTESIAN_POINT('Origin',(0.,-199.71543494817,-13.2068908054688));
#589=CARTESIAN_POINT('',(23.,-199.71543494817,-13.2068908054688));
#590=CARTESIAN_POINT('',(23.,-207.136302890411,-13.2068908054688));
#591=CARTESIAN_POINT('',(0.,-199.71543494817,-13.2068908054688));
#592=CARTESIAN_POINT('Origin',(0.,-199.715435130587,1.79310919453117));
#593=CARTESIAN_POINT('Origin',(23.,-199.715435130587,1.79310919453117));
#594=CARTESIAN_POINT('Origin',(23.,-167.215435130587,1.79310919453117));
#595=UNCERTAINTY_MEASURE_WITH_UNIT(LENGTH_MEASURE(0.01),#599,
'DISTANCE_ACCURACY_VALUE',
'Maximum model space distance between geometric entities at asserted c
onnectivities');
#596=UNCERTAINTY_MEASURE_WITH_UNIT(LENGTH_MEASURE(0.01),#599,
'DISTANCE_ACCURACY_VALUE',
'Maximum model space distance between geometric entities at asserted c
onnectivities');
#597=(
GEOMETRIC_REPRESENTATION_CONTEXT(3)
GLOBAL_UNCERTAINTY_ASSIGNED_CONTEXT((#595))
GLOBAL_UNIT_ASSIGNED_CONTEXT((#599,#601,#602))
REPRESENTATION_CONTEXT('','3D')
);
#598=(
GEOMETRIC_REPRESENTATION_CONTEXT(3)
GLOBAL_UNCERTAINTY_ASSIGNED_CONTEXT((#596))
GLOBAL_UNIT_ASSIGNED_CONTEXT((#599,#601,#602))
REPRESENTATION_CONTEXT('','3D')
);
#599=(
LENGTH_UNIT()
NAMED_UNIT(*)
SI_UNIT(.MILLI.,.METRE.)
);
#600=(
LENGTH_UNIT()
NAMED_UNIT(*)
SI_UNIT($,.METRE.)
);
#601=(
NAMED_UNIT(*)
PLANE_ANGLE_UNIT()
SI_UNIT($,.RADIAN.)
);
#602=(
NAMED_UNIT(*)
SI_UNIT($,.STERADIAN.)
SOLID_ANGLE_UNIT()
);
#603=SHAPE_DEFINITION_REPRESENTATION(#604,#605);
#604=PRODUCT_DEFINITION_SHAPE('',$,#607);
#605=SHAPE_REPRESENTATION('',(#357),#597);
#606=PRODUCT_DEFINITION_CONTEXT('part definition',#611,'design');
#607=PRODUCT_DEFINITION('2026-05-25-19-21-52-008','ARM',#608,#606);
#608=PRODUCT_DEFINITION_FORMATION('',$,#613);
#609=PRODUCT_RELATED_PRODUCT_CATEGORY('ARM','ARM',(#613));
#610=APPLICATION_PROTOCOL_DEFINITION('international standard',
'automotive_design',2009,#611);
#611=APPLICATION_CONTEXT(
'Core Data for Automotive Mechanical Design Process');
#612=PRODUCT_CONTEXT('part definition',#611,'mechanical');
#613=PRODUCT('2026-05-25-19-21-52-008','ARM',$,(#612));
#614=PRESENTATION_STYLE_ASSIGNMENT((#616));
#615=PRESENTATION_STYLE_ASSIGNMENT((#617));
#616=SURFACE_STYLE_USAGE(.BOTH.,#618);
#617=SURFACE_STYLE_USAGE(.BOTH.,#619);
#618=SURFACE_SIDE_STYLE('',(#620));
#619=SURFACE_SIDE_STYLE('',(#621));
#620=SURFACE_STYLE_FILL_AREA(#622);
#621=SURFACE_STYLE_FILL_AREA(#623);
#622=FILL_AREA_STYLE('\X2\AC15CCA0\X0\ - \X2\C0C8D2F4\X0\',(#624));
#623=FILL_AREA_STYLE('\X2\D398C778D2B8\X0\ - \X2\C5D0B098BA5C\X0\ \X2\AD11D0DD\X0\(
\X2\BE68AC04C0C9\X0\)',(#625));
#624=FILL_AREA_STYLE_COLOUR('\X2\AC15CCA0\X0\ - \X2\C0C8D2F4\X0\',#626);
#625=FILL_AREA_STYLE_COLOUR('\X2\D398C778D2B8\X0\ - \X2\C5D0B098BA5C\X0\ 
\X2\AD11D0DD\X0\(\X2\BE68AC04C0C9\X0\)',#627);
#626=COLOUR_RGB('\X2\AC15CCA0\X0\ - \X2\C0C8D2F4\X0\',0.627450980392157,
0.627450980392157,0.627450980392157);
#627=COLOUR_RGB('\X2\D398C778D2B8\X0\ - \X2\C5D0B098BA5C\X0\ \X2\AD11D0DD\X0\(
\X2\BE68AC04C0C9\X0\)',0.768627450980392,0.207843137254902,0.152941176470588);
ENDSEC;
END-ISO-10303-21;
