ISO-10303-21;
HEADER;
/* Generated by software containing ST-Developer
 * from STEP Tools, Inc. (www.steptools.com) 
 */

FILE_DESCRIPTION(
/* description */ (''),
/* implementation_level */ '2;1');

FILE_NAME(
/* name */ 'BODY_MOUNT.step',
/* time_stamp */ '2026-05-25T19:26:03+09:00',
/* author */ (''),
/* organization */ (''),
/* preprocessor_version */ 'ST-DEVELOPER v20.1',
/* originating_system */ 'Autodesk Translation Framework v15.8.0.0',
/* authorisation */ '');

FILE_SCHEMA (('AUTOMOTIVE_DESIGN { 1 0 10303 214 3 1 1 }'));
ENDSEC;

DATA;
#10=MECHANICAL_DESIGN_GEOMETRIC_PRESENTATION_REPRESENTATION('',(#13),#1346);
#11=SHAPE_REPRESENTATION_RELATIONSHIP('SRR','None',#1352,#12);
#12=ADVANCED_BREP_SHAPE_REPRESENTATION('',(#14),#1345);
#13=STYLED_ITEM('',(#1361),#14);
#14=MANIFOLD_SOLID_BREP('\X2\BCF8CCB4\X0\1',#718);
#15=FACE_BOUND('',#97,.T.);
#16=FACE_BOUND('',#100,.T.);
#17=FACE_BOUND('',#103,.T.);
#18=FACE_BOUND('',#106,.T.);
#19=FACE_BOUND('',#117,.T.);
#20=FACE_BOUND('',#119,.T.);
#21=FACE_BOUND('',#121,.T.);
#22=FACE_BOUND('',#123,.T.);
#23=FACE_BOUND('',#125,.T.);
#24=FACE_BOUND('',#126,.T.);
#25=FACE_BOUND('',#128,.T.);
#26=FACE_BOUND('',#130,.T.);
#27=FACE_BOUND('',#131,.T.);
#28=FACE_BOUND('',#132,.T.);
#29=FACE_BOUND('',#133,.T.);
#30=FACE_BOUND('',#135,.T.);
#31=FACE_BOUND('',#137,.T.);
#32=FACE_BOUND('',#138,.T.);
#33=FACE_BOUND('',#140,.T.);
#34=FACE_BOUND('',#142,.T.);
#35=PLANE('',#735);
#36=PLANE('',#743);
#37=PLANE('',#751);
#38=PLANE('',#759);
#39=PLANE('',#761);
#40=PLANE('',#762);
#41=PLANE('',#763);
#42=PLANE('',#764);
#43=PLANE('',#765);
#44=PLANE('',#774);
#45=PLANE('',#775);
#46=PLANE('',#776);
#47=PLANE('',#777);
#48=PLANE('',#781);
#49=PLANE('',#782);
#50=PLANE('',#783);
#51=PLANE('',#787);
#52=PLANE('',#788);
#53=B_SPLINE_CURVE_WITH_KNOTS('',3,(#1019,#1020,#1021,#1022,#1023,#1024,
#1025,#1026,#1027,#1028),.UNSPECIFIED.,.F.,.F.,(4,2,2,2,4),(0.,0.223150885620286,
0.446301771240573,0.711252891948818,0.976204012657062),.UNSPECIFIED.);
#54=B_SPLINE_CURVE_WITH_KNOTS('',3,(#1029,#1030,#1031,#1032,#1033,#1034,
#1035,#1036,#1037,#1038,#1039,#1040,#1041,#1042,#1043,#1044,#1045,#1046,
#1047,#1048,#1049,#1050,#1051,#1052,#1053,#1054,#1055,#1056,#1057,#1058),
 .UNSPECIFIED.,.F.,.F.,(4,2,2,2,2,2,2,2,2,2,2,2,2,2,4),(0.976204012657062,
1.27469311061575,1.57318220857444,1.80236104750016,1.91695046696303,2.03153988642589,
2.14612930588875,2.26071872535162,2.48989756427734,2.78838666223603,3.08687576019472,
3.35182688090296,3.61677800161121,3.83992888723149,4.06307977285178),
 .UNSPECIFIED.);
#55=B_SPLINE_CURVE_WITH_KNOTS('',3,(#1081,#1082,#1083,#1084,#1085,#1086,
#1087,#1088,#1089,#1090,#1091,#1092),.UNSPECIFIED.,.F.,.F.,(4,2,2,2,2,4),
(0.,0.114589419462863,0.229178838925727,0.458357677851454,0.75684677581014,
1.05533587376883),.UNSPECIFIED.);
#56=B_SPLINE_CURVE_WITH_KNOTS('',3,(#1093,#1094,#1095,#1096,#1097,#1098,
#1099,#1100,#1101,#1102,#1103,#1104,#1105,#1106,#1107,#1108,#1109,#1110,
#1111,#1112,#1113,#1114,#1115,#1116,#1117,#1118,#1119,#1120),
 .UNSPECIFIED.,.F.,.F.,(4,2,2,2,2,2,2,2,2,2,2,2,2,4),(1.05533587376883,
1.32028699447707,1.58523811518532,1.8083890008056,2.03153988642589,2.25469077204618,
2.47784165766646,2.74279277837471,3.00774389908295,3.30623299704164,3.60472209500032,
3.83390093392605,3.94849035338892,4.06307977285178),.UNSPECIFIED.);
#57=B_SPLINE_CURVE_WITH_KNOTS('',3,(#1143,#1144,#1145,#1146,#1147,#1148,
#1149,#1150,#1151,#1152),.UNSPECIFIED.,.F.,.F.,(4,2,2,2,4),(0.,0.223150885620286,
0.446301771240573,0.711252891948818,0.976204012657063),.UNSPECIFIED.);
#58=B_SPLINE_CURVE_WITH_KNOTS('',3,(#1153,#1154,#1155,#1156,#1157,#1158,
#1159,#1160,#1161,#1162,#1163,#1164,#1165,#1166,#1167,#1168,#1169,#1170,
#1171,#1172,#1173,#1174,#1175,#1176,#1177,#1178,#1179,#1180,#1181,#1182),
 .UNSPECIFIED.,.F.,.F.,(4,2,2,2,2,2,2,2,2,2,2,2,2,2,4),(0.976204012657063,
1.27469311061575,1.57318220857444,1.80236104750016,1.91695046696303,2.03153988642589,
2.14612930588875,2.26071872535162,2.48989756427734,2.78838666223603,3.08687576019472,
3.35182688090296,3.61677800161121,3.83992888723149,4.06307977285178),
 .UNSPECIFIED.);
#59=B_SPLINE_CURVE_WITH_KNOTS('',3,(#1205,#1206,#1207,#1208,#1209,#1210,
#1211,#1212,#1213,#1214,#1215,#1216),.UNSPECIFIED.,.F.,.F.,(4,2,2,2,2,4),
(0.,0.114589419462864,0.229178838925727,0.458357677851454,0.756846775810141,
1.05533587376883),.UNSPECIFIED.);
#60=B_SPLINE_CURVE_WITH_KNOTS('',3,(#1217,#1218,#1219,#1220,#1221,#1222,
#1223,#1224,#1225,#1226,#1227,#1228,#1229,#1230,#1231,#1232,#1233,#1234,
#1235,#1236,#1237,#1238,#1239,#1240,#1241,#1242,#1243,#1244),
 .UNSPECIFIED.,.F.,.F.,(4,2,2,2,2,2,2,2,2,2,2,2,2,4),(1.05533587376883,
1.32028699447707,1.58523811518532,1.8083890008056,2.03153988642589,2.25469077204618,
2.47784165766646,2.74279277837471,3.00774389908295,3.30623299704164,3.60472209500033,
3.83390093392605,3.94849035338892,4.06307977285178),.UNSPECIFIED.);
#61=FACE_OUTER_BOUND('',#92,.T.);
#62=FACE_OUTER_BOUND('',#93,.T.);
#63=FACE_OUTER_BOUND('',#94,.T.);
#64=FACE_OUTER_BOUND('',#95,.T.);
#65=FACE_OUTER_BOUND('',#96,.T.);
#66=FACE_OUTER_BOUND('',#98,.T.);
#67=FACE_OUTER_BOUND('',#99,.T.);
#68=FACE_OUTER_BOUND('',#101,.T.);
#69=FACE_OUTER_BOUND('',#102,.T.);
#70=FACE_OUTER_BOUND('',#104,.T.);
#71=FACE_OUTER_BOUND('',#105,.T.);
#72=FACE_OUTER_BOUND('',#107,.T.);
#73=FACE_OUTER_BOUND('',#108,.T.);
#74=FACE_OUTER_BOUND('',#109,.T.);
#75=FACE_OUTER_BOUND('',#110,.T.);
#76=FACE_OUTER_BOUND('',#111,.T.);
#77=FACE_OUTER_BOUND('',#112,.T.);
#78=FACE_OUTER_BOUND('',#113,.T.);
#79=FACE_OUTER_BOUND('',#114,.T.);
#80=FACE_OUTER_BOUND('',#115,.T.);
#81=FACE_OUTER_BOUND('',#116,.T.);
#82=FACE_OUTER_BOUND('',#118,.T.);
#83=FACE_OUTER_BOUND('',#120,.T.);
#84=FACE_OUTER_BOUND('',#122,.T.);
#85=FACE_OUTER_BOUND('',#124,.T.);
#86=FACE_OUTER_BOUND('',#127,.T.);
#87=FACE_OUTER_BOUND('',#129,.T.);
#88=FACE_OUTER_BOUND('',#134,.T.);
#89=FACE_OUTER_BOUND('',#136,.T.);
#90=FACE_OUTER_BOUND('',#139,.T.);
#91=FACE_OUTER_BOUND('',#141,.T.);
#92=EDGE_LOOP('',(#468,#469,#470,#471));
#93=EDGE_LOOP('',(#472,#473,#474,#475));
#94=EDGE_LOOP('',(#476,#477,#478,#479));
#95=EDGE_LOOP('',(#480,#481,#482,#483,#484,#485,#486,#487,#488,#489,#490,
#491,#492));
#96=EDGE_LOOP('',(#493));
#97=EDGE_LOOP('',(#494));
#98=EDGE_LOOP('',(#495,#496,#497,#498,#499,#500,#501,#502,#503,#504,#505,
#506,#507));
#99=EDGE_LOOP('',(#508));
#100=EDGE_LOOP('',(#509));
#101=EDGE_LOOP('',(#510,#511,#512,#513,#514,#515,#516,#517,#518,#519,#520,
#521,#522));
#102=EDGE_LOOP('',(#523));
#103=EDGE_LOOP('',(#524));
#104=EDGE_LOOP('',(#525,#526,#527,#528,#529,#530,#531,#532,#533,#534,#535,
#536,#537));
#105=EDGE_LOOP('',(#538));
#106=EDGE_LOOP('',(#539));
#107=EDGE_LOOP('',(#540,#541,#542,#543));
#108=EDGE_LOOP('',(#544,#545,#546,#547));
#109=EDGE_LOOP('',(#548,#549,#550,#551));
#110=EDGE_LOOP('',(#552,#553,#554,#555));
#111=EDGE_LOOP('',(#556,#557,#558,#559,#560,#561,#562,#563,#564,#565,#566,
#567,#568,#569,#570,#571));
#112=EDGE_LOOP('',(#572,#573,#574,#575));
#113=EDGE_LOOP('',(#576,#577,#578,#579));
#114=EDGE_LOOP('',(#580,#581,#582,#583));
#115=EDGE_LOOP('',(#584,#585,#586,#587));
#116=EDGE_LOOP('',(#588,#589,#590,#591));
#117=EDGE_LOOP('',(#592));
#118=EDGE_LOOP('',(#593,#594,#595,#596));
#119=EDGE_LOOP('',(#597));
#120=EDGE_LOOP('',(#598,#599,#600,#601,#602,#603,#604,#605,#606,#607,#608,
#609,#610,#611,#612,#613));
#121=EDGE_LOOP('',(#614));
#122=EDGE_LOOP('',(#615,#616,#617,#618));
#123=EDGE_LOOP('',(#619));
#124=EDGE_LOOP('',(#620,#621,#622,#623));
#125=EDGE_LOOP('',(#624,#625));
#126=EDGE_LOOP('',(#626,#627));
#127=EDGE_LOOP('',(#628,#629,#630,#631));
#128=EDGE_LOOP('',(#632));
#129=EDGE_LOOP('',(#633,#634,#635,#636));
#130=EDGE_LOOP('',(#637));
#131=EDGE_LOOP('',(#638));
#132=EDGE_LOOP('',(#639));
#133=EDGE_LOOP('',(#640));
#134=EDGE_LOOP('',(#641,#642,#643,#644));
#135=EDGE_LOOP('',(#645));
#136=EDGE_LOOP('',(#646,#647,#648,#649));
#137=EDGE_LOOP('',(#650,#651));
#138=EDGE_LOOP('',(#652,#653));
#139=EDGE_LOOP('',(#654,#655,#656,#657,#658,#659));
#140=EDGE_LOOP('',(#660,#661,#662,#663));
#141=EDGE_LOOP('',(#664,#665,#666,#667,#668,#669));
#142=EDGE_LOOP('',(#670,#671,#672,#673));
#143=LINE('',#991,#200);
#144=LINE('',#997,#201);
#145=LINE('',#1003,#202);
#146=LINE('',#1009,#203);
#147=LINE('',#1013,#204);
#148=LINE('',#1017,#205);
#149=LINE('',#1062,#206);
#150=LINE('',#1071,#207);
#151=LINE('',#1075,#208);
#152=LINE('',#1079,#209);
#153=LINE('',#1124,#210);
#154=LINE('',#1133,#211);
#155=LINE('',#1137,#212);
#156=LINE('',#1141,#213);
#157=LINE('',#1186,#214);
#158=LINE('',#1195,#215);
#159=LINE('',#1199,#216);
#160=LINE('',#1203,#217);
#161=LINE('',#1248,#218);
#162=LINE('',#1255,#219);
#163=LINE('',#1257,#220);
#164=LINE('',#1258,#221);
#165=LINE('',#1261,#222);
#166=LINE('',#1263,#223);
#167=LINE('',#1264,#224);
#168=LINE('',#1267,#225);
#169=LINE('',#1269,#226);
#170=LINE('',#1270,#227);
#171=LINE('',#1273,#228);
#172=LINE('',#1275,#229);
#173=LINE('',#1276,#230);
#174=LINE('',#1278,#231);
#175=LINE('',#1279,#232);
#176=LINE('',#1280,#233);
#177=LINE('',#1281,#234);
#178=LINE('',#1285,#235);
#179=LINE('',#1289,#236);
#180=LINE('',#1293,#237);
#181=LINE('',#1297,#238);
#182=LINE('',#1299,#239);
#183=LINE('',#1301,#240);
#184=LINE('',#1303,#241);
#185=LINE('',#1304,#242);
#186=LINE('',#1308,#243);
#187=LINE('',#1310,#244);
#188=LINE('',#1312,#245);
#189=LINE('',#1313,#246);
#190=LINE('',#1319,#247);
#191=LINE('',#1322,#248);
#192=LINE('',#1324,#249);
#193=LINE('',#1325,#250);
#194=LINE('',#1328,#251);
#195=LINE('',#1330,#252);
#196=LINE('',#1331,#253);
#197=LINE('',#1334,#254);
#198=LINE('',#1336,#255);
#199=LINE('',#1337,#256);
#200=VECTOR('',#795,1.975);
#201=VECTOR('',#802,1.975);
#202=VECTOR('',#809,1.975);
#203=VECTOR('',#816,6.);
#204=VECTOR('',#819,10.);
#205=VECTOR('',#822,6.);
#206=VECTOR('',#825,10.);
#207=VECTOR('',#836,6.);
#208=VECTOR('',#839,10.);
#209=VECTOR('',#842,6.);
#210=VECTOR('',#845,10.);
#211=VECTOR('',#856,6.);
#212=VECTOR('',#859,10.);
#213=VECTOR('',#862,6.);
#214=VECTOR('',#865,10.);
#215=VECTOR('',#876,6.);
#216=VECTOR('',#879,10.);
#217=VECTOR('',#882,6.);
#218=VECTOR('',#885,10.);
#219=VECTOR('',#894,10.);
#220=VECTOR('',#895,10.);
#221=VECTOR('',#896,10.);
#222=VECTOR('',#899,10.);
#223=VECTOR('',#900,10.);
#224=VECTOR('',#901,10.);
#225=VECTOR('',#904,10.);
#226=VECTOR('',#905,10.);
#227=VECTOR('',#906,10.);
#228=VECTOR('',#909,10.);
#229=VECTOR('',#910,10.);
#230=VECTOR('',#911,10.);
#231=VECTOR('',#914,10.);
#232=VECTOR('',#915,10.);
#233=VECTOR('',#916,10.);
#234=VECTOR('',#917,10.);
#235=VECTOR('',#922,3.15);
#236=VECTOR('',#927,3.15);
#237=VECTOR('',#932,3.15);
#238=VECTOR('',#937,3.15);
#239=VECTOR('',#940,10.);
#240=VECTOR('',#943,10.);
#241=VECTOR('',#946,10.);
#242=VECTOR('',#947,10.);
#243=VECTOR('',#950,10.);
#244=VECTOR('',#951,10.);
#245=VECTOR('',#952,10.);
#246=VECTOR('',#953,10.);
#247=VECTOR('',#960,10.);
#248=VECTOR('',#963,10.);
#249=VECTOR('',#964,10.);
#250=VECTOR('',#965,10.);
#251=VECTOR('',#968,10.);
#252=VECTOR('',#969,10.);
#253=VECTOR('',#970,10.);
#254=VECTOR('',#973,10.);
#255=VECTOR('',#974,10.);
#256=VECTOR('',#975,10.);
#257=CIRCLE('',#721,1.975);
#258=CIRCLE('',#722,1.975);
#259=CIRCLE('',#724,1.975);
#260=CIRCLE('',#725,1.975);
#261=CIRCLE('',#727,1.975);
#262=CIRCLE('',#728,1.975);
#263=CIRCLE('',#730,6.);
#264=CIRCLE('',#731,6.);
#265=CIRCLE('',#732,6.);
#266=CIRCLE('',#733,6.);
#267=CIRCLE('',#734,6.);
#268=CIRCLE('',#736,3.15);
#269=CIRCLE('',#738,6.);
#270=CIRCLE('',#739,6.);
#271=CIRCLE('',#740,6.);
#272=CIRCLE('',#741,6.);
#273=CIRCLE('',#742,6.);
#274=CIRCLE('',#744,3.15);
#275=CIRCLE('',#746,6.);
#276=CIRCLE('',#747,6.);
#277=CIRCLE('',#748,6.);
#278=CIRCLE('',#749,6.);
#279=CIRCLE('',#750,6.);
#280=CIRCLE('',#752,3.15);
#281=CIRCLE('',#754,6.);
#282=CIRCLE('',#755,6.);
#283=CIRCLE('',#756,6.);
#284=CIRCLE('',#757,6.);
#285=CIRCLE('',#758,6.);
#286=CIRCLE('',#760,3.15);
#287=CIRCLE('',#767,3.15);
#288=CIRCLE('',#769,3.15);
#289=CIRCLE('',#771,3.15);
#290=CIRCLE('',#773,3.15);
#291=CIRCLE('',#779,35.);
#292=CIRCLE('',#780,35.);
#293=CIRCLE('',#785,35.);
#294=CIRCLE('',#786,35.);
#295=VERTEX_POINT('',#988);
#296=VERTEX_POINT('',#990);
#297=VERTEX_POINT('',#994);
#298=VERTEX_POINT('',#996);
#299=VERTEX_POINT('',#1000);
#300=VERTEX_POINT('',#1002);
#301=VERTEX_POINT('',#1006);
#302=VERTEX_POINT('',#1008);
#303=VERTEX_POINT('',#1010);
#304=VERTEX_POINT('',#1012);
#305=VERTEX_POINT('',#1014);
#306=VERTEX_POINT('',#1016);
#307=VERTEX_POINT('',#1018);
#308=VERTEX_POINT('',#1059);
#309=VERTEX_POINT('',#1061);
#310=VERTEX_POINT('',#1065);
#311=VERTEX_POINT('',#1068);
#312=VERTEX_POINT('',#1070);
#313=VERTEX_POINT('',#1072);
#314=VERTEX_POINT('',#1074);
#315=VERTEX_POINT('',#1076);
#316=VERTEX_POINT('',#1078);
#317=VERTEX_POINT('',#1080);
#318=VERTEX_POINT('',#1121);
#319=VERTEX_POINT('',#1123);
#320=VERTEX_POINT('',#1127);
#321=VERTEX_POINT('',#1130);
#322=VERTEX_POINT('',#1132);
#323=VERTEX_POINT('',#1134);
#324=VERTEX_POINT('',#1136);
#325=VERTEX_POINT('',#1138);
#326=VERTEX_POINT('',#1140);
#327=VERTEX_POINT('',#1142);
#328=VERTEX_POINT('',#1183);
#329=VERTEX_POINT('',#1185);
#330=VERTEX_POINT('',#1189);
#331=VERTEX_POINT('',#1192);
#332=VERTEX_POINT('',#1194);
#333=VERTEX_POINT('',#1196);
#334=VERTEX_POINT('',#1198);
#335=VERTEX_POINT('',#1200);
#336=VERTEX_POINT('',#1202);
#337=VERTEX_POINT('',#1204);
#338=VERTEX_POINT('',#1245);
#339=VERTEX_POINT('',#1247);
#340=VERTEX_POINT('',#1251);
#341=VERTEX_POINT('',#1254);
#342=VERTEX_POINT('',#1256);
#343=VERTEX_POINT('',#1260);
#344=VERTEX_POINT('',#1262);
#345=VERTEX_POINT('',#1266);
#346=VERTEX_POINT('',#1268);
#347=VERTEX_POINT('',#1272);
#348=VERTEX_POINT('',#1274);
#349=VERTEX_POINT('',#1283);
#350=VERTEX_POINT('',#1287);
#351=VERTEX_POINT('',#1291);
#352=VERTEX_POINT('',#1295);
#353=VERTEX_POINT('',#1306);
#354=VERTEX_POINT('',#1307);
#355=VERTEX_POINT('',#1309);
#356=VERTEX_POINT('',#1311);
#357=VERTEX_POINT('',#1315);
#358=VERTEX_POINT('',#1317);
#359=VERTEX_POINT('',#1321);
#360=VERTEX_POINT('',#1323);
#361=VERTEX_POINT('',#1327);
#362=VERTEX_POINT('',#1329);
#363=VERTEX_POINT('',#1333);
#364=VERTEX_POINT('',#1335);
#365=EDGE_CURVE('',#295,#295,#257,.T.);
#366=EDGE_CURVE('',#295,#296,#143,.T.);
#367=EDGE_CURVE('',#296,#296,#258,.T.);
#368=EDGE_CURVE('',#297,#297,#259,.T.);
#369=EDGE_CURVE('',#297,#298,#144,.T.);
#370=EDGE_CURVE('',#298,#298,#260,.T.);
#371=EDGE_CURVE('',#299,#299,#261,.T.);
#372=EDGE_CURVE('',#299,#300,#145,.T.);
#373=EDGE_CURVE('',#300,#300,#262,.T.);
#374=EDGE_CURVE('',#301,#301,#263,.T.);
#375=EDGE_CURVE('',#301,#302,#146,.T.);
#376=EDGE_CURVE('',#303,#302,#264,.T.);
#377=EDGE_CURVE('',#304,#303,#147,.T.);
#378=EDGE_CURVE('',#305,#304,#265,.T.);
#379=EDGE_CURVE('',#305,#306,#148,.T.);
#380=EDGE_CURVE('',#307,#306,#53,.T.);
#381=EDGE_CURVE('',#306,#307,#54,.T.);
#382=EDGE_CURVE('',#308,#305,#266,.T.);
#383=EDGE_CURVE('',#309,#308,#149,.T.);
#384=EDGE_CURVE('',#302,#309,#267,.T.);
#385=EDGE_CURVE('',#310,#310,#268,.T.);
#386=EDGE_CURVE('',#311,#311,#269,.T.);
#387=EDGE_CURVE('',#311,#312,#150,.T.);
#388=EDGE_CURVE('',#313,#312,#270,.T.);
#389=EDGE_CURVE('',#314,#313,#151,.T.);
#390=EDGE_CURVE('',#315,#314,#271,.T.);
#391=EDGE_CURVE('',#315,#316,#152,.T.);
#392=EDGE_CURVE('',#317,#316,#55,.T.);
#393=EDGE_CURVE('',#316,#317,#56,.T.);
#394=EDGE_CURVE('',#318,#315,#272,.T.);
#395=EDGE_CURVE('',#319,#318,#153,.T.);
#396=EDGE_CURVE('',#312,#319,#273,.T.);
#397=EDGE_CURVE('',#320,#320,#274,.T.);
#398=EDGE_CURVE('',#321,#321,#275,.T.);
#399=EDGE_CURVE('',#321,#322,#154,.T.);
#400=EDGE_CURVE('',#323,#322,#276,.T.);
#401=EDGE_CURVE('',#324,#323,#155,.T.);
#402=EDGE_CURVE('',#325,#324,#277,.T.);
#403=EDGE_CURVE('',#325,#326,#156,.T.);
#404=EDGE_CURVE('',#327,#326,#57,.T.);
#405=EDGE_CURVE('',#326,#327,#58,.T.);
#406=EDGE_CURVE('',#328,#325,#278,.T.);
#407=EDGE_CURVE('',#329,#328,#157,.T.);
#408=EDGE_CURVE('',#322,#329,#279,.T.);
#409=EDGE_CURVE('',#330,#330,#280,.T.);
#410=EDGE_CURVE('',#331,#331,#281,.T.);
#411=EDGE_CURVE('',#331,#332,#158,.T.);
#412=EDGE_CURVE('',#333,#332,#282,.T.);
#413=EDGE_CURVE('',#334,#333,#159,.T.);
#414=EDGE_CURVE('',#335,#334,#283,.T.);
#415=EDGE_CURVE('',#335,#336,#160,.T.);
#416=EDGE_CURVE('',#337,#336,#59,.T.);
#417=EDGE_CURVE('',#336,#337,#60,.T.);
#418=EDGE_CURVE('',#338,#335,#284,.T.);
#419=EDGE_CURVE('',#339,#338,#161,.T.);
#420=EDGE_CURVE('',#332,#339,#285,.T.);
#421=EDGE_CURVE('',#340,#340,#286,.T.);
#422=EDGE_CURVE('',#303,#341,#162,.T.);
#423=EDGE_CURVE('',#342,#341,#163,.T.);
#424=EDGE_CURVE('',#304,#342,#164,.T.);
#425=EDGE_CURVE('',#318,#343,#165,.T.);
#426=EDGE_CURVE('',#344,#343,#166,.T.);
#427=EDGE_CURVE('',#319,#344,#167,.T.);
#428=EDGE_CURVE('',#345,#328,#168,.T.);
#429=EDGE_CURVE('',#345,#346,#169,.T.);
#430=EDGE_CURVE('',#346,#329,#170,.T.);
#431=EDGE_CURVE('',#347,#333,#171,.T.);
#432=EDGE_CURVE('',#347,#348,#172,.T.);
#433=EDGE_CURVE('',#348,#334,#173,.T.);
#434=EDGE_CURVE('',#323,#309,#174,.T.);
#435=EDGE_CURVE('',#346,#347,#175,.T.);
#436=EDGE_CURVE('',#339,#313,#176,.T.);
#437=EDGE_CURVE('',#341,#344,#177,.T.);
#438=EDGE_CURVE('',#349,#349,#287,.T.);
#439=EDGE_CURVE('',#349,#330,#178,.T.);
#440=EDGE_CURVE('',#350,#350,#288,.T.);
#441=EDGE_CURVE('',#350,#340,#179,.T.);
#442=EDGE_CURVE('',#351,#351,#289,.T.);
#443=EDGE_CURVE('',#351,#310,#180,.T.);
#444=EDGE_CURVE('',#352,#352,#290,.T.);
#445=EDGE_CURVE('',#352,#320,#181,.T.);
#446=EDGE_CURVE('',#324,#308,#182,.T.);
#447=EDGE_CURVE('',#338,#314,#183,.T.);
#448=EDGE_CURVE('',#343,#342,#184,.T.);
#449=EDGE_CURVE('',#348,#345,#185,.T.);
#450=EDGE_CURVE('',#353,#354,#186,.T.);
#451=EDGE_CURVE('',#353,#355,#187,.T.);
#452=EDGE_CURVE('',#356,#355,#188,.T.);
#453=EDGE_CURVE('',#354,#356,#189,.T.);
#454=EDGE_CURVE('',#357,#354,#291,.T.);
#455=EDGE_CURVE('',#358,#356,#292,.T.);
#456=EDGE_CURVE('',#357,#358,#190,.T.);
#457=EDGE_CURVE('',#357,#359,#191,.T.);
#458=EDGE_CURVE('',#360,#358,#192,.T.);
#459=EDGE_CURVE('',#359,#360,#193,.T.);
#460=EDGE_CURVE('',#359,#361,#194,.T.);
#461=EDGE_CURVE('',#362,#360,#195,.T.);
#462=EDGE_CURVE('',#361,#362,#196,.T.);
#463=EDGE_CURVE('',#361,#363,#197,.T.);
#464=EDGE_CURVE('',#364,#362,#198,.T.);
#465=EDGE_CURVE('',#363,#364,#199,.T.);
#466=EDGE_CURVE('',#353,#363,#293,.T.);
#467=EDGE_CURVE('',#355,#364,#294,.T.);
#468=ORIENTED_EDGE('',*,*,#365,.F.);
#469=ORIENTED_EDGE('',*,*,#366,.T.);
#470=ORIENTED_EDGE('',*,*,#367,.F.);
#471=ORIENTED_EDGE('',*,*,#366,.F.);
#472=ORIENTED_EDGE('',*,*,#368,.F.);
#473=ORIENTED_EDGE('',*,*,#369,.T.);
#474=ORIENTED_EDGE('',*,*,#370,.F.);
#475=ORIENTED_EDGE('',*,*,#369,.F.);
#476=ORIENTED_EDGE('',*,*,#371,.F.);
#477=ORIENTED_EDGE('',*,*,#372,.T.);
#478=ORIENTED_EDGE('',*,*,#373,.F.);
#479=ORIENTED_EDGE('',*,*,#372,.F.);
#480=ORIENTED_EDGE('',*,*,#374,.T.);
#481=ORIENTED_EDGE('',*,*,#375,.T.);
#482=ORIENTED_EDGE('',*,*,#376,.F.);
#483=ORIENTED_EDGE('',*,*,#377,.F.);
#484=ORIENTED_EDGE('',*,*,#378,.F.);
#485=ORIENTED_EDGE('',*,*,#379,.T.);
#486=ORIENTED_EDGE('',*,*,#380,.F.);
#487=ORIENTED_EDGE('',*,*,#381,.F.);
#488=ORIENTED_EDGE('',*,*,#379,.F.);
#489=ORIENTED_EDGE('',*,*,#382,.F.);
#490=ORIENTED_EDGE('',*,*,#383,.F.);
#491=ORIENTED_EDGE('',*,*,#384,.F.);
#492=ORIENTED_EDGE('',*,*,#375,.F.);
#493=ORIENTED_EDGE('',*,*,#374,.F.);
#494=ORIENTED_EDGE('',*,*,#385,.F.);
#495=ORIENTED_EDGE('',*,*,#386,.T.);
#496=ORIENTED_EDGE('',*,*,#387,.T.);
#497=ORIENTED_EDGE('',*,*,#388,.F.);
#498=ORIENTED_EDGE('',*,*,#389,.F.);
#499=ORIENTED_EDGE('',*,*,#390,.F.);
#500=ORIENTED_EDGE('',*,*,#391,.T.);
#501=ORIENTED_EDGE('',*,*,#392,.F.);
#502=ORIENTED_EDGE('',*,*,#393,.F.);
#503=ORIENTED_EDGE('',*,*,#391,.F.);
#504=ORIENTED_EDGE('',*,*,#394,.F.);
#505=ORIENTED_EDGE('',*,*,#395,.F.);
#506=ORIENTED_EDGE('',*,*,#396,.F.);
#507=ORIENTED_EDGE('',*,*,#387,.F.);
#508=ORIENTED_EDGE('',*,*,#386,.F.);
#509=ORIENTED_EDGE('',*,*,#397,.F.);
#510=ORIENTED_EDGE('',*,*,#398,.T.);
#511=ORIENTED_EDGE('',*,*,#399,.T.);
#512=ORIENTED_EDGE('',*,*,#400,.F.);
#513=ORIENTED_EDGE('',*,*,#401,.F.);
#514=ORIENTED_EDGE('',*,*,#402,.F.);
#515=ORIENTED_EDGE('',*,*,#403,.T.);
#516=ORIENTED_EDGE('',*,*,#404,.F.);
#517=ORIENTED_EDGE('',*,*,#405,.F.);
#518=ORIENTED_EDGE('',*,*,#403,.F.);
#519=ORIENTED_EDGE('',*,*,#406,.F.);
#520=ORIENTED_EDGE('',*,*,#407,.F.);
#521=ORIENTED_EDGE('',*,*,#408,.F.);
#522=ORIENTED_EDGE('',*,*,#399,.F.);
#523=ORIENTED_EDGE('',*,*,#398,.F.);
#524=ORIENTED_EDGE('',*,*,#409,.F.);
#525=ORIENTED_EDGE('',*,*,#410,.T.);
#526=ORIENTED_EDGE('',*,*,#411,.T.);
#527=ORIENTED_EDGE('',*,*,#412,.F.);
#528=ORIENTED_EDGE('',*,*,#413,.F.);
#529=ORIENTED_EDGE('',*,*,#414,.F.);
#530=ORIENTED_EDGE('',*,*,#415,.T.);
#531=ORIENTED_EDGE('',*,*,#416,.F.);
#532=ORIENTED_EDGE('',*,*,#417,.F.);
#533=ORIENTED_EDGE('',*,*,#415,.F.);
#534=ORIENTED_EDGE('',*,*,#418,.F.);
#535=ORIENTED_EDGE('',*,*,#419,.F.);
#536=ORIENTED_EDGE('',*,*,#420,.F.);
#537=ORIENTED_EDGE('',*,*,#411,.F.);
#538=ORIENTED_EDGE('',*,*,#410,.F.);
#539=ORIENTED_EDGE('',*,*,#421,.F.);
#540=ORIENTED_EDGE('',*,*,#377,.T.);
#541=ORIENTED_EDGE('',*,*,#422,.T.);
#542=ORIENTED_EDGE('',*,*,#423,.F.);
#543=ORIENTED_EDGE('',*,*,#424,.F.);
#544=ORIENTED_EDGE('',*,*,#395,.T.);
#545=ORIENTED_EDGE('',*,*,#425,.T.);
#546=ORIENTED_EDGE('',*,*,#426,.F.);
#547=ORIENTED_EDGE('',*,*,#427,.F.);
#548=ORIENTED_EDGE('',*,*,#407,.T.);
#549=ORIENTED_EDGE('',*,*,#428,.F.);
#550=ORIENTED_EDGE('',*,*,#429,.T.);
#551=ORIENTED_EDGE('',*,*,#430,.T.);
#552=ORIENTED_EDGE('',*,*,#413,.T.);
#553=ORIENTED_EDGE('',*,*,#431,.F.);
#554=ORIENTED_EDGE('',*,*,#432,.T.);
#555=ORIENTED_EDGE('',*,*,#433,.T.);
#556=ORIENTED_EDGE('',*,*,#376,.T.);
#557=ORIENTED_EDGE('',*,*,#384,.T.);
#558=ORIENTED_EDGE('',*,*,#434,.F.);
#559=ORIENTED_EDGE('',*,*,#400,.T.);
#560=ORIENTED_EDGE('',*,*,#408,.T.);
#561=ORIENTED_EDGE('',*,*,#430,.F.);
#562=ORIENTED_EDGE('',*,*,#435,.T.);
#563=ORIENTED_EDGE('',*,*,#431,.T.);
#564=ORIENTED_EDGE('',*,*,#412,.T.);
#565=ORIENTED_EDGE('',*,*,#420,.T.);
#566=ORIENTED_EDGE('',*,*,#436,.T.);
#567=ORIENTED_EDGE('',*,*,#388,.T.);
#568=ORIENTED_EDGE('',*,*,#396,.T.);
#569=ORIENTED_EDGE('',*,*,#427,.T.);
#570=ORIENTED_EDGE('',*,*,#437,.F.);
#571=ORIENTED_EDGE('',*,*,#422,.F.);
#572=ORIENTED_EDGE('',*,*,#438,.F.);
#573=ORIENTED_EDGE('',*,*,#439,.T.);
#574=ORIENTED_EDGE('',*,*,#409,.T.);
#575=ORIENTED_EDGE('',*,*,#439,.F.);
#576=ORIENTED_EDGE('',*,*,#440,.F.);
#577=ORIENTED_EDGE('',*,*,#441,.T.);
#578=ORIENTED_EDGE('',*,*,#421,.T.);
#579=ORIENTED_EDGE('',*,*,#441,.F.);
#580=ORIENTED_EDGE('',*,*,#442,.F.);
#581=ORIENTED_EDGE('',*,*,#443,.T.);
#582=ORIENTED_EDGE('',*,*,#385,.T.);
#583=ORIENTED_EDGE('',*,*,#443,.F.);
#584=ORIENTED_EDGE('',*,*,#444,.F.);
#585=ORIENTED_EDGE('',*,*,#445,.T.);
#586=ORIENTED_EDGE('',*,*,#397,.T.);
#587=ORIENTED_EDGE('',*,*,#445,.F.);
#588=ORIENTED_EDGE('',*,*,#383,.T.);
#589=ORIENTED_EDGE('',*,*,#446,.F.);
#590=ORIENTED_EDGE('',*,*,#401,.T.);
#591=ORIENTED_EDGE('',*,*,#434,.T.);
#592=ORIENTED_EDGE('',*,*,#373,.T.);
#593=ORIENTED_EDGE('',*,*,#389,.T.);
#594=ORIENTED_EDGE('',*,*,#436,.F.);
#595=ORIENTED_EDGE('',*,*,#419,.T.);
#596=ORIENTED_EDGE('',*,*,#447,.T.);
#597=ORIENTED_EDGE('',*,*,#368,.T.);
#598=ORIENTED_EDGE('',*,*,#382,.T.);
#599=ORIENTED_EDGE('',*,*,#378,.T.);
#600=ORIENTED_EDGE('',*,*,#424,.T.);
#601=ORIENTED_EDGE('',*,*,#448,.F.);
#602=ORIENTED_EDGE('',*,*,#425,.F.);
#603=ORIENTED_EDGE('',*,*,#394,.T.);
#604=ORIENTED_EDGE('',*,*,#390,.T.);
#605=ORIENTED_EDGE('',*,*,#447,.F.);
#606=ORIENTED_EDGE('',*,*,#418,.T.);
#607=ORIENTED_EDGE('',*,*,#414,.T.);
#608=ORIENTED_EDGE('',*,*,#433,.F.);
#609=ORIENTED_EDGE('',*,*,#449,.T.);
#610=ORIENTED_EDGE('',*,*,#428,.T.);
#611=ORIENTED_EDGE('',*,*,#406,.T.);
#612=ORIENTED_EDGE('',*,*,#402,.T.);
#613=ORIENTED_EDGE('',*,*,#446,.T.);
#614=ORIENTED_EDGE('',*,*,#367,.T.);
#615=ORIENTED_EDGE('',*,*,#450,.F.);
#616=ORIENTED_EDGE('',*,*,#451,.T.);
#617=ORIENTED_EDGE('',*,*,#452,.F.);
#618=ORIENTED_EDGE('',*,*,#453,.F.);
#619=ORIENTED_EDGE('',*,*,#365,.T.);
#620=ORIENTED_EDGE('',*,*,#454,.T.);
#621=ORIENTED_EDGE('',*,*,#453,.T.);
#622=ORIENTED_EDGE('',*,*,#455,.F.);
#623=ORIENTED_EDGE('',*,*,#456,.F.);
#624=ORIENTED_EDGE('',*,*,#380,.T.);
#625=ORIENTED_EDGE('',*,*,#381,.T.);
#626=ORIENTED_EDGE('',*,*,#404,.T.);
#627=ORIENTED_EDGE('',*,*,#405,.T.);
#628=ORIENTED_EDGE('',*,*,#457,.F.);
#629=ORIENTED_EDGE('',*,*,#456,.T.);
#630=ORIENTED_EDGE('',*,*,#458,.F.);
#631=ORIENTED_EDGE('',*,*,#459,.F.);
#632=ORIENTED_EDGE('',*,*,#371,.T.);
#633=ORIENTED_EDGE('',*,*,#460,.F.);
#634=ORIENTED_EDGE('',*,*,#459,.T.);
#635=ORIENTED_EDGE('',*,*,#461,.F.);
#636=ORIENTED_EDGE('',*,*,#462,.F.);
#637=ORIENTED_EDGE('',*,*,#438,.T.);
#638=ORIENTED_EDGE('',*,*,#440,.T.);
#639=ORIENTED_EDGE('',*,*,#442,.T.);
#640=ORIENTED_EDGE('',*,*,#444,.T.);
#641=ORIENTED_EDGE('',*,*,#463,.F.);
#642=ORIENTED_EDGE('',*,*,#462,.T.);
#643=ORIENTED_EDGE('',*,*,#464,.F.);
#644=ORIENTED_EDGE('',*,*,#465,.F.);
#645=ORIENTED_EDGE('',*,*,#370,.T.);
#646=ORIENTED_EDGE('',*,*,#466,.T.);
#647=ORIENTED_EDGE('',*,*,#465,.T.);
#648=ORIENTED_EDGE('',*,*,#467,.F.);
#649=ORIENTED_EDGE('',*,*,#451,.F.);
#650=ORIENTED_EDGE('',*,*,#392,.T.);
#651=ORIENTED_EDGE('',*,*,#393,.T.);
#652=ORIENTED_EDGE('',*,*,#416,.T.);
#653=ORIENTED_EDGE('',*,*,#417,.T.);
#654=ORIENTED_EDGE('',*,*,#467,.T.);
#655=ORIENTED_EDGE('',*,*,#464,.T.);
#656=ORIENTED_EDGE('',*,*,#461,.T.);
#657=ORIENTED_EDGE('',*,*,#458,.T.);
#658=ORIENTED_EDGE('',*,*,#455,.T.);
#659=ORIENTED_EDGE('',*,*,#452,.T.);
#660=ORIENTED_EDGE('',*,*,#426,.T.);
#661=ORIENTED_EDGE('',*,*,#448,.T.);
#662=ORIENTED_EDGE('',*,*,#423,.T.);
#663=ORIENTED_EDGE('',*,*,#437,.T.);
#664=ORIENTED_EDGE('',*,*,#466,.F.);
#665=ORIENTED_EDGE('',*,*,#450,.T.);
#666=ORIENTED_EDGE('',*,*,#454,.F.);
#667=ORIENTED_EDGE('',*,*,#457,.T.);
#668=ORIENTED_EDGE('',*,*,#460,.T.);
#669=ORIENTED_EDGE('',*,*,#463,.T.);
#670=ORIENTED_EDGE('',*,*,#432,.F.);
#671=ORIENTED_EDGE('',*,*,#435,.F.);
#672=ORIENTED_EDGE('',*,*,#429,.F.);
#673=ORIENTED_EDGE('',*,*,#449,.F.);
#674=CYLINDRICAL_SURFACE('',#720,1.975);
#675=CYLINDRICAL_SURFACE('',#723,1.975);
#676=CYLINDRICAL_SURFACE('',#726,1.975);
#677=CYLINDRICAL_SURFACE('',#729,6.);
#678=CYLINDRICAL_SURFACE('',#737,6.);
#679=CYLINDRICAL_SURFACE('',#745,6.);
#680=CYLINDRICAL_SURFACE('',#753,6.);
#681=CYLINDRICAL_SURFACE('',#766,3.15);
#682=CYLINDRICAL_SURFACE('',#768,3.15);
#683=CYLINDRICAL_SURFACE('',#770,3.15);
#684=CYLINDRICAL_SURFACE('',#772,3.15);
#685=CYLINDRICAL_SURFACE('',#778,35.);
#686=CYLINDRICAL_SURFACE('',#784,35.);
#687=ADVANCED_FACE('',(#61),#674,.F.);
#688=ADVANCED_FACE('',(#62),#675,.F.);
#689=ADVANCED_FACE('',(#63),#676,.F.);
#690=ADVANCED_FACE('',(#64),#677,.F.);
#691=ADVANCED_FACE('',(#65,#15),#35,.F.);
#692=ADVANCED_FACE('',(#66),#678,.F.);
#693=ADVANCED_FACE('',(#67,#16),#36,.F.);
#694=ADVANCED_FACE('',(#68),#679,.F.);
#695=ADVANCED_FACE('',(#69,#17),#37,.F.);
#696=ADVANCED_FACE('',(#70),#680,.F.);
#697=ADVANCED_FACE('',(#71,#18),#38,.F.);
#698=ADVANCED_FACE('',(#72),#39,.T.);
#699=ADVANCED_FACE('',(#73),#40,.T.);
#700=ADVANCED_FACE('',(#74),#41,.T.);
#701=ADVANCED_FACE('',(#75),#42,.T.);
#702=ADVANCED_FACE('',(#76),#43,.T.);
#703=ADVANCED_FACE('',(#77),#681,.F.);
#704=ADVANCED_FACE('',(#78),#682,.F.);
#705=ADVANCED_FACE('',(#79),#683,.F.);
#706=ADVANCED_FACE('',(#80),#684,.F.);
#707=ADVANCED_FACE('',(#81,#19),#44,.T.);
#708=ADVANCED_FACE('',(#82,#20),#45,.T.);
#709=ADVANCED_FACE('',(#83,#21),#46,.T.);
#710=ADVANCED_FACE('',(#84,#22),#47,.T.);
#711=ADVANCED_FACE('',(#85,#23,#24),#685,.T.);
#712=ADVANCED_FACE('',(#86,#25),#48,.T.);
#713=ADVANCED_FACE('',(#87,#26,#27,#28,#29),#49,.T.);
#714=ADVANCED_FACE('',(#88,#30),#50,.T.);
#715=ADVANCED_FACE('',(#89,#31,#32),#686,.T.);
#716=ADVANCED_FACE('',(#90,#33),#51,.T.);
#717=ADVANCED_FACE('',(#91,#34),#52,.F.);
#718=CLOSED_SHELL('',(#687,#688,#689,#690,#691,#692,#693,#694,#695,#696,
#697,#698,#699,#700,#701,#702,#703,#704,#705,#706,#707,#708,#709,#710,#711,
#712,#713,#714,#715,#716,#717));
#719=AXIS2_PLACEMENT_3D('',#986,#789,#790);
#720=AXIS2_PLACEMENT_3D('',#987,#791,#792);
#721=AXIS2_PLACEMENT_3D('',#989,#793,#794);
#722=AXIS2_PLACEMENT_3D('',#992,#796,#797);
#723=AXIS2_PLACEMENT_3D('',#993,#798,#799);
#724=AXIS2_PLACEMENT_3D('',#995,#800,#801);
#725=AXIS2_PLACEMENT_3D('',#998,#803,#804);
#726=AXIS2_PLACEMENT_3D('',#999,#805,#806);
#727=AXIS2_PLACEMENT_3D('',#1001,#807,#808);
#728=AXIS2_PLACEMENT_3D('',#1004,#810,#811);
#729=AXIS2_PLACEMENT_3D('',#1005,#812,#813);
#730=AXIS2_PLACEMENT_3D('',#1007,#814,#815);
#731=AXIS2_PLACEMENT_3D('',#1011,#817,#818);
#732=AXIS2_PLACEMENT_3D('',#1015,#820,#821);
#733=AXIS2_PLACEMENT_3D('',#1060,#823,#824);
#734=AXIS2_PLACEMENT_3D('',#1063,#826,#827);
#735=AXIS2_PLACEMENT_3D('',#1064,#828,#829);
#736=AXIS2_PLACEMENT_3D('',#1066,#830,#831);
#737=AXIS2_PLACEMENT_3D('',#1067,#832,#833);
#738=AXIS2_PLACEMENT_3D('',#1069,#834,#835);
#739=AXIS2_PLACEMENT_3D('',#1073,#837,#838);
#740=AXIS2_PLACEMENT_3D('',#1077,#840,#841);
#741=AXIS2_PLACEMENT_3D('',#1122,#843,#844);
#742=AXIS2_PLACEMENT_3D('',#1125,#846,#847);
#743=AXIS2_PLACEMENT_3D('',#1126,#848,#849);
#744=AXIS2_PLACEMENT_3D('',#1128,#850,#851);
#745=AXIS2_PLACEMENT_3D('',#1129,#852,#853);
#746=AXIS2_PLACEMENT_3D('',#1131,#854,#855);
#747=AXIS2_PLACEMENT_3D('',#1135,#857,#858);
#748=AXIS2_PLACEMENT_3D('',#1139,#860,#861);
#749=AXIS2_PLACEMENT_3D('',#1184,#863,#864);
#750=AXIS2_PLACEMENT_3D('',#1187,#866,#867);
#751=AXIS2_PLACEMENT_3D('',#1188,#868,#869);
#752=AXIS2_PLACEMENT_3D('',#1190,#870,#871);
#753=AXIS2_PLACEMENT_3D('',#1191,#872,#873);
#754=AXIS2_PLACEMENT_3D('',#1193,#874,#875);
#755=AXIS2_PLACEMENT_3D('',#1197,#877,#878);
#756=AXIS2_PLACEMENT_3D('',#1201,#880,#881);
#757=AXIS2_PLACEMENT_3D('',#1246,#883,#884);
#758=AXIS2_PLACEMENT_3D('',#1249,#886,#887);
#759=AXIS2_PLACEMENT_3D('',#1250,#888,#889);
#760=AXIS2_PLACEMENT_3D('',#1252,#890,#891);
#761=AXIS2_PLACEMENT_3D('',#1253,#892,#893);
#762=AXIS2_PLACEMENT_3D('',#1259,#897,#898);
#763=AXIS2_PLACEMENT_3D('',#1265,#902,#903);
#764=AXIS2_PLACEMENT_3D('',#1271,#907,#908);
#765=AXIS2_PLACEMENT_3D('',#1277,#912,#913);
#766=AXIS2_PLACEMENT_3D('',#1282,#918,#919);
#767=AXIS2_PLACEMENT_3D('',#1284,#920,#921);
#768=AXIS2_PLACEMENT_3D('',#1286,#923,#924);
#769=AXIS2_PLACEMENT_3D('',#1288,#925,#926);
#770=AXIS2_PLACEMENT_3D('',#1290,#928,#929);
#771=AXIS2_PLACEMENT_3D('',#1292,#930,#931);
#772=AXIS2_PLACEMENT_3D('',#1294,#933,#934);
#773=AXIS2_PLACEMENT_3D('',#1296,#935,#936);
#774=AXIS2_PLACEMENT_3D('',#1298,#938,#939);
#775=AXIS2_PLACEMENT_3D('',#1300,#941,#942);
#776=AXIS2_PLACEMENT_3D('',#1302,#944,#945);
#777=AXIS2_PLACEMENT_3D('',#1305,#948,#949);
#778=AXIS2_PLACEMENT_3D('',#1314,#954,#955);
#779=AXIS2_PLACEMENT_3D('',#1316,#956,#957);
#780=AXIS2_PLACEMENT_3D('',#1318,#958,#959);
#781=AXIS2_PLACEMENT_3D('',#1320,#961,#962);
#782=AXIS2_PLACEMENT_3D('',#1326,#966,#967);
#783=AXIS2_PLACEMENT_3D('',#1332,#971,#972);
#784=AXIS2_PLACEMENT_3D('',#1338,#976,#977);
#785=AXIS2_PLACEMENT_3D('',#1339,#978,#979);
#786=AXIS2_PLACEMENT_3D('',#1340,#980,#981);
#787=AXIS2_PLACEMENT_3D('',#1341,#982,#983);
#788=AXIS2_PLACEMENT_3D('',#1342,#984,#985);
#789=DIRECTION('axis',(0.,0.,1.));
#790=DIRECTION('refdir',(1.,0.,0.));
#791=DIRECTION('center_axis',(0.,1.,0.));
#792=DIRECTION('ref_axis',(1.,0.,0.));
#793=DIRECTION('center_axis',(0.,1.,0.));
#794=DIRECTION('ref_axis',(1.,0.,0.));
#795=DIRECTION('',(0.,1.,0.));
#796=DIRECTION('center_axis',(0.,-1.,0.));
#797=DIRECTION('ref_axis',(1.,0.,0.));
#798=DIRECTION('center_axis',(0.,0.,-1.));
#799=DIRECTION('ref_axis',(-1.,0.,0.));
#800=DIRECTION('center_axis',(0.,-5.2245789394125E-17,-1.));
#801=DIRECTION('ref_axis',(-1.,0.,0.));
#802=DIRECTION('',(0.,0.,-1.));
#803=DIRECTION('center_axis',(0.,4.81397517452642E-17,1.));
#804=DIRECTION('ref_axis',(-1.,0.,0.));
#805=DIRECTION('center_axis',(0.,0.,-1.));
#806=DIRECTION('ref_axis',(-1.,0.,0.));
#807=DIRECTION('center_axis',(0.,9.62795034905285E-17,-1.));
#808=DIRECTION('ref_axis',(-1.,0.,0.));
#809=DIRECTION('',(0.,0.,-1.));
#810=DIRECTION('center_axis',(0.,0.,1.));
#811=DIRECTION('ref_axis',(-1.,0.,0.));
#812=DIRECTION('center_axis',(0.,-1.,0.));
#813=DIRECTION('ref_axis',(1.,0.,0.));
#814=DIRECTION('center_axis',(0.,1.,0.));
#815=DIRECTION('ref_axis',(1.,0.,0.));
#816=DIRECTION('',(0.,-1.,0.));
#817=DIRECTION('center_axis',(0.,1.,-1.0449157878825E-16));
#818=DIRECTION('ref_axis',(1.,0.,0.));
#819=DIRECTION('',(0.,1.,0.));
#820=DIRECTION('center_axis',(0.,-1.,0.));
#821=DIRECTION('ref_axis',(1.,0.,0.));
#822=DIRECTION('',(0.,-1.,0.));
#823=DIRECTION('center_axis',(0.,-1.,0.));
#824=DIRECTION('ref_axis',(1.,0.,0.));
#825=DIRECTION('',(0.,-1.,0.));
#826=DIRECTION('center_axis',(0.,1.,-1.0449157878825E-16));
#827=DIRECTION('ref_axis',(1.,0.,0.));
#828=DIRECTION('center_axis',(0.,1.,0.));
#829=DIRECTION('ref_axis',(1.,0.,0.));
#830=DIRECTION('center_axis',(0.,-1.,0.));
#831=DIRECTION('ref_axis',(-1.,0.,0.));
#832=DIRECTION('center_axis',(0.,-1.,0.));
#833=DIRECTION('ref_axis',(1.,0.,0.));
#834=DIRECTION('center_axis',(0.,1.,0.));
#835=DIRECTION('ref_axis',(1.,0.,0.));
#836=DIRECTION('',(0.,-1.,0.));
#837=DIRECTION('center_axis',(0.,1.,-1.0449157878825E-16));
#838=DIRECTION('ref_axis',(1.,0.,0.));
#839=DIRECTION('',(0.,1.,0.));
#840=DIRECTION('center_axis',(0.,-1.,0.));
#841=DIRECTION('ref_axis',(1.,0.,0.));
#842=DIRECTION('',(0.,-1.,0.));
#843=DIRECTION('center_axis',(0.,-1.,0.));
#844=DIRECTION('ref_axis',(1.,0.,0.));
#845=DIRECTION('',(0.,-1.,0.));
#846=DIRECTION('center_axis',(0.,1.,-1.0449157878825E-16));
#847=DIRECTION('ref_axis',(1.,0.,0.));
#848=DIRECTION('center_axis',(0.,1.,0.));
#849=DIRECTION('ref_axis',(1.,0.,0.));
#850=DIRECTION('center_axis',(0.,-1.,0.));
#851=DIRECTION('ref_axis',(-1.,0.,0.));
#852=DIRECTION('center_axis',(0.,-1.,0.));
#853=DIRECTION('ref_axis',(1.,0.,0.));
#854=DIRECTION('center_axis',(0.,1.,0.));
#855=DIRECTION('ref_axis',(1.,0.,0.));
#856=DIRECTION('',(0.,-1.,0.));
#857=DIRECTION('center_axis',(0.,1.,-1.0449157878825E-16));
#858=DIRECTION('ref_axis',(1.,0.,0.));
#859=DIRECTION('',(0.,1.,0.));
#860=DIRECTION('center_axis',(0.,-1.,0.));
#861=DIRECTION('ref_axis',(1.,0.,0.));
#862=DIRECTION('',(0.,-1.,0.));
#863=DIRECTION('center_axis',(0.,-1.,0.));
#864=DIRECTION('ref_axis',(1.,0.,0.));
#865=DIRECTION('',(0.,-1.,0.));
#866=DIRECTION('center_axis',(0.,1.,-1.0449157878825E-16));
#867=DIRECTION('ref_axis',(1.,0.,0.));
#868=DIRECTION('center_axis',(0.,1.,0.));
#869=DIRECTION('ref_axis',(1.,0.,0.));
#870=DIRECTION('center_axis',(0.,-1.,0.));
#871=DIRECTION('ref_axis',(-1.,0.,0.));
#872=DIRECTION('center_axis',(0.,-1.,0.));
#873=DIRECTION('ref_axis',(1.,0.,0.));
#874=DIRECTION('center_axis',(0.,1.,0.));
#875=DIRECTION('ref_axis',(1.,0.,0.));
#876=DIRECTION('',(0.,-1.,0.));
#877=DIRECTION('center_axis',(0.,1.,-1.0449157878825E-16));
#878=DIRECTION('ref_axis',(1.,0.,0.));
#879=DIRECTION('',(0.,1.,0.));
#880=DIRECTION('center_axis',(0.,-1.,0.));
#881=DIRECTION('ref_axis',(1.,0.,0.));
#882=DIRECTION('',(0.,-1.,0.));
#883=DIRECTION('center_axis',(0.,-1.,0.));
#884=DIRECTION('ref_axis',(1.,0.,0.));
#885=DIRECTION('',(0.,-1.,0.));
#886=DIRECTION('center_axis',(0.,1.,-1.0449157878825E-16));
#887=DIRECTION('ref_axis',(1.,0.,0.));
#888=DIRECTION('center_axis',(0.,1.,0.));
#889=DIRECTION('ref_axis',(1.,0.,0.));
#890=DIRECTION('center_axis',(0.,-1.,0.));
#891=DIRECTION('ref_axis',(-1.,0.,0.));
#892=DIRECTION('center_axis',(0.,0.,-1.));
#893=DIRECTION('ref_axis',(0.,1.,0.));
#894=DIRECTION('',(1.,0.,0.));
#895=DIRECTION('',(0.,1.,0.));
#896=DIRECTION('',(1.,0.,0.));
#897=DIRECTION('center_axis',(0.,5.2245789394125E-17,1.));
#898=DIRECTION('ref_axis',(0.,-1.,5.2245789394125E-17));
#899=DIRECTION('',(1.,0.,0.));
#900=DIRECTION('',(0.,-1.,5.2245789394125E-17));
#901=DIRECTION('',(1.,0.,0.));
#902=DIRECTION('center_axis',(0.,0.,-1.));
#903=DIRECTION('ref_axis',(0.,1.,0.));
#904=DIRECTION('',(1.,0.,0.));
#905=DIRECTION('',(0.,1.,0.));
#906=DIRECTION('',(1.,0.,0.));
#907=DIRECTION('center_axis',(0.,5.2245789394125E-17,1.));
#908=DIRECTION('ref_axis',(0.,-1.,5.2245789394125E-17));
#909=DIRECTION('',(1.,0.,0.));
#910=DIRECTION('',(0.,-1.,5.2245789394125E-17));
#911=DIRECTION('',(1.,0.,0.));
#912=DIRECTION('center_axis',(0.,-1.,1.0449157878825E-16));
#913=DIRECTION('ref_axis',(0.,-1.0449157878825E-16,-1.));
#914=DIRECTION('',(1.,0.,0.));
#915=DIRECTION('',(0.,-1.0449157878825E-16,-1.));
#916=DIRECTION('',(1.,0.,0.));
#917=DIRECTION('',(0.,-1.0449157878825E-16,-1.));
#918=DIRECTION('center_axis',(0.,-1.,0.));
#919=DIRECTION('ref_axis',(-1.,0.,0.));
#920=DIRECTION('center_axis',(0.,-1.,0.));
#921=DIRECTION('ref_axis',(-1.,0.,0.));
#922=DIRECTION('',(0.,-1.,0.));
#923=DIRECTION('center_axis',(0.,-1.,0.));
#924=DIRECTION('ref_axis',(-1.,0.,0.));
#925=DIRECTION('center_axis',(0.,-1.,0.));
#926=DIRECTION('ref_axis',(-1.,0.,0.));
#927=DIRECTION('',(0.,-1.,0.));
#928=DIRECTION('center_axis',(0.,-1.,0.));
#929=DIRECTION('ref_axis',(-1.,0.,0.));
#930=DIRECTION('center_axis',(0.,-1.,0.));
#931=DIRECTION('ref_axis',(-1.,0.,0.));
#932=DIRECTION('',(0.,-1.,0.));
#933=DIRECTION('center_axis',(0.,-1.,0.));
#934=DIRECTION('ref_axis',(-1.,0.,0.));
#935=DIRECTION('center_axis',(0.,-1.,0.));
#936=DIRECTION('ref_axis',(-1.,0.,0.));
#937=DIRECTION('',(0.,-1.,0.));
#938=DIRECTION('center_axis',(0.,0.,-1.));
#939=DIRECTION('ref_axis',(0.,1.,0.));
#940=DIRECTION('',(1.,0.,0.));
#941=DIRECTION('center_axis',(0.,5.2245789394125E-17,1.));
#942=DIRECTION('ref_axis',(0.,-1.,5.2245789394125E-17));
#943=DIRECTION('',(1.,0.,0.));
#944=DIRECTION('center_axis',(0.,1.,0.));
#945=DIRECTION('ref_axis',(0.,0.,1.));
#946=DIRECTION('',(0.,0.,1.));
#947=DIRECTION('',(0.,0.,1.));
#948=DIRECTION('center_axis',(0.,-1.,0.));
#949=DIRECTION('ref_axis',(0.,0.,-1.));
#950=DIRECTION('',(0.,0.,1.));
#951=DIRECTION('',(1.,0.,0.));
#952=DIRECTION('',(0.,0.,-1.));
#953=DIRECTION('',(1.,0.,0.));
#954=DIRECTION('center_axis',(1.,0.,0.));
#955=DIRECTION('ref_axis',(0.,1.,0.));
#956=DIRECTION('center_axis',(1.,0.,0.));
#957=DIRECTION('ref_axis',(0.,1.,0.));
#958=DIRECTION('center_axis',(1.,0.,0.));
#959=DIRECTION('ref_axis',(0.,1.,0.));
#960=DIRECTION('',(1.,0.,0.));
#961=DIRECTION('center_axis',(0.,-9.62795034905285E-17,1.));
#962=DIRECTION('ref_axis',(0.,-1.,-9.62795034905284E-17));
#963=DIRECTION('',(0.,1.,9.62795034905284E-17));
#964=DIRECTION('',(0.,-1.,-9.62795034905284E-17));
#965=DIRECTION('',(1.,0.,0.));
#966=DIRECTION('center_axis',(0.,1.,0.));
#967=DIRECTION('ref_axis',(0.,0.,1.));
#968=DIRECTION('',(0.,0.,-1.));
#969=DIRECTION('',(0.,0.,1.));
#970=DIRECTION('',(1.,0.,0.));
#971=DIRECTION('center_axis',(0.,-4.81397517452642E-17,-1.));
#972=DIRECTION('ref_axis',(0.,1.,-4.81397517452642E-17));
#973=DIRECTION('',(0.,-1.,4.81397517452642E-17));
#974=DIRECTION('',(0.,1.,-4.81397517452642E-17));
#975=DIRECTION('',(1.,0.,0.));
#976=DIRECTION('center_axis',(1.,0.,0.));
#977=DIRECTION('ref_axis',(0.,1.,0.));
#978=DIRECTION('center_axis',(1.,0.,0.));
#979=DIRECTION('ref_axis',(0.,1.,0.));
#980=DIRECTION('center_axis',(1.,0.,0.));
#981=DIRECTION('ref_axis',(0.,1.,0.));
#982=DIRECTION('center_axis',(1.,0.,0.));
#983=DIRECTION('ref_axis',(0.,1.,0.));
#984=DIRECTION('center_axis',(1.,0.,0.));
#985=DIRECTION('ref_axis',(0.,1.,0.));
#986=CARTESIAN_POINT('',(0.,0.,0.));
#987=CARTESIAN_POINT('Origin',(22.5,-78.889179171182,7.96010037282846));
#988=CARTESIAN_POINT('',(20.525,-78.889179171182,7.96010037282846));
#989=CARTESIAN_POINT('Origin',(22.5,-78.889179171182,7.96010037282846));
#990=CARTESIAN_POINT('',(20.525,-67.889179171182,7.96010037282846));
#991=CARTESIAN_POINT('',(20.525,-78.889179171182,7.96010037282846));
#992=CARTESIAN_POINT('Origin',(22.5,-67.889179171182,7.96010037282846));
#993=CARTESIAN_POINT('Origin',(22.5,-46.639179171182,40.2101003728285));
#994=CARTESIAN_POINT('',(24.475,-46.639179171182,-13.2898996271715));
#995=CARTESIAN_POINT('Origin',(22.5,-46.639179171182,-13.2898996271715));
#996=CARTESIAN_POINT('',(24.475,-46.639179171182,-24.2898996271715));
#997=CARTESIAN_POINT('',(24.475,-46.639179171182,40.2101003728285));
#998=CARTESIAN_POINT('Origin',(22.5,-46.639179171182,-24.2898996271715));
#999=CARTESIAN_POINT('Origin',(22.5,-46.639179171182,40.2101003728285));
#1000=CARTESIAN_POINT('',(24.475,-46.639179171182,40.2101003728285));
#1001=CARTESIAN_POINT('Origin',(22.5,-46.639179171182,40.2101003728285));
#1002=CARTESIAN_POINT('',(24.475,-46.639179171182,29.2101003728285));
#1003=CARTESIAN_POINT('',(24.475,-46.639179171182,40.2101003728285));
#1004=CARTESIAN_POINT('Origin',(22.5,-46.639179171182,29.2101003728285));
#1005=CARTESIAN_POINT('Origin',(37.5,-1.639179171182,27.9601003728285));
#1006=CARTESIAN_POINT('',(31.5,-1.639179171182,27.9601003728285));
#1007=CARTESIAN_POINT('Origin',(37.5,-1.639179171182,27.9601003728285));
#1008=CARTESIAN_POINT('',(31.5,-25.389179171182,27.9601003728285));
#1009=CARTESIAN_POINT('',(31.5,-1.639179171182,27.9601003728285));
#1010=CARTESIAN_POINT('',(43.3683472971527,-25.389179171182,29.2101003728285));
#1011=CARTESIAN_POINT('Origin',(37.5,-25.389179171182,27.9601003728285));
#1012=CARTESIAN_POINT('',(43.3683472971527,-67.889179171182,29.2101003728285));
#1013=CARTESIAN_POINT('',(43.3683472971527,-1.63917917118201,29.2101003728285));
#1014=CARTESIAN_POINT('',(31.5,-67.889179171182,27.9601003728285));
#1015=CARTESIAN_POINT('Origin',(37.5,-67.889179171182,27.9601003728285));
#1016=CARTESIAN_POINT('',(31.5,-75.3619924038722,27.9601003728285));
#1017=CARTESIAN_POINT('',(31.5,-1.639179171182,27.9601003728285));
#1018=CARTESIAN_POINT('',(37.5,-78.7172090358729,21.9601003728285));
#1019=CARTESIAN_POINT('Ctrl Pts',(37.5,-78.7172090358729,21.9601003728285));
#1020=CARTESIAN_POINT('Ctrl Pts',(36.756163714599,-78.7172090358729,21.9601003728285));
#1021=CARTESIAN_POINT('Ctrl Pts',(35.9671347524438,-78.6540862685433,22.1074722043622));
#1022=CARTESIAN_POINT('Ctrl Pts',(34.5277595186333,-78.3900501798152,22.6904975433683));
#1023=CARTESIAN_POINT('Ctrl Pts',(33.8774931463198,-78.1875543798405,23.1256304530022));
#1024=CARTESIAN_POINT('Ctrl Pts',(32.7621506319592,-77.6578930673435,24.185168433315));
#1025=CARTESIAN_POINT('Ctrl Pts',(32.2696706168938,-77.27583096788,24.9064218928373));
#1026=CARTESIAN_POINT('Ctrl Pts',(31.6393901422328,-76.3808099336463,26.4321779584535));
#1027=CARTESIAN_POINT('Ctrl Pts',(31.5,-75.8666612052212,27.2353249865528));
#1028=CARTESIAN_POINT('Ctrl Pts',(31.5,-75.3619924038721,27.9601003728285));
#1029=CARTESIAN_POINT('Ctrl Pts',(31.5,-75.3619924038722,27.9601003728285));
#1030=CARTESIAN_POINT('Ctrl Pts',(31.5,-74.7934417410937,28.7766190978438));
#1031=CARTESIAN_POINT('Ctrl Pts',(31.6740083870387,-74.1457894098107,29.6257914973565));
#1032=CARTESIAN_POINT('Ctrl Pts',(32.3623275947695,-72.8534754167957,31.172735938489));
#1033=CARTESIAN_POINT('Ctrl Pts',(32.8747639464852,-72.2093771615508,31.8718118073683));
#1034=CARTESIAN_POINT('Ctrl Pts',(33.9716294975541,-71.2481480999626,32.8549850738837));
#1035=CARTESIAN_POINT('Ctrl Pts',(34.5785055733296,-70.8345852153199,33.2533082022055));
#1036=CARTESIAN_POINT('Ctrl Pts',(35.6141452270641,-70.3907503801633,33.6681511574977));
#1037=CARTESIAN_POINT('Ctrl Pts',(35.9802697028787,-70.27169981818,33.7770664718573));
#1038=CARTESIAN_POINT('Ctrl Pts',(36.7321864594713,-70.1111925354884,33.9230809286377));
#1039=CARTESIAN_POINT('Ctrl Pts',(37.1180352684571,-70.069928198902,33.9601003728285));
#1040=CARTESIAN_POINT('Ctrl Pts',(37.8819647315429,-70.069928198902,33.9601003728285));
#1041=CARTESIAN_POINT('Ctrl Pts',(38.2678135405287,-70.1111925354884,33.9230809286377));
#1042=CARTESIAN_POINT('Ctrl Pts',(39.0197302971213,-70.27169981818,33.7770664718573));
#1043=CARTESIAN_POINT('Ctrl Pts',(39.3858547729359,-70.3907503801633,33.6681511574977));
#1044=CARTESIAN_POINT('Ctrl Pts',(40.4214944266703,-70.8345852153199,33.2533082022055));
#1045=CARTESIAN_POINT('Ctrl Pts',(41.0283705024459,-71.2481480999626,32.8549850738837));
#1046=CARTESIAN_POINT('Ctrl Pts',(42.1252360535148,-72.2093771615508,31.8718118073683));
#1047=CARTESIAN_POINT('Ctrl Pts',(42.6376724052305,-72.8534754167957,31.172735938489));
#1048=CARTESIAN_POINT('Ctrl Pts',(43.3259916129613,-74.1457894098107,29.6257914973565));
#1049=CARTESIAN_POINT('Ctrl Pts',(43.5,-74.7934417410937,28.7766190978439));
#1050=CARTESIAN_POINT('Ctrl Pts',(43.5,-75.8666612052212,27.2353249865528));
#1051=CARTESIAN_POINT('Ctrl Pts',(43.3606098577672,-76.3808099336463,26.4321779584535));
#1052=CARTESIAN_POINT('Ctrl Pts',(42.7303293831063,-77.27583096788,24.9064218928373));
#1053=CARTESIAN_POINT('Ctrl Pts',(42.2378493680408,-77.6578930673435,24.185168433315));
#1054=CARTESIAN_POINT('Ctrl Pts',(41.1225068536803,-78.1875543798405,23.1256304530022));
#1055=CARTESIAN_POINT('Ctrl Pts',(40.4722404813667,-78.3900501798152,22.6904975433683));
#1056=CARTESIAN_POINT('Ctrl Pts',(39.0328652475562,-78.6540862685433,22.1074722043622));
#1057=CARTESIAN_POINT('Ctrl Pts',(38.243836285401,-78.7172090358729,21.9601003728285));
#1058=CARTESIAN_POINT('Ctrl Pts',(37.5,-78.7172090358729,21.9601003728285));
#1059=CARTESIAN_POINT('',(31.6316527028473,-67.889179171182,29.2101003728285));
#1060=CARTESIAN_POINT('Origin',(37.5,-67.889179171182,27.9601003728285));
#1061=CARTESIAN_POINT('',(31.6316527028473,-25.389179171182,29.2101003728285));
#1062=CARTESIAN_POINT('',(31.6316527028473,-1.63917917118201,29.2101003728285));
#1063=CARTESIAN_POINT('Origin',(37.5,-25.389179171182,27.9601003728285));
#1064=CARTESIAN_POINT('Origin',(37.5,-1.639179171182,27.9601003728285));
#1065=CARTESIAN_POINT('',(40.65,-1.639179171182,27.9601003728285));
#1066=CARTESIAN_POINT('Origin',(37.5,-1.639179171182,27.9601003728285));
#1067=CARTESIAN_POINT('Origin',(37.5,-1.639179171182,-12.0398996271715));
#1068=CARTESIAN_POINT('',(31.5,-1.639179171182,-12.0398996271715));
#1069=CARTESIAN_POINT('Origin',(37.5,-1.639179171182,-12.0398996271715));
#1070=CARTESIAN_POINT('',(31.5,-25.389179171182,-12.0398996271715));
#1071=CARTESIAN_POINT('',(31.5,-1.639179171182,-12.0398996271715));
#1072=CARTESIAN_POINT('',(31.6316527028473,-25.389179171182,-13.2898996271715));
#1073=CARTESIAN_POINT('Origin',(37.5,-25.389179171182,-12.0398996271715));
#1074=CARTESIAN_POINT('',(31.6316527028473,-67.889179171182,-13.2898996271715));
#1075=CARTESIAN_POINT('',(31.6316527028473,-1.639179171182,-13.2898996271715));
#1076=CARTESIAN_POINT('',(31.5,-67.889179171182,-12.0398996271715));
#1077=CARTESIAN_POINT('Origin',(37.5,-67.889179171182,-12.0398996271715));
#1078=CARTESIAN_POINT('',(31.5,-75.3619924038721,-12.0398996271715));
#1079=CARTESIAN_POINT('',(31.5,-1.639179171182,-12.0398996271715));
#1080=CARTESIAN_POINT('',(37.5,-70.069928198902,-18.0398996271715));
#1081=CARTESIAN_POINT('Ctrl Pts',(37.5,-70.069928198902,-18.0398996271715));
#1082=CARTESIAN_POINT('Ctrl Pts',(37.1180352684571,-70.069928198902,-18.0398996271715));
#1083=CARTESIAN_POINT('Ctrl Pts',(36.7321864594713,-70.1111925354884,-18.0028801829808));
#1084=CARTESIAN_POINT('Ctrl Pts',(35.9802697028787,-70.27169981818,-17.8568657262003));
#1085=CARTESIAN_POINT('Ctrl Pts',(35.6141452270641,-70.3907503801633,-17.7479504118407));
#1086=CARTESIAN_POINT('Ctrl Pts',(34.5785055733296,-70.8345852153199,-17.3331074565486));
#1087=CARTESIAN_POINT('Ctrl Pts',(33.9716294975541,-71.2481480999626,-16.9347843282267));
#1088=CARTESIAN_POINT('Ctrl Pts',(32.8747639464852,-72.2093771615508,-15.9516110617114));
#1089=CARTESIAN_POINT('Ctrl Pts',(32.3623275947695,-72.8534754167957,-15.252535192832));
#1090=CARTESIAN_POINT('Ctrl Pts',(31.6740083870387,-74.1457894098106,-13.7055907516995));
#1091=CARTESIAN_POINT('Ctrl Pts',(31.5,-74.7934417410937,-12.8564183521869));
#1092=CARTESIAN_POINT('Ctrl Pts',(31.5,-75.3619924038722,-12.0398996271715));
#1093=CARTESIAN_POINT('Ctrl Pts',(31.5,-75.3619924038722,-12.0398996271715));
#1094=CARTESIAN_POINT('Ctrl Pts',(31.5,-75.8666612052212,-11.3151242408958));
#1095=CARTESIAN_POINT('Ctrl Pts',(31.6393901422328,-76.3808099336463,-10.5119772127965));
#1096=CARTESIAN_POINT('Ctrl Pts',(32.2696706168937,-77.27583096788,-8.98622114718034));
#1097=CARTESIAN_POINT('Ctrl Pts',(32.7621506319592,-77.6578930673435,-8.26496768765806));
#1098=CARTESIAN_POINT('Ctrl Pts',(33.8774931463198,-78.1875543798405,-7.20542970734522));
#1099=CARTESIAN_POINT('Ctrl Pts',(34.5277595186333,-78.3900501798152,-6.77029679771132));
#1100=CARTESIAN_POINT('Ctrl Pts',(35.9671347524438,-78.6540862685433,-6.18727145870527));
#1101=CARTESIAN_POINT('Ctrl Pts',(36.756163714599,-78.7172090358729,-6.03989962717153));
#1102=CARTESIAN_POINT('Ctrl Pts',(38.243836285401,-78.7172090358729,-6.03989962717153));
#1103=CARTESIAN_POINT('Ctrl Pts',(39.0328652475562,-78.6540862685433,-6.18727145870527));
#1104=CARTESIAN_POINT('Ctrl Pts',(40.4722404813667,-78.3900501798152,-6.77029679771132));
#1105=CARTESIAN_POINT('Ctrl Pts',(41.1225068536802,-78.1875543798405,-7.20542970734522));
#1106=CARTESIAN_POINT('Ctrl Pts',(42.2378493680408,-77.6578930673435,-8.26496768765806));
#1107=CARTESIAN_POINT('Ctrl Pts',(42.7303293831063,-77.27583096788,-8.98622114718034));
#1108=CARTESIAN_POINT('Ctrl Pts',(43.3606098577672,-76.3808099336463,-10.5119772127965));
#1109=CARTESIAN_POINT('Ctrl Pts',(43.5,-75.8666612052212,-11.3151242408958));
#1110=CARTESIAN_POINT('Ctrl Pts',(43.5,-74.7934417410937,-12.8564183521869));
#1111=CARTESIAN_POINT('Ctrl Pts',(43.3259916129614,-74.1457894098107,-13.7055907516995));
#1112=CARTESIAN_POINT('Ctrl Pts',(42.6376724052305,-72.8534754167957,-15.252535192832));
#1113=CARTESIAN_POINT('Ctrl Pts',(42.1252360535148,-72.2093771615508,-15.9516110617114));
#1114=CARTESIAN_POINT('Ctrl Pts',(41.0283705024459,-71.2481480999626,-16.9347843282267));
#1115=CARTESIAN_POINT('Ctrl Pts',(40.4214944266704,-70.8345852153199,-17.3331074565485));
#1116=CARTESIAN_POINT('Ctrl Pts',(39.3858547729359,-70.3907503801633,-17.7479504118407));
#1117=CARTESIAN_POINT('Ctrl Pts',(39.0197302971213,-70.27169981818,-17.8568657262003));
#1118=CARTESIAN_POINT('Ctrl Pts',(38.2678135405287,-70.1111925354883,-18.0028801829808));
#1119=CARTESIAN_POINT('Ctrl Pts',(37.8819647315429,-70.069928198902,-18.0398996271715));
#1120=CARTESIAN_POINT('Ctrl Pts',(37.5,-70.069928198902,-18.0398996271715));
#1121=CARTESIAN_POINT('',(43.3683472971527,-67.889179171182,-13.2898996271715));
#1122=CARTESIAN_POINT('Origin',(37.5,-67.889179171182,-12.0398996271715));
#1123=CARTESIAN_POINT('',(43.3683472971527,-25.389179171182,-13.2898996271715));
#1124=CARTESIAN_POINT('',(43.3683472971527,-1.639179171182,-13.2898996271715));
#1125=CARTESIAN_POINT('Origin',(37.5,-25.389179171182,-12.0398996271715));
#1126=CARTESIAN_POINT('Origin',(37.5,-1.639179171182,-12.0398996271715));
#1127=CARTESIAN_POINT('',(40.65,-1.639179171182,-12.0398996271715));
#1128=CARTESIAN_POINT('Origin',(37.5,-1.639179171182,-12.0398996271715));
#1129=CARTESIAN_POINT('Origin',(7.5,-1.639179171182,27.9601003728285));
#1130=CARTESIAN_POINT('',(1.5,-1.639179171182,27.9601003728285));
#1131=CARTESIAN_POINT('Origin',(7.5,-1.639179171182,27.9601003728285));
#1132=CARTESIAN_POINT('',(1.5,-25.389179171182,27.9601003728285));
#1133=CARTESIAN_POINT('',(1.5,-1.639179171182,27.9601003728285));
#1134=CARTESIAN_POINT('',(13.3683472971528,-25.389179171182,29.2101003728285));
#1135=CARTESIAN_POINT('Origin',(7.5,-25.389179171182,27.9601003728285));
#1136=CARTESIAN_POINT('',(13.3683472971528,-67.889179171182,29.2101003728285));
#1137=CARTESIAN_POINT('',(13.3683472971528,-1.63917917118201,29.2101003728285));
#1138=CARTESIAN_POINT('',(1.5,-67.889179171182,27.9601003728285));
#1139=CARTESIAN_POINT('Origin',(7.5,-67.889179171182,27.9601003728285));
#1140=CARTESIAN_POINT('',(1.5,-75.3619924038722,27.9601003728285));
#1141=CARTESIAN_POINT('',(1.5,-1.639179171182,27.9601003728285));
#1142=CARTESIAN_POINT('',(7.5,-78.7172090358729,21.9601003728285));
#1143=CARTESIAN_POINT('Ctrl Pts',(7.5,-78.7172090358729,21.9601003728285));
#1144=CARTESIAN_POINT('Ctrl Pts',(6.75616371459904,-78.7172090358729,21.9601003728285));
#1145=CARTESIAN_POINT('Ctrl Pts',(5.96713475244383,-78.6540862685433,22.1074722043622));
#1146=CARTESIAN_POINT('Ctrl Pts',(4.52775951863332,-78.3900501798152,22.6904975433683));
#1147=CARTESIAN_POINT('Ctrl Pts',(3.87749314631975,-78.1875543798405,23.1256304530022));
#1148=CARTESIAN_POINT('Ctrl Pts',(2.76215063195923,-77.6578930673435,24.185168433315));
#1149=CARTESIAN_POINT('Ctrl Pts',(2.26967061689375,-77.27583096788,24.9064218928373));
#1150=CARTESIAN_POINT('Ctrl Pts',(1.63939014223282,-76.3808099336463,26.4321779584535));
#1151=CARTESIAN_POINT('Ctrl Pts',(1.5,-75.8666612052212,27.2353249865528));
#1152=CARTESIAN_POINT('Ctrl Pts',(1.5,-75.3619924038721,27.9601003728285));
#1153=CARTESIAN_POINT('Ctrl Pts',(1.5,-75.3619924038722,27.9601003728285));
#1154=CARTESIAN_POINT('Ctrl Pts',(1.5,-74.7934417410937,28.7766190978439));
#1155=CARTESIAN_POINT('Ctrl Pts',(1.67400838703866,-74.1457894098107,29.6257914973565));
#1156=CARTESIAN_POINT('Ctrl Pts',(2.3623275947695,-72.8534754167957,31.172735938489));
#1157=CARTESIAN_POINT('Ctrl Pts',(2.87476394648519,-72.2093771615508,31.8718118073683));
#1158=CARTESIAN_POINT('Ctrl Pts',(3.9716294975541,-71.2481480999626,32.8549850738837));
#1159=CARTESIAN_POINT('Ctrl Pts',(4.57850557332964,-70.8345852153199,33.2533082022055));
#1160=CARTESIAN_POINT('Ctrl Pts',(5.6141452270641,-70.3907503801633,33.6681511574977));
#1161=CARTESIAN_POINT('Ctrl Pts',(5.98026970287873,-70.27169981818,33.7770664718573));
#1162=CARTESIAN_POINT('Ctrl Pts',(6.73218645947132,-70.1111925354883,33.9230809286377));
#1163=CARTESIAN_POINT('Ctrl Pts',(7.11803526845712,-70.069928198902,33.9601003728285));
#1164=CARTESIAN_POINT('Ctrl Pts',(7.88196473154288,-70.069928198902,33.9601003728285));
#1165=CARTESIAN_POINT('Ctrl Pts',(8.26781354052869,-70.1111925354884,33.9230809286377));
#1166=CARTESIAN_POINT('Ctrl Pts',(9.01973029712127,-70.27169981818,33.7770664718573));
#1167=CARTESIAN_POINT('Ctrl Pts',(9.3858547729359,-70.3907503801633,33.6681511574977));
#1168=CARTESIAN_POINT('Ctrl Pts',(10.4214944266704,-70.8345852153199,33.2533082022055));
#1169=CARTESIAN_POINT('Ctrl Pts',(11.0283705024459,-71.2481480999626,32.8549850738837));
#1170=CARTESIAN_POINT('Ctrl Pts',(12.1252360535148,-72.2093771615508,31.8718118073683));
#1171=CARTESIAN_POINT('Ctrl Pts',(12.6376724052305,-72.8534754167957,31.172735938489));
#1172=CARTESIAN_POINT('Ctrl Pts',(13.3259916129613,-74.1457894098107,29.6257914973565));
#1173=CARTESIAN_POINT('Ctrl Pts',(13.5,-74.7934417410937,28.7766190978439));
#1174=CARTESIAN_POINT('Ctrl Pts',(13.5,-75.8666612052212,27.2353249865528));
#1175=CARTESIAN_POINT('Ctrl Pts',(13.3606098577672,-76.3808099336463,26.4321779584535));
#1176=CARTESIAN_POINT('Ctrl Pts',(12.7303293831063,-77.27583096788,24.9064218928373));
#1177=CARTESIAN_POINT('Ctrl Pts',(12.2378493680408,-77.6578930673435,24.185168433315));
#1178=CARTESIAN_POINT('Ctrl Pts',(11.1225068536803,-78.1875543798405,23.1256304530022));
#1179=CARTESIAN_POINT('Ctrl Pts',(10.4722404813667,-78.3900501798152,22.6904975433683));
#1180=CARTESIAN_POINT('Ctrl Pts',(9.03286524755617,-78.6540862685433,22.1074722043622));
#1181=CARTESIAN_POINT('Ctrl Pts',(8.24383628540095,-78.7172090358729,21.9601003728285));
#1182=CARTESIAN_POINT('Ctrl Pts',(7.5,-78.7172090358729,21.9601003728285));
#1183=CARTESIAN_POINT('',(1.63165270284725,-67.889179171182,29.2101003728285));
#1184=CARTESIAN_POINT('Origin',(7.5,-67.889179171182,27.9601003728285));
#1185=CARTESIAN_POINT('',(1.63165270284725,-25.389179171182,29.2101003728285));
#1186=CARTESIAN_POINT('',(1.63165270284725,-1.63917917118201,29.2101003728285));
#1187=CARTESIAN_POINT('Origin',(7.5,-25.389179171182,27.9601003728285));
#1188=CARTESIAN_POINT('Origin',(7.5,-1.639179171182,27.9601003728285));
#1189=CARTESIAN_POINT('',(10.65,-1.639179171182,27.9601003728285));
#1190=CARTESIAN_POINT('Origin',(7.5,-1.639179171182,27.9601003728285));
#1191=CARTESIAN_POINT('Origin',(7.5,-1.639179171182,-12.0398996271715));
#1192=CARTESIAN_POINT('',(1.5,-1.639179171182,-12.0398996271715));
#1193=CARTESIAN_POINT('Origin',(7.5,-1.639179171182,-12.0398996271715));
#1194=CARTESIAN_POINT('',(1.5,-25.389179171182,-12.0398996271715));
#1195=CARTESIAN_POINT('',(1.5,-1.639179171182,-12.0398996271715));
#1196=CARTESIAN_POINT('',(1.63165270284725,-25.389179171182,-13.2898996271715));
#1197=CARTESIAN_POINT('Origin',(7.5,-25.389179171182,-12.0398996271715));
#1198=CARTESIAN_POINT('',(1.63165270284725,-67.889179171182,-13.2898996271715));
#1199=CARTESIAN_POINT('',(1.63165270284725,-1.639179171182,-13.2898996271715));
#1200=CARTESIAN_POINT('',(1.5,-67.889179171182,-12.0398996271715));
#1201=CARTESIAN_POINT('Origin',(7.5,-67.889179171182,-12.0398996271715));
#1202=CARTESIAN_POINT('',(1.5,-75.3619924038721,-12.0398996271715));
#1203=CARTESIAN_POINT('',(1.5,-1.639179171182,-12.0398996271715));
#1204=CARTESIAN_POINT('',(7.5,-70.069928198902,-18.0398996271715));
#1205=CARTESIAN_POINT('Ctrl Pts',(7.5,-70.069928198902,-18.0398996271715));
#1206=CARTESIAN_POINT('Ctrl Pts',(7.11803526845712,-70.069928198902,-18.0398996271715));
#1207=CARTESIAN_POINT('Ctrl Pts',(6.73218645947132,-70.1111925354884,-18.0028801829808));
#1208=CARTESIAN_POINT('Ctrl Pts',(5.98026970287873,-70.27169981818,-17.8568657262003));
#1209=CARTESIAN_POINT('Ctrl Pts',(5.6141452270641,-70.3907503801633,-17.7479504118407));
#1210=CARTESIAN_POINT('Ctrl Pts',(4.57850557332964,-70.8345852153199,-17.3331074565485));
#1211=CARTESIAN_POINT('Ctrl Pts',(3.9716294975541,-71.2481480999626,-16.9347843282267));
#1212=CARTESIAN_POINT('Ctrl Pts',(2.87476394648519,-72.2093771615508,-15.9516110617114));
#1213=CARTESIAN_POINT('Ctrl Pts',(2.3623275947695,-72.8534754167957,-15.252535192832));
#1214=CARTESIAN_POINT('Ctrl Pts',(1.67400838703865,-74.1457894098107,-13.7055907516995));
#1215=CARTESIAN_POINT('Ctrl Pts',(1.5,-74.7934417410937,-12.8564183521869));
#1216=CARTESIAN_POINT('Ctrl Pts',(1.5,-75.3619924038721,-12.0398996271715));
#1217=CARTESIAN_POINT('Ctrl Pts',(1.5,-75.3619924038721,-12.0398996271715));
#1218=CARTESIAN_POINT('Ctrl Pts',(1.5,-75.8666612052212,-11.3151242408958));
#1219=CARTESIAN_POINT('Ctrl Pts',(1.63939014223282,-76.3808099336463,-10.5119772127965));
#1220=CARTESIAN_POINT('Ctrl Pts',(2.26967061689375,-77.27583096788,-8.98622114718034));
#1221=CARTESIAN_POINT('Ctrl Pts',(2.76215063195923,-77.6578930673435,-8.26496768765806));
#1222=CARTESIAN_POINT('Ctrl Pts',(3.87749314631975,-78.1875543798405,-7.20542970734521));
#1223=CARTESIAN_POINT('Ctrl Pts',(4.52775951863332,-78.3900501798152,-6.77029679771132));
#1224=CARTESIAN_POINT('Ctrl Pts',(5.96713475244383,-78.6540862685433,-6.18727145870526));
#1225=CARTESIAN_POINT('Ctrl Pts',(6.75616371459905,-78.7172090358729,-6.03989962717153));
#1226=CARTESIAN_POINT('Ctrl Pts',(8.24383628540095,-78.7172090358729,-6.03989962717153));
#1227=CARTESIAN_POINT('Ctrl Pts',(9.03286524755617,-78.6540862685433,-6.18727145870526));
#1228=CARTESIAN_POINT('Ctrl Pts',(10.4722404813667,-78.3900501798152,-6.77029679771132));
#1229=CARTESIAN_POINT('Ctrl Pts',(11.1225068536803,-78.1875543798405,-7.20542970734521));
#1230=CARTESIAN_POINT('Ctrl Pts',(12.2378493680408,-77.6578930673435,-8.26496768765806));
#1231=CARTESIAN_POINT('Ctrl Pts',(12.7303293831063,-77.27583096788,-8.98622114718033));
#1232=CARTESIAN_POINT('Ctrl Pts',(13.3606098577672,-76.3808099336463,-10.5119772127965));
#1233=CARTESIAN_POINT('Ctrl Pts',(13.5,-75.8666612052212,-11.3151242408958));
#1234=CARTESIAN_POINT('Ctrl Pts',(13.5,-74.7934417410937,-12.8564183521869));
#1235=CARTESIAN_POINT('Ctrl Pts',(13.3259916129613,-74.1457894098107,-13.7055907516995));
#1236=CARTESIAN_POINT('Ctrl Pts',(12.6376724052305,-72.8534754167957,-15.252535192832));
#1237=CARTESIAN_POINT('Ctrl Pts',(12.1252360535148,-72.2093771615508,-15.9516110617114));
#1238=CARTESIAN_POINT('Ctrl Pts',(11.0283705024459,-71.2481480999626,-16.9347843282267));
#1239=CARTESIAN_POINT('Ctrl Pts',(10.4214944266704,-70.8345852153199,-17.3331074565486));
#1240=CARTESIAN_POINT('Ctrl Pts',(9.3858547729359,-70.3907503801633,-17.7479504118407));
#1241=CARTESIAN_POINT('Ctrl Pts',(9.01973029712127,-70.27169981818,-17.8568657262003));
#1242=CARTESIAN_POINT('Ctrl Pts',(8.26781354052868,-70.1111925354883,-18.0028801829808));
#1243=CARTESIAN_POINT('Ctrl Pts',(7.88196473154288,-70.069928198902,-18.0398996271715));
#1244=CARTESIAN_POINT('Ctrl Pts',(7.5,-70.069928198902,-18.0398996271715));
#1245=CARTESIAN_POINT('',(13.3683472971528,-67.889179171182,-13.2898996271715));
#1246=CARTESIAN_POINT('Origin',(7.5,-67.889179171182,-12.0398996271715));
#1247=CARTESIAN_POINT('',(13.3683472971528,-25.389179171182,-13.2898996271715));
#1248=CARTESIAN_POINT('',(13.3683472971527,-1.639179171182,-13.2898996271715));
#1249=CARTESIAN_POINT('Origin',(7.5,-25.389179171182,-12.0398996271715));
#1250=CARTESIAN_POINT('Origin',(7.5,-1.639179171182,-12.0398996271715));
#1251=CARTESIAN_POINT('',(10.65,-1.639179171182,-12.0398996271715));
#1252=CARTESIAN_POINT('Origin',(7.5,-1.639179171182,-12.0398996271715));
#1253=CARTESIAN_POINT('Origin',(0.,-67.889179171182,29.2101003728285));
#1254=CARTESIAN_POINT('',(45.,-25.389179171182,29.2101003728285));
#1255=CARTESIAN_POINT('',(0.,-25.389179171182,29.2101003728285));
#1256=CARTESIAN_POINT('',(45.,-67.889179171182,29.2101003728285));
#1257=CARTESIAN_POINT('',(45.,-67.889179171182,29.2101003728285));
#1258=CARTESIAN_POINT('',(0.,-67.889179171182,29.2101003728285));
#1259=CARTESIAN_POINT('Origin',(0.,-25.389179171182,-13.2898996271715));
#1260=CARTESIAN_POINT('',(45.,-67.889179171182,-13.2898996271715));
#1261=CARTESIAN_POINT('',(0.,-67.889179171182,-13.2898996271715));
#1262=CARTESIAN_POINT('',(45.,-25.389179171182,-13.2898996271715));
#1263=CARTESIAN_POINT('',(45.,-25.389179171182,-13.2898996271715));
#1264=CARTESIAN_POINT('',(0.,-25.389179171182,-13.2898996271715));
#1265=CARTESIAN_POINT('Origin',(0.,-67.889179171182,29.2101003728285));
#1266=CARTESIAN_POINT('',(0.,-67.889179171182,29.2101003728285));
#1267=CARTESIAN_POINT('',(0.,-67.889179171182,29.2101003728285));
#1268=CARTESIAN_POINT('',(0.,-25.389179171182,29.2101003728285));
#1269=CARTESIAN_POINT('',(0.,-67.889179171182,29.2101003728285));
#1270=CARTESIAN_POINT('',(0.,-25.389179171182,29.2101003728285));
#1271=CARTESIAN_POINT('Origin',(0.,-25.389179171182,-13.2898996271715));
#1272=CARTESIAN_POINT('',(0.,-25.389179171182,-13.2898996271715));
#1273=CARTESIAN_POINT('',(0.,-25.389179171182,-13.2898996271715));
#1274=CARTESIAN_POINT('',(0.,-67.889179171182,-13.2898996271715));
#1275=CARTESIAN_POINT('',(0.,-25.389179171182,-13.2898996271715));
#1276=CARTESIAN_POINT('',(0.,-67.889179171182,-13.2898996271715));
#1277=CARTESIAN_POINT('Origin',(0.,-25.389179171182,29.2101003728285));
#1278=CARTESIAN_POINT('',(0.,-25.389179171182,29.2101003728285));
#1279=CARTESIAN_POINT('',(0.,-25.389179171182,29.2101003728285));
#1280=CARTESIAN_POINT('',(0.,-25.389179171182,-13.2898996271715));
#1281=CARTESIAN_POINT('',(45.,-25.389179171182,29.2101003728285));
#1282=CARTESIAN_POINT('Origin',(7.5,13.360820828818,27.9601003728285));
#1283=CARTESIAN_POINT('',(10.65,13.360820828818,27.9601003728285));
#1284=CARTESIAN_POINT('Origin',(7.5,13.360820828818,27.9601003728285));
#1285=CARTESIAN_POINT('',(10.65,13.360820828818,27.9601003728285));
#1286=CARTESIAN_POINT('Origin',(7.5,13.360820828818,-12.0398996271715));
#1287=CARTESIAN_POINT('',(10.65,13.360820828818,-12.0398996271715));
#1288=CARTESIAN_POINT('Origin',(7.5,13.360820828818,-12.0398996271715));
#1289=CARTESIAN_POINT('',(10.65,13.360820828818,-12.0398996271715));
#1290=CARTESIAN_POINT('Origin',(37.5,13.360820828818,27.9601003728285));
#1291=CARTESIAN_POINT('',(40.65,13.360820828818,27.9601003728285));
#1292=CARTESIAN_POINT('Origin',(37.5,13.360820828818,27.9601003728285));
#1293=CARTESIAN_POINT('',(40.65,13.360820828818,27.9601003728285));
#1294=CARTESIAN_POINT('Origin',(37.5,13.360820828818,-12.0398996271715));
#1295=CARTESIAN_POINT('',(40.65,13.360820828818,-12.0398996271715));
#1296=CARTESIAN_POINT('Origin',(37.5,13.360820828818,-12.0398996271715));
#1297=CARTESIAN_POINT('',(40.65,13.360820828818,-12.0398996271715));
#1298=CARTESIAN_POINT('Origin',(0.,-67.889179171182,29.2101003728285));
#1299=CARTESIAN_POINT('',(0.,-67.889179171182,29.2101003728285));
#1300=CARTESIAN_POINT('Origin',(0.,-25.389179171182,-13.2898996271715));
#1301=CARTESIAN_POINT('',(0.,-67.889179171182,-13.2898996271715));
#1302=CARTESIAN_POINT('Origin',(0.,-67.889179171182,-13.2898996271715));
#1303=CARTESIAN_POINT('',(45.,-67.889179171182,-13.2898996271715));
#1304=CARTESIAN_POINT('',(0.,-67.889179171182,-13.2898996271715));
#1305=CARTESIAN_POINT('Origin',(0.,-78.889179171182,21.5592731417876));
#1306=CARTESIAN_POINT('',(0.,-78.889179171182,-5.63907239613065));
#1307=CARTESIAN_POINT('',(0.,-78.889179171182,21.5592731417876));
#1308=CARTESIAN_POINT('',(0.,-78.889179171182,-24.2898996271715));
#1309=CARTESIAN_POINT('',(45.,-78.889179171182,-5.63907239613065));
#1310=CARTESIAN_POINT('',(0.,-78.889179171182,-5.63907239613065));
#1311=CARTESIAN_POINT('',(45.,-78.889179171182,21.5592731417876));
#1312=CARTESIAN_POINT('',(45.,-78.889179171182,-24.2898996271715));
#1313=CARTESIAN_POINT('',(0.,-78.889179171182,21.5592731417876));
#1314=CARTESIAN_POINT('Origin',(0.,-46.639179171182,7.96010037282847));
#1315=CARTESIAN_POINT('',(0.,-60.2383519401412,40.2101003728285));
#1316=CARTESIAN_POINT('Origin',(0.,-46.639179171182,7.96010037282847));
#1317=CARTESIAN_POINT('',(45.,-60.2383519401412,40.2101003728285));
#1318=CARTESIAN_POINT('Origin',(45.,-46.639179171182,7.96010037282847));
#1319=CARTESIAN_POINT('',(0.,-60.2383519401412,40.2101003728285));
#1320=CARTESIAN_POINT('Origin',(0.,13.360820828818,40.2101003728285));
#1321=CARTESIAN_POINT('',(0.,13.360820828818,40.2101003728285));
#1322=CARTESIAN_POINT('',(0.,-78.889179171182,40.2101003728285));
#1323=CARTESIAN_POINT('',(45.,13.360820828818,40.2101003728285));
#1324=CARTESIAN_POINT('',(45.,-78.889179171182,40.2101003728285));
#1325=CARTESIAN_POINT('',(0.,13.360820828818,40.2101003728285));
#1326=CARTESIAN_POINT('Origin',(0.,13.360820828818,-24.2898996271715));
#1327=CARTESIAN_POINT('',(0.,13.360820828818,-24.2898996271715));
#1328=CARTESIAN_POINT('',(0.,13.360820828818,45.8975128046075));
#1329=CARTESIAN_POINT('',(45.,13.360820828818,-24.2898996271715));
#1330=CARTESIAN_POINT('',(45.,13.360820828818,45.8975128046075));
#1331=CARTESIAN_POINT('',(0.,13.360820828818,-24.2898996271715));
#1332=CARTESIAN_POINT('Origin',(0.,-60.2383519401412,-24.2898996271715));
#1333=CARTESIAN_POINT('',(0.,-60.2383519401412,-24.2898996271715));
#1334=CARTESIAN_POINT('',(0.,13.360820828818,-24.2898996271715));
#1335=CARTESIAN_POINT('',(45.,-60.2383519401412,-24.2898996271715));
#1336=CARTESIAN_POINT('',(45.,13.360820828818,-24.2898996271715));
#1337=CARTESIAN_POINT('',(0.,-60.2383519401412,-24.2898996271715));
#1338=CARTESIAN_POINT('Origin',(0.,-46.639179171182,7.96010037282847));
#1339=CARTESIAN_POINT('Origin',(0.,-46.639179171182,7.96010037282847));
#1340=CARTESIAN_POINT('Origin',(45.,-46.639179171182,7.96010037282847));
#1341=CARTESIAN_POINT('Origin',(45.,-32.764179171182,7.96010037282847));
#1342=CARTESIAN_POINT('Origin',(0.,-32.764179171182,7.96010037282847));
#1343=UNCERTAINTY_MEASURE_WITH_UNIT(LENGTH_MEASURE(0.01),#1347,
'DISTANCE_ACCURACY_VALUE',
'Maximum model space distance between geometric entities at asserted c
onnectivities');
#1344=UNCERTAINTY_MEASURE_WITH_UNIT(LENGTH_MEASURE(0.01),#1347,
'DISTANCE_ACCURACY_VALUE',
'Maximum model space distance between geometric entities at asserted c
onnectivities');
#1345=(
GEOMETRIC_REPRESENTATION_CONTEXT(3)
GLOBAL_UNCERTAINTY_ASSIGNED_CONTEXT((#1343))
GLOBAL_UNIT_ASSIGNED_CONTEXT((#1347,#1348,#1349))
REPRESENTATION_CONTEXT('','3D')
);
#1346=(
GEOMETRIC_REPRESENTATION_CONTEXT(3)
GLOBAL_UNCERTAINTY_ASSIGNED_CONTEXT((#1344))
GLOBAL_UNIT_ASSIGNED_CONTEXT((#1347,#1348,#1349))
REPRESENTATION_CONTEXT('','3D')
);
#1347=(
LENGTH_UNIT()
NAMED_UNIT(*)
SI_UNIT(.MILLI.,.METRE.)
);
#1348=(
NAMED_UNIT(*)
PLANE_ANGLE_UNIT()
SI_UNIT($,.RADIAN.)
);
#1349=(
NAMED_UNIT(*)
SI_UNIT($,.STERADIAN.)
SOLID_ANGLE_UNIT()
);
#1350=SHAPE_DEFINITION_REPRESENTATION(#1351,#1352);
#1351=PRODUCT_DEFINITION_SHAPE('',$,#1354);
#1352=SHAPE_REPRESENTATION('',(#719),#1345);
#1353=PRODUCT_DEFINITION_CONTEXT('part definition',#1358,'design');
#1354=PRODUCT_DEFINITION('2026-05-25-19-25-37-380','BODY_MOUNT',#1355,#1353);
#1355=PRODUCT_DEFINITION_FORMATION('',$,#1360);
#1356=PRODUCT_RELATED_PRODUCT_CATEGORY('BODY_MOUNT','BODY_MOUNT',(#1360));
#1357=APPLICATION_PROTOCOL_DEFINITION('international standard',
'automotive_design',2009,#1358);
#1358=APPLICATION_CONTEXT(
'Core Data for Automotive Mechanical Design Process');
#1359=PRODUCT_CONTEXT('part definition',#1358,'mechanical');
#1360=PRODUCT('2026-05-25-19-25-37-380','BODY_MOUNT',$,(#1359));
#1361=PRESENTATION_STYLE_ASSIGNMENT((#1362));
#1362=SURFACE_STYLE_USAGE(.BOTH.,#1363);
#1363=SURFACE_SIDE_STYLE('',(#1364));
#1364=SURFACE_STYLE_FILL_AREA(#1365);
#1365=FILL_AREA_STYLE('\X2\D3F4B9ACC774BBF8B4DC\X0\(Kapton)',(#1366));
#1366=FILL_AREA_STYLE_COLOUR('\X2\D3F4B9ACC774BBF8B4DC\X0\(Kapton)',#1367);
#1367=COLOUR_RGB('\X2\D3F4B9ACC774BBF8B4DC\X0\(Kapton)',0.784313725490196,
0.556862745098039,0.0274509803921569);
ENDSEC;
END-ISO-10303-21;
