ISO-10303-21;
HEADER;
/* Generated by software containing ST-Developer
 * from STEP Tools, Inc. (www.steptools.com) 
 */

FILE_DESCRIPTION(
/* description */ (''),
/* implementation_level */ '2;1');

FILE_NAME(
/* name */ 'DRUM.step',
/* time_stamp */ '2026-06-06T17:22:20+09:00',
/* author */ (''),
/* organization */ (''),
/* preprocessor_version */ 'ST-DEVELOPER v20.1',
/* originating_system */ 'Autodesk Translation Framework v15.8.0.0',
/* authorisation */ '');

FILE_SCHEMA (('AUTOMOTIVE_DESIGN { 1 0 10303 214 3 1 1 }'));
ENDSEC;

DATA;
#10=MECHANICAL_DESIGN_GEOMETRIC_PRESENTATION_REPRESENTATION('',(#13),#929);
#11=SHAPE_REPRESENTATION_RELATIONSHIP('SRR','None',#936,#12);
#12=ADVANCED_BREP_SHAPE_REPRESENTATION('',(#14),#928);
#13=STYLED_ITEM('',(#946),#14);
#14=MANIFOLD_SOLID_BREP('\X2\BCF8CCB4\X0\1',#343);
#15=FACE_BOUND('',#81,.T.);
#16=FACE_BOUND('',#84,.T.);
#17=FACE_BOUND('',#87,.T.);
#18=FACE_BOUND('',#89,.T.);
#19=PLANE('',#380);
#20=PLANE('',#385);
#21=PLANE('',#389);
#22=PLANE('',#390);
#23=TOROIDAL_SURFACE('',#374,17.5,2.5);
#24=TOROIDAL_SURFACE('',#377,17.5,2.5);
#25=LINE('',#589,#33);
#26=LINE('',#598,#34);
#27=LINE('',#843,#35);
#28=LINE('',#896,#36);
#29=LINE('',#909,#37);
#30=LINE('',#911,#38);
#31=LINE('',#918,#39);
#32=LINE('',#925,#40);
#33=VECTOR('',#401,10.);
#34=VECTOR('',#404,10.);
#35=VECTOR('',#425,10.);
#36=VECTOR('',#432,10.);
#37=VECTOR('',#453,20.);
#38=VECTOR('',#454,20.);
#39=VECTOR('',#463,9.14999999999997);
#40=VECTOR('',#474,9.14999999999997);
#41=CYLINDRICAL_SURFACE('',#359,15.);
#42=CYLINDRICAL_SURFACE('',#370,2.5);
#43=CYLINDRICAL_SURFACE('',#373,2.5);
#44=CYLINDRICAL_SURFACE('',#382,20.);
#45=CYLINDRICAL_SURFACE('',#387,9.14999999999997);
#46=CYLINDRICAL_SURFACE('',#392,9.14999999999997);
#47=FACE_OUTER_BOUND('',#67,.T.);
#48=FACE_OUTER_BOUND('',#68,.T.);
#49=FACE_OUTER_BOUND('',#69,.T.);
#50=FACE_OUTER_BOUND('',#70,.T.);
#51=FACE_OUTER_BOUND('',#71,.T.);
#52=FACE_OUTER_BOUND('',#72,.T.);
#53=FACE_OUTER_BOUND('',#73,.T.);
#54=FACE_OUTER_BOUND('',#74,.T.);
#55=FACE_OUTER_BOUND('',#75,.T.);
#56=FACE_OUTER_BOUND('',#76,.T.);
#57=FACE_OUTER_BOUND('',#77,.T.);
#58=FACE_OUTER_BOUND('',#78,.T.);
#59=FACE_OUTER_BOUND('',#79,.T.);
#60=FACE_OUTER_BOUND('',#80,.T.);
#61=FACE_OUTER_BOUND('',#82,.T.);
#62=FACE_OUTER_BOUND('',#83,.T.);
#63=FACE_OUTER_BOUND('',#85,.T.);
#64=FACE_OUTER_BOUND('',#86,.T.);
#65=FACE_OUTER_BOUND('',#88,.T.);
#66=FACE_OUTER_BOUND('',#90,.T.);
#67=EDGE_LOOP('',(#215,#216,#217,#218));
#68=EDGE_LOOP('',(#219,#220,#221,#222));
#69=EDGE_LOOP('',(#223,#224,#225,#226,#227,#228,#229,#230));
#70=EDGE_LOOP('',(#231,#232,#233,#234));
#71=EDGE_LOOP('',(#235,#236,#237,#238));
#72=EDGE_LOOP('',(#239,#240,#241,#242));
#73=EDGE_LOOP('',(#243,#244,#245,#246,#247));
#74=EDGE_LOOP('',(#248,#249,#250,#251));
#75=EDGE_LOOP('',(#252,#253,#254,#255,#256,#257));
#76=EDGE_LOOP('',(#258,#259,#260,#261,#262));
#77=EDGE_LOOP('',(#263,#264,#265,#266,#267,#268));
#78=EDGE_LOOP('',(#269,#270,#271,#272));
#79=EDGE_LOOP('',(#273,#274,#275,#276));
#80=EDGE_LOOP('',(#277,#278,#279,#280));
#81=EDGE_LOOP('',(#281));
#82=EDGE_LOOP('',(#282,#283,#284,#285,#286,#287,#288,#289,#290,#291,#292,
#293,#294,#295,#296,#297));
#83=EDGE_LOOP('',(#298,#299,#300,#301));
#84=EDGE_LOOP('',(#302));
#85=EDGE_LOOP('',(#303,#304,#305,#306));
#86=EDGE_LOOP('',(#307));
#87=EDGE_LOOP('',(#308));
#88=EDGE_LOOP('',(#309));
#89=EDGE_LOOP('',(#310));
#90=EDGE_LOOP('',(#311,#312,#313,#314));
#91=B_SPLINE_CURVE_WITH_KNOTS('',3,(#515,#516,#517,#518,#519,#520),
 .UNSPECIFIED.,.F.,.F.,(4,1,1,4),(2.13402212567321E-15,0.3371142616911,
0.561857102818499,0.786599943945897),.UNSPECIFIED.);
#92=B_SPLINE_CURVE_WITH_KNOTS('',3,(#522,#523,#524,#525,#526,#527,#528,
#529),.UNSPECIFIED.,.F.,.F.,(4,2,2,4),(0.,0.106466605693198,0.3125403962853,
0.313029925405344),.UNSPECIFIED.);
#93=B_SPLINE_CURVE_WITH_KNOTS('',3,(#530,#531,#532,#533,#534),
 .UNSPECIFIED.,.F.,.F.,(4,1,4),(0.901208962199019,0.938425549494157,1.16316327599385),
 .UNSPECIFIED.);
#94=B_SPLINE_CURVE_WITH_KNOTS('',3,(#569,#570,#571,#572),.UNSPECIFIED.,
 .F.,.F.,(4,4),(3.17642726602657,3.43842420872639),.UNSPECIFIED.);
#95=B_SPLINE_CURVE_WITH_KNOTS('',3,(#574,#575,#576,#577,#578,#579,#580,
#581),.UNSPECIFIED.,.F.,.F.,(4,2,2,4),(-0.000857243476526901,0.,0.360866822174898,
0.547306253494546),.UNSPECIFIED.);
#96=B_SPLINE_CURVE_WITH_KNOTS('',3,(#582,#583,#584,#585,#586,#587),
 .UNSPECIFIED.,.F.,.F.,(4,1,1,4),(2.69453860516901E-15,0.337111456357593,
0.561852427262653,0.786593398167713),.UNSPECIFIED.);
#97=B_SPLINE_CURVE_WITH_KNOTS('',3,(#593,#594,#595,#596),.UNSPECIFIED.,
 .F.,.F.,(4,4),(3.17642726383731,3.43842435190649),.UNSPECIFIED.);
#98=B_SPLINE_CURVE_WITH_KNOTS('',3,(#600,#601,#602,#603),.UNSPECIFIED.,
 .F.,.F.,(4,4),(0.901175831619105,1.16317265320888),.UNSPECIFIED.);
#99=B_SPLINE_CURVE_WITH_KNOTS('',3,(#638,#639,#640,#641,#642,#643),
 .UNSPECIFIED.,.F.,.F.,(4,1,1,4),(2.36789754470747E-16,0.337114261691101,
0.561857102818502,0.786599943945903),.UNSPECIFIED.);
#100=B_SPLINE_CURVE_WITH_KNOTS('',3,(#644,#645,#646,#647,#648,#649,#650,
#651),.UNSPECIFIED.,.F.,.F.,(4,2,2,4),(0.,0.106466605692982,0.312540315740451,
0.313029846357358),.UNSPECIFIED.);
#101=B_SPLINE_CURVE_WITH_KNOTS('',3,(#685,#686,#687,#688,#689,#690,#691,
#692),.UNSPECIFIED.,.F.,.F.,(4,2,2,4),(-0.00085724357491275,0.,0.360866834511103,
0.547306273964206),.UNSPECIFIED.);
#102=B_SPLINE_CURVE_WITH_KNOTS('',3,(#693,#694,#695,#696,#697,#698),
 .UNSPECIFIED.,.F.,.F.,(4,1,1,4),(0.,0.337111456357592,0.561852427262653,
0.786593398167714),.UNSPECIFIED.);
#103=B_SPLINE_CURVE_WITH_KNOTS('',3,(#737,#738,#739,#740,#741,#742),
 .UNSPECIFIED.,.F.,.F.,(4,1,1,4),(-0.786593398167714,-0.561852427262653,
-0.337111456357592,0.),.UNSPECIFIED.);
#104=B_SPLINE_CURVE_WITH_KNOTS('',3,(#784,#785,#786,#787,#788,#789),
 .UNSPECIFIED.,.F.,.F.,(4,1,1,4),(-0.786599943945897,-0.561857102818499,
-0.3371142616911,-0.26262538971941),.UNSPECIFIED.);
#105=B_SPLINE_CURVE_WITH_KNOTS('',3,(#791,#792,#793,#794),.UNSPECIFIED.,
 .F.,.F.,(4,4),(-0.26262538971941,-2.13402212567321E-15),.UNSPECIFIED.);
#106=B_SPLINE_CURVE_WITH_KNOTS('',3,(#835,#836,#837,#838,#839,#840),
 .UNSPECIFIED.,.F.,.F.,(4,1,1,4),(-0.786599943945903,-0.561857102818502,
-0.337114261691101,-2.36789754470747E-16),.UNSPECIFIED.);
#107=B_SPLINE_CURVE_WITH_KNOTS('',3,(#882,#883,#884,#885,#886),
 .UNSPECIFIED.,.F.,.F.,(4,1,4),(-0.786593398167713,-0.561852427262653,-0.523892662463311),
 .UNSPECIFIED.);
#108=B_SPLINE_CURVE_WITH_KNOTS('',3,(#888,#889,#890,#891,#892),
 .UNSPECIFIED.,.F.,.F.,(4,1,4),(-0.523892662463311,-0.337111456357593,-2.69453860516901E-15),
 .UNSPECIFIED.);
#109=CIRCLE('',#357,2.50000000000001);
#110=CIRCLE('',#358,2.50000000000001);
#111=CIRCLE('',#360,15.);
#112=CIRCLE('',#361,15.);
#113=CIRCLE('',#362,2.5);
#114=CIRCLE('',#363,2.49999999999999);
#115=CIRCLE('',#364,2.5);
#116=CIRCLE('',#365,2.50000000000001);
#117=CIRCLE('',#366,2.49999999999998);
#118=CIRCLE('',#367,2.5);
#119=CIRCLE('',#368,2.50000000000001);
#120=CIRCLE('',#369,2.5);
#121=CIRCLE('',#371,2.5);
#122=CIRCLE('',#372,2.49999999999998);
#123=CIRCLE('',#375,20.);
#124=CIRCLE('',#376,17.5);
#125=CIRCLE('',#378,20.);
#126=CIRCLE('',#379,17.5);
#127=CIRCLE('',#381,9.14999999999997);
#128=CIRCLE('',#383,20.);
#129=CIRCLE('',#384,20.);
#130=CIRCLE('',#386,9.14999999999997);
#131=CIRCLE('',#388,9.14999999999997);
#132=CIRCLE('',#391,9.14999999999997);
#133=VERTEX_POINT('',#511);
#134=VERTEX_POINT('',#512);
#135=VERTEX_POINT('',#514);
#136=VERTEX_POINT('',#521);
#137=VERTEX_POINT('',#565);
#138=VERTEX_POINT('',#566);
#139=VERTEX_POINT('',#568);
#140=VERTEX_POINT('',#573);
#141=VERTEX_POINT('',#590);
#142=VERTEX_POINT('',#592);
#143=VERTEX_POINT('',#597);
#144=VERTEX_POINT('',#599);
#145=VERTEX_POINT('',#635);
#146=VERTEX_POINT('',#637);
#147=VERTEX_POINT('',#682);
#148=VERTEX_POINT('',#684);
#149=VERTEX_POINT('',#735);
#150=VERTEX_POINT('',#736);
#151=VERTEX_POINT('',#781);
#152=VERTEX_POINT('',#783);
#153=VERTEX_POINT('',#790);
#154=VERTEX_POINT('',#832);
#155=VERTEX_POINT('',#834);
#156=VERTEX_POINT('',#880);
#157=VERTEX_POINT('',#881);
#158=VERTEX_POINT('',#887);
#159=VERTEX_POINT('',#904);
#160=VERTEX_POINT('',#907);
#161=VERTEX_POINT('',#910);
#162=VERTEX_POINT('',#914);
#163=VERTEX_POINT('',#917);
#164=VERTEX_POINT('',#922);
#165=EDGE_CURVE('',#133,#134,#109,.T.);
#166=EDGE_CURVE('',#134,#135,#91,.F.);
#167=EDGE_CURVE('',#135,#136,#92,.F.);
#168=EDGE_CURVE('',#136,#133,#93,.T.);
#169=EDGE_CURVE('',#137,#138,#110,.T.);
#170=EDGE_CURVE('',#137,#139,#94,.T.);
#171=EDGE_CURVE('',#139,#140,#95,.F.);
#172=EDGE_CURVE('',#140,#138,#96,.F.);
#173=EDGE_CURVE('',#133,#137,#25,.T.);
#174=EDGE_CURVE('',#136,#141,#111,.T.);
#175=EDGE_CURVE('',#142,#141,#97,.T.);
#176=EDGE_CURVE('',#143,#142,#26,.T.);
#177=EDGE_CURVE('',#144,#143,#98,.T.);
#178=EDGE_CURVE('',#139,#144,#112,.T.);
#179=EDGE_CURVE('',#143,#145,#113,.T.);
#180=EDGE_CURVE('',#145,#146,#99,.F.);
#181=EDGE_CURVE('',#146,#144,#100,.F.);
#182=EDGE_CURVE('',#142,#147,#114,.T.);
#183=EDGE_CURVE('',#141,#148,#101,.F.);
#184=EDGE_CURVE('',#148,#147,#102,.F.);
#185=EDGE_CURVE('',#149,#150,#103,.T.);
#186=EDGE_CURVE('',#147,#150,#115,.T.);
#187=EDGE_CURVE('',#149,#148,#116,.T.);
#188=EDGE_CURVE('',#151,#134,#117,.T.);
#189=EDGE_CURVE('',#151,#152,#104,.T.);
#190=EDGE_CURVE('',#152,#153,#105,.T.);
#191=EDGE_CURVE('',#135,#153,#118,.T.);
#192=EDGE_CURVE('',#154,#145,#119,.T.);
#193=EDGE_CURVE('',#154,#155,#106,.T.);
#194=EDGE_CURVE('',#146,#155,#120,.T.);
#195=EDGE_CURVE('',#150,#154,#27,.T.);
#196=EDGE_CURVE('',#156,#157,#107,.T.);
#197=EDGE_CURVE('',#157,#158,#108,.T.);
#198=EDGE_CURVE('',#138,#158,#121,.T.);
#199=EDGE_CURVE('',#156,#140,#122,.T.);
#200=EDGE_CURVE('',#158,#151,#28,.T.);
#201=EDGE_CURVE('',#155,#156,#123,.T.);
#202=EDGE_CURVE('',#140,#146,#124,.T.);
#203=EDGE_CURVE('',#153,#149,#125,.T.);
#204=EDGE_CURVE('',#148,#135,#126,.T.);
#205=EDGE_CURVE('',#159,#159,#127,.T.);
#206=EDGE_CURVE('',#160,#160,#128,.T.);
#207=EDGE_CURVE('',#160,#152,#29,.T.);
#208=EDGE_CURVE('',#157,#161,#30,.T.);
#209=EDGE_CURVE('',#161,#161,#129,.T.);
#210=EDGE_CURVE('',#162,#162,#130,.T.);
#211=EDGE_CURVE('',#162,#163,#31,.T.);
#212=EDGE_CURVE('',#163,#163,#131,.T.);
#213=EDGE_CURVE('',#164,#164,#132,.T.);
#214=EDGE_CURVE('',#164,#159,#32,.T.);
#215=ORIENTED_EDGE('',*,*,#165,.T.);
#216=ORIENTED_EDGE('',*,*,#166,.T.);
#217=ORIENTED_EDGE('',*,*,#167,.T.);
#218=ORIENTED_EDGE('',*,*,#168,.T.);
#219=ORIENTED_EDGE('',*,*,#169,.F.);
#220=ORIENTED_EDGE('',*,*,#170,.T.);
#221=ORIENTED_EDGE('',*,*,#171,.T.);
#222=ORIENTED_EDGE('',*,*,#172,.T.);
#223=ORIENTED_EDGE('',*,*,#170,.F.);
#224=ORIENTED_EDGE('',*,*,#173,.F.);
#225=ORIENTED_EDGE('',*,*,#168,.F.);
#226=ORIENTED_EDGE('',*,*,#174,.T.);
#227=ORIENTED_EDGE('',*,*,#175,.F.);
#228=ORIENTED_EDGE('',*,*,#176,.F.);
#229=ORIENTED_EDGE('',*,*,#177,.F.);
#230=ORIENTED_EDGE('',*,*,#178,.F.);
#231=ORIENTED_EDGE('',*,*,#179,.T.);
#232=ORIENTED_EDGE('',*,*,#180,.T.);
#233=ORIENTED_EDGE('',*,*,#181,.T.);
#234=ORIENTED_EDGE('',*,*,#177,.T.);
#235=ORIENTED_EDGE('',*,*,#182,.F.);
#236=ORIENTED_EDGE('',*,*,#175,.T.);
#237=ORIENTED_EDGE('',*,*,#183,.T.);
#238=ORIENTED_EDGE('',*,*,#184,.T.);
#239=ORIENTED_EDGE('',*,*,#185,.T.);
#240=ORIENTED_EDGE('',*,*,#186,.F.);
#241=ORIENTED_EDGE('',*,*,#184,.F.);
#242=ORIENTED_EDGE('',*,*,#187,.F.);
#243=ORIENTED_EDGE('',*,*,#166,.F.);
#244=ORIENTED_EDGE('',*,*,#188,.F.);
#245=ORIENTED_EDGE('',*,*,#189,.T.);
#246=ORIENTED_EDGE('',*,*,#190,.T.);
#247=ORIENTED_EDGE('',*,*,#191,.F.);
#248=ORIENTED_EDGE('',*,*,#180,.F.);
#249=ORIENTED_EDGE('',*,*,#192,.F.);
#250=ORIENTED_EDGE('',*,*,#193,.T.);
#251=ORIENTED_EDGE('',*,*,#194,.F.);
#252=ORIENTED_EDGE('',*,*,#186,.T.);
#253=ORIENTED_EDGE('',*,*,#195,.T.);
#254=ORIENTED_EDGE('',*,*,#192,.T.);
#255=ORIENTED_EDGE('',*,*,#179,.F.);
#256=ORIENTED_EDGE('',*,*,#176,.T.);
#257=ORIENTED_EDGE('',*,*,#182,.T.);
#258=ORIENTED_EDGE('',*,*,#196,.T.);
#259=ORIENTED_EDGE('',*,*,#197,.T.);
#260=ORIENTED_EDGE('',*,*,#198,.F.);
#261=ORIENTED_EDGE('',*,*,#172,.F.);
#262=ORIENTED_EDGE('',*,*,#199,.F.);
#263=ORIENTED_EDGE('',*,*,#198,.T.);
#264=ORIENTED_EDGE('',*,*,#200,.T.);
#265=ORIENTED_EDGE('',*,*,#188,.T.);
#266=ORIENTED_EDGE('',*,*,#165,.F.);
#267=ORIENTED_EDGE('',*,*,#173,.T.);
#268=ORIENTED_EDGE('',*,*,#169,.T.);
#269=ORIENTED_EDGE('',*,*,#194,.T.);
#270=ORIENTED_EDGE('',*,*,#201,.T.);
#271=ORIENTED_EDGE('',*,*,#199,.T.);
#272=ORIENTED_EDGE('',*,*,#202,.T.);
#273=ORIENTED_EDGE('',*,*,#191,.T.);
#274=ORIENTED_EDGE('',*,*,#203,.T.);
#275=ORIENTED_EDGE('',*,*,#187,.T.);
#276=ORIENTED_EDGE('',*,*,#204,.T.);
#277=ORIENTED_EDGE('',*,*,#204,.F.);
#278=ORIENTED_EDGE('',*,*,#183,.F.);
#279=ORIENTED_EDGE('',*,*,#174,.F.);
#280=ORIENTED_EDGE('',*,*,#167,.F.);
#281=ORIENTED_EDGE('',*,*,#205,.T.);
#282=ORIENTED_EDGE('',*,*,#206,.F.);
#283=ORIENTED_EDGE('',*,*,#207,.T.);
#284=ORIENTED_EDGE('',*,*,#189,.F.);
#285=ORIENTED_EDGE('',*,*,#200,.F.);
#286=ORIENTED_EDGE('',*,*,#197,.F.);
#287=ORIENTED_EDGE('',*,*,#208,.T.);
#288=ORIENTED_EDGE('',*,*,#209,.T.);
#289=ORIENTED_EDGE('',*,*,#208,.F.);
#290=ORIENTED_EDGE('',*,*,#196,.F.);
#291=ORIENTED_EDGE('',*,*,#201,.F.);
#292=ORIENTED_EDGE('',*,*,#193,.F.);
#293=ORIENTED_EDGE('',*,*,#195,.F.);
#294=ORIENTED_EDGE('',*,*,#185,.F.);
#295=ORIENTED_EDGE('',*,*,#203,.F.);
#296=ORIENTED_EDGE('',*,*,#190,.F.);
#297=ORIENTED_EDGE('',*,*,#207,.F.);
#298=ORIENTED_EDGE('',*,*,#178,.T.);
#299=ORIENTED_EDGE('',*,*,#181,.F.);
#300=ORIENTED_EDGE('',*,*,#202,.F.);
#301=ORIENTED_EDGE('',*,*,#171,.F.);
#302=ORIENTED_EDGE('',*,*,#210,.F.);
#303=ORIENTED_EDGE('',*,*,#210,.T.);
#304=ORIENTED_EDGE('',*,*,#211,.T.);
#305=ORIENTED_EDGE('',*,*,#212,.F.);
#306=ORIENTED_EDGE('',*,*,#211,.F.);
#307=ORIENTED_EDGE('',*,*,#209,.F.);
#308=ORIENTED_EDGE('',*,*,#212,.T.);
#309=ORIENTED_EDGE('',*,*,#206,.T.);
#310=ORIENTED_EDGE('',*,*,#213,.F.);
#311=ORIENTED_EDGE('',*,*,#213,.T.);
#312=ORIENTED_EDGE('',*,*,#214,.T.);
#313=ORIENTED_EDGE('',*,*,#205,.F.);
#314=ORIENTED_EDGE('',*,*,#214,.F.);
#315=B_SPLINE_SURFACE_WITH_KNOTS('',3,3,((#476,#477,#478,#479,#480,#481,
#482),(#483,#484,#485,#486,#487,#488,#489),(#490,#491,#492,#493,#494,#495,
#496),(#497,#498,#499,#500,#501,#502,#503),(#504,#505,#506,#507,#508,#509,
#510)),.UNSPECIFIED.,.F.,.F.,.F.,(4,1,4),(4,1,1,1,4),(0.,0.571428571428571,
1.),(0.376581233244914,0.545134528119687,0.71368782299446,0.938425549494157,
1.16316327599385),.UNSPECIFIED.);
#316=B_SPLINE_SURFACE_WITH_KNOTS('',3,3,((#535,#536,#537,#538,#539,#540),
(#541,#542,#543,#544,#545,#546),(#547,#548,#549,#550,#551,#552),(#553,#554,
#555,#556,#557,#558),(#559,#560,#561,#562,#563,#564)),.UNSPECIFIED.,.F.,
 .F.,.F.,(4,1,4),(4,1,1,4),(0.,0.571428571428571,1.),(3.17642726602657,
3.51353385577336,3.73827158227123,3.96300930876909),.UNSPECIFIED.);
#317=B_SPLINE_SURFACE_WITH_KNOTS('',3,3,((#605,#606,#607,#608,#609,#610),
(#611,#612,#613,#614,#615,#616),(#617,#618,#619,#620,#621,#622),(#623,#624,
#625,#626,#627,#628),(#629,#630,#631,#632,#633,#634)),.UNSPECIFIED.,.F.,
 .F.,.F.,(4,1,4),(4,1,1,4),(0.,0.571428571428571,1.),(0.376590610976623,
0.601328337328695,0.826066063680767,1.16317265320888),.UNSPECIFIED.);
#318=B_SPLINE_SURFACE_WITH_KNOTS('',3,3,((#652,#653,#654,#655,#656,#657),
(#658,#659,#660,#661,#662,#663),(#664,#665,#666,#667,#668,#669),(#670,#671,
#672,#673,#674,#675),(#676,#677,#678,#679,#680,#681)),.UNSPECIFIED.,.F.,
 .F.,.F.,(4,1,4),(4,1,1,4),(0.,0.571428571428571,1.),(3.17642726383731,
3.51353385336268,3.73827157971292,3.96300930606317),.UNSPECIFIED.);
#319=B_SPLINE_SURFACE_WITH_KNOTS('',3,3,((#699,#700,#701,#702,#703,#704),
(#705,#706,#707,#708,#709,#710),(#711,#712,#713,#714,#715,#716),(#717,#718,
#719,#720,#721,#722),(#723,#724,#725,#726,#727,#728),(#729,#730,#731,#732,
#733,#734)),.UNSPECIFIED.,.F.,.F.,.F.,(4,1,1,4),(4,1,1,4),(0.,0.285714285714286,
0.571428571428571,1.),(0.,0.337111456357592,0.561852427262653,0.786593398167714),
 .UNSPECIFIED.);
#320=B_SPLINE_SURFACE_WITH_KNOTS('',3,3,((#745,#746,#747,#748,#749,#750),
(#751,#752,#753,#754,#755,#756),(#757,#758,#759,#760,#761,#762),(#763,#764,
#765,#766,#767,#768),(#769,#770,#771,#772,#773,#774),(#775,#776,#777,#778,
#779,#780)),.UNSPECIFIED.,.F.,.F.,.F.,(4,1,1,4),(4,1,1,4),(0.,0.285714285714286,
0.571428571428571,1.),(2.13402212567321E-15,0.3371142616911,0.561857102818499,
0.786599943945897),.UNSPECIFIED.);
#321=B_SPLINE_SURFACE_WITH_KNOTS('',3,3,((#796,#797,#798,#799,#800,#801),
(#802,#803,#804,#805,#806,#807),(#808,#809,#810,#811,#812,#813),(#814,#815,
#816,#817,#818,#819),(#820,#821,#822,#823,#824,#825),(#826,#827,#828,#829,
#830,#831)),.UNSPECIFIED.,.F.,.F.,.F.,(4,1,1,4),(4,1,1,4),(0.,0.285714285714286,
0.571428571428571,1.),(2.36789754470747E-16,0.337114261691101,0.561857102818502,
0.786599943945903),.UNSPECIFIED.);
#322=B_SPLINE_SURFACE_WITH_KNOTS('',3,3,((#844,#845,#846,#847,#848,#849),
(#850,#851,#852,#853,#854,#855),(#856,#857,#858,#859,#860,#861),(#862,#863,
#864,#865,#866,#867),(#868,#869,#870,#871,#872,#873),(#874,#875,#876,#877,
#878,#879)),.UNSPECIFIED.,.F.,.F.,.F.,(4,1,1,4),(4,1,1,4),(0.,0.285714285714286,
0.571428571428571,1.),(2.69453860516901E-15,0.337111456357593,0.561852427262653,
0.786593398167713),.UNSPECIFIED.);
#323=ADVANCED_FACE('',(#47),#315,.F.);
#324=ADVANCED_FACE('',(#48),#316,.F.);
#325=ADVANCED_FACE('',(#49),#41,.F.);
#326=ADVANCED_FACE('',(#50),#317,.F.);
#327=ADVANCED_FACE('',(#51),#318,.F.);
#328=ADVANCED_FACE('',(#52),#319,.F.);
#329=ADVANCED_FACE('',(#53),#320,.F.);
#330=ADVANCED_FACE('',(#54),#321,.F.);
#331=ADVANCED_FACE('',(#55),#42,.T.);
#332=ADVANCED_FACE('',(#56),#322,.F.);
#333=ADVANCED_FACE('',(#57),#43,.T.);
#334=ADVANCED_FACE('',(#58),#23,.T.);
#335=ADVANCED_FACE('',(#59),#24,.T.);
#336=ADVANCED_FACE('',(#60,#15),#19,.T.);
#337=ADVANCED_FACE('',(#61),#44,.T.);
#338=ADVANCED_FACE('',(#62,#16),#20,.T.);
#339=ADVANCED_FACE('',(#63),#45,.F.);
#340=ADVANCED_FACE('',(#64,#17),#21,.T.);
#341=ADVANCED_FACE('',(#65,#18),#22,.T.);
#342=ADVANCED_FACE('',(#66),#46,.F.);
#343=CLOSED_SHELL('',(#323,#324,#325,#326,#327,#328,#329,#330,#331,#332,
#333,#334,#335,#336,#337,#338,#339,#340,#341,#342));
#344=DERIVED_UNIT_ELEMENT(#346,1.);
#345=DERIVED_UNIT_ELEMENT(#931,-3.);
#346=(
MASS_UNIT()
NAMED_UNIT(*)
SI_UNIT(.KILO.,.GRAM.)
);
#347=DERIVED_UNIT((#344,#345));
#348=MEASURE_REPRESENTATION_ITEM('density measure',
POSITIVE_RATIO_MEASURE(7850.),#347);
#349=PROPERTY_DEFINITION_REPRESENTATION(#354,#351);
#350=PROPERTY_DEFINITION_REPRESENTATION(#355,#352);
#351=REPRESENTATION('material name',(#353),#928);
#352=REPRESENTATION('density',(#348),#928);
#353=DESCRIPTIVE_REPRESENTATION_ITEM('\X2\AC15CCA0\X0\','\X2\AC15CCA0\X0\');
#354=PROPERTY_DEFINITION('material property','material name',#938);
#355=PROPERTY_DEFINITION('material property','density of part',#938);
#356=AXIS2_PLACEMENT_3D('',#475,#393,#394);
#357=AXIS2_PLACEMENT_3D('',#513,#395,#396);
#358=AXIS2_PLACEMENT_3D('',#567,#397,#398);
#359=AXIS2_PLACEMENT_3D('',#588,#399,#400);
#360=AXIS2_PLACEMENT_3D('',#591,#402,#403);
#361=AXIS2_PLACEMENT_3D('',#604,#405,#406);
#362=AXIS2_PLACEMENT_3D('',#636,#407,#408);
#363=AXIS2_PLACEMENT_3D('',#683,#409,#410);
#364=AXIS2_PLACEMENT_3D('',#743,#411,#412);
#365=AXIS2_PLACEMENT_3D('',#744,#413,#414);
#366=AXIS2_PLACEMENT_3D('',#782,#415,#416);
#367=AXIS2_PLACEMENT_3D('',#795,#417,#418);
#368=AXIS2_PLACEMENT_3D('',#833,#419,#420);
#369=AXIS2_PLACEMENT_3D('',#841,#421,#422);
#370=AXIS2_PLACEMENT_3D('',#842,#423,#424);
#371=AXIS2_PLACEMENT_3D('',#893,#426,#427);
#372=AXIS2_PLACEMENT_3D('',#894,#428,#429);
#373=AXIS2_PLACEMENT_3D('',#895,#430,#431);
#374=AXIS2_PLACEMENT_3D('',#897,#433,#434);
#375=AXIS2_PLACEMENT_3D('',#898,#435,#436);
#376=AXIS2_PLACEMENT_3D('',#899,#437,#438);
#377=AXIS2_PLACEMENT_3D('',#900,#439,#440);
#378=AXIS2_PLACEMENT_3D('',#901,#441,#442);
#379=AXIS2_PLACEMENT_3D('',#902,#443,#444);
#380=AXIS2_PLACEMENT_3D('',#903,#445,#446);
#381=AXIS2_PLACEMENT_3D('',#905,#447,#448);
#382=AXIS2_PLACEMENT_3D('',#906,#449,#450);
#383=AXIS2_PLACEMENT_3D('',#908,#451,#452);
#384=AXIS2_PLACEMENT_3D('',#912,#455,#456);
#385=AXIS2_PLACEMENT_3D('',#913,#457,#458);
#386=AXIS2_PLACEMENT_3D('',#915,#459,#460);
#387=AXIS2_PLACEMENT_3D('',#916,#461,#462);
#388=AXIS2_PLACEMENT_3D('',#919,#464,#465);
#389=AXIS2_PLACEMENT_3D('',#920,#466,#467);
#390=AXIS2_PLACEMENT_3D('',#921,#468,#469);
#391=AXIS2_PLACEMENT_3D('',#923,#470,#471);
#392=AXIS2_PLACEMENT_3D('',#924,#472,#473);
#393=DIRECTION('axis',(0.,0.,1.));
#394=DIRECTION('refdir',(1.,0.,0.));
#395=DIRECTION('center_axis',(1.,0.,0.));
#396=DIRECTION('ref_axis',(0.,0.989743318610787,0.142857142857145));
#397=DIRECTION('center_axis',(1.,0.,0.));
#398=DIRECTION('ref_axis',(0.,0.989743318610787,0.142857142857142));
#399=DIRECTION('center_axis',(1.,0.,0.));
#400=DIRECTION('ref_axis',(0.,1.,0.));
#401=DIRECTION('',(-1.,0.,0.));
#402=DIRECTION('center_axis',(1.,0.,0.));
#403=DIRECTION('ref_axis',(0.,0.,-1.));
#404=DIRECTION('',(1.,0.,0.));
#405=DIRECTION('center_axis',(1.,0.,0.));
#406=DIRECTION('ref_axis',(0.,0.,-1.));
#407=DIRECTION('center_axis',(-1.,1.02558009940459E-15,7.105427357601E-15));
#408=DIRECTION('ref_axis',(0.,-0.989743318610786,0.142857142857146));
#409=DIRECTION('center_axis',(-1.,0.,0.));
#410=DIRECTION('ref_axis',(0.,-0.989743318610787,0.142857142857143));
#411=DIRECTION('center_axis',(-1.,0.,0.));
#412=DIRECTION('ref_axis',(0.,0.,1.));
#413=DIRECTION('center_axis',(0.,-0.142857142857142,0.989743318610787));
#414=DIRECTION('ref_axis',(0.,0.989743318610787,0.142857142857142));
#415=DIRECTION('center_axis',(-1.,0.,0.));
#416=DIRECTION('ref_axis',(0.,-0.989743318610787,-0.142857142857144));
#417=DIRECTION('center_axis',(0.,0.142857142857144,0.989743318610787));
#418=DIRECTION('ref_axis',(-1.,0.,0.));
#419=DIRECTION('center_axis',(1.,0.,0.));
#420=DIRECTION('ref_axis',(0.,0.989743318610787,-0.142857142857142));
#421=DIRECTION('center_axis',(0.,-0.142857142857142,0.989743318610787));
#422=DIRECTION('ref_axis',(1.,0.,0.));
#423=DIRECTION('center_axis',(1.,0.,0.));
#424=DIRECTION('ref_axis',(0.,0.755928946018454,0.654653670707977));
#425=DIRECTION('',(-1.,0.,0.));
#426=DIRECTION('center_axis',(1.,0.,0.));
#427=DIRECTION('ref_axis',(0.,0.,1.));
#428=DIRECTION('center_axis',(0.,0.142857142857144,0.989743318610787));
#429=DIRECTION('ref_axis',(0.,-0.989743318610787,0.142857142857144));
#430=DIRECTION('center_axis',(-1.,0.,0.));
#431=DIRECTION('ref_axis',(0.,-0.75592894601845,0.654653670707983));
#432=DIRECTION('',(1.,0.,0.));
#433=DIRECTION('center_axis',(-1.,0.,0.));
#434=DIRECTION('ref_axis',(0.,0.,1.));
#435=DIRECTION('center_axis',(1.,0.,0.));
#436=DIRECTION('ref_axis',(0.,0.,1.));
#437=DIRECTION('center_axis',(-1.,0.,0.));
#438=DIRECTION('ref_axis',(0.,0.,1.));
#439=DIRECTION('center_axis',(1.,0.,0.));
#440=DIRECTION('ref_axis',(0.,0.,1.));
#441=DIRECTION('center_axis',(-1.,0.,0.));
#442=DIRECTION('ref_axis',(0.,0.,1.));
#443=DIRECTION('center_axis',(1.,0.,0.));
#444=DIRECTION('ref_axis',(0.,0.,1.));
#445=DIRECTION('center_axis',(-1.,0.,0.));
#446=DIRECTION('ref_axis',(0.,0.,1.));
#447=DIRECTION('center_axis',(1.,0.,0.));
#448=DIRECTION('ref_axis',(0.,0.,-1.));
#449=DIRECTION('center_axis',(1.,0.,0.));
#450=DIRECTION('ref_axis',(0.,1.,0.));
#451=DIRECTION('center_axis',(1.,0.,0.));
#452=DIRECTION('ref_axis',(0.,0.,-1.));
#453=DIRECTION('',(-1.,0.,0.));
#454=DIRECTION('',(-1.,0.,0.));
#455=DIRECTION('center_axis',(1.,0.,0.));
#456=DIRECTION('ref_axis',(0.,0.,-1.));
#457=DIRECTION('center_axis',(1.,0.,0.));
#458=DIRECTION('ref_axis',(0.,0.,-1.));
#459=DIRECTION('center_axis',(1.,0.,0.));
#460=DIRECTION('ref_axis',(0.,0.,-1.));
#461=DIRECTION('center_axis',(1.,0.,0.));
#462=DIRECTION('ref_axis',(0.,1.,0.));
#463=DIRECTION('',(-1.,0.,0.));
#464=DIRECTION('center_axis',(1.,0.,0.));
#465=DIRECTION('ref_axis',(0.,0.,-1.));
#466=DIRECTION('center_axis',(-1.,0.,0.));
#467=DIRECTION('ref_axis',(0.,0.,1.));
#468=DIRECTION('center_axis',(1.,0.,0.));
#469=DIRECTION('ref_axis',(0.,0.,-1.));
#470=DIRECTION('center_axis',(1.,0.,0.));
#471=DIRECTION('ref_axis',(0.,0.,-1.));
#472=DIRECTION('center_axis',(1.,0.,0.));
#473=DIRECTION('ref_axis',(0.,1.,0.));
#474=DIRECTION('',(-1.,0.,0.));
#475=CARTESIAN_POINT('',(0.,0.,0.));
#476=CARTESIAN_POINT('Ctrl Pts',(204.311946740903,-175.283985261806,78.9500032398085));
#477=CARTESIAN_POINT('Ctrl Pts',(204.311946740903,-175.352782789593,78.4733599855598));
#478=CARTESIAN_POINT('Ctrl Pts',(204.123545179132,-175.442764086093,77.5130994736882));
#479=CARTESIAN_POINT('Ctrl Pts',(203.206005381409,-175.441295842576,76.0856604830769));
#480=CARTESIAN_POINT('Ctrl Pts',(201.55804193227,-175.33120418709,74.9580945425642));
#481=CARTESIAN_POINT('Ctrl Pts',(200.061072495902,-175.283985261806,74.6642889540942));
#482=CARTESIAN_POINT('Ctrl Pts',(199.311946740903,-175.283985261806,74.6642889540942));
#483=CARTESIAN_POINT('Ctrl Pts',(203.563948490048,-175.283985261806,78.9500032398085));
#484=CARTESIAN_POINT('Ctrl Pts',(203.556214506861,-175.340619416403,78.5554274729949));
#485=CARTESIAN_POINT('Ctrl Pts',(203.390683163304,-175.42159201573,77.7696157196631));
#486=CARTESIAN_POINT('Ctrl Pts',(202.63477814151,-175.458155404764,76.5848441279184));
#487=CARTESIAN_POINT('Ctrl Pts',(201.249395932259,-175.410035372605,75.6037841099209));
#488=CARTESIAN_POINT('Ctrl Pts',(199.957862230121,-175.381090619486,75.3370546068468));
#489=CARTESIAN_POINT('Ctrl Pts',(199.311946740903,-175.381090619486,75.3370546068468));
#490=CARTESIAN_POINT('Ctrl Pts',(202.269512530467,-175.906502059927,79.039855800051));
#491=CARTESIAN_POINT('Ctrl Pts',(202.249468930426,-175.959471582879,78.7675886674001));
#492=CARTESIAN_POINT('Ctrl Pts',(202.12644118166,-176.040487305755,78.240843256775));
#493=CARTESIAN_POINT('Ctrl Pts',(201.64684018053,-176.098847549272,77.4125008071906));
#494=CARTESIAN_POINT('Ctrl Pts',(200.712923234486,-176.079049540605,76.6530601044495));
#495=CARTESIAN_POINT('Ctrl Pts',(199.779533345831,-176.058208844459,76.4320596773428));
#496=CARTESIAN_POINT('Ctrl Pts',(199.311946740903,-176.058208844459,76.4320596773428));
#497=CARTESIAN_POINT('Ctrl Pts',(201.811946740903,-177.203098854996,79.2270034272169));
#498=CARTESIAN_POINT('Ctrl Pts',(201.802955771916,-177.275244002025,78.9661522029079));
#499=CARTESIAN_POINT('Ctrl Pts',(201.703077511755,-177.373198939072,78.4488613322859));
#500=CARTESIAN_POINT('Ctrl Pts',(201.272516579934,-177.389387688078,77.6602060798731));
#501=CARTESIAN_POINT('Ctrl Pts',(200.467614664666,-177.293310261624,76.9918384277537));
#502=CARTESIAN_POINT('Ctrl Pts',(199.697339467553,-177.248540430516,76.8071460969514));
#503=CARTESIAN_POINT('Ctrl Pts',(199.311946740903,-177.248540430516,76.8071460969514));
#504=CARTESIAN_POINT('Ctrl Pts',(201.811946740903,-177.758343558333,79.3071460969514));
#505=CARTESIAN_POINT('Ctrl Pts',(201.811946740903,-177.838607340751,79.0291041986396));
#506=CARTESIAN_POINT('Ctrl Pts',(201.717745960017,-177.943585520001,78.4689522333808));
#507=CARTESIAN_POINT('Ctrl Pts',(201.258976061156,-177.941872569231,77.6362794888581));
#508=CARTESIAN_POINT('Ctrl Pts',(200.434994336587,-177.813432304497,76.9785326902256));
#509=CARTESIAN_POINT('Ctrl Pts',(199.686509618402,-177.758343558333,76.8071460969514));
#510=CARTESIAN_POINT('Ctrl Pts',(199.311946740903,-177.758343558333,76.8071460969514));
#511=CARTESIAN_POINT('',(199.311946740903,-175.283985261806,74.6642889540942));
#512=CARTESIAN_POINT('',(199.311946740903,-177.758343558333,76.8071460969514));
#513=CARTESIAN_POINT('Origin',(199.311946740903,-177.758343558333,74.3071460969513));
#514=CARTESIAN_POINT('',(201.811946740903,-177.758343558333,79.3071460969514));
#515=CARTESIAN_POINT('Ctrl Pts',(201.811946740903,-177.758343558333,79.3071460969513));
#516=CARTESIAN_POINT('Ctrl Pts',(201.811946740903,-177.918874159139,78.7510517834228));
#517=CARTESIAN_POINT('Ctrl Pts',(201.484813542138,-177.978842471641,77.8153828265604));
#518=CARTESIAN_POINT('Ctrl Pts',(200.433195194032,-177.810556615414,76.9792140888377));
#519=CARTESIAN_POINT('Ctrl Pts',(199.686518142782,-177.758343558333,76.8071460969513));
#520=CARTESIAN_POINT('Ctrl Pts',(199.311946740903,-177.758343558333,76.8071460969513));
#521=CARTESIAN_POINT('',(201.811946739254,-175.355584713182,75.2384657933853));
#522=CARTESIAN_POINT('Ctrl Pts',(201.811946740903,-175.355584713354,75.238465795018));
#523=CARTESIAN_POINT('Ctrl Pts',(201.811946740903,-175.392698506057,75.5914084895016));
#524=CARTESIAN_POINT('Ctrl Pts',(201.811946740903,-175.492611714831,76.0313881098355));
#525=CARTESIAN_POINT('Ctrl Pts',(201.811946740903,-176.239988360181,77.5696224011731));
#526=CARTESIAN_POINT('Ctrl Pts',(201.811946740903,-177.042052146646,78.3301290501818));
#527=CARTESIAN_POINT('Ctrl Pts',(201.811946740903,-177.754967209174,79.3025351487826));
#528=CARTESIAN_POINT('Ctrl Pts',(201.811946740903,-177.756655839069,79.304840298154));
#529=CARTESIAN_POINT('Ctrl Pts',(201.811946740903,-177.758343558333,79.3071460969514));
#530=CARTESIAN_POINT('Ctrl Pts',(201.811806881545,-175.355760938533,75.23863954775));
#531=CARTESIAN_POINT('Ctrl Pts',(201.704569710313,-175.350180571389,75.1854900945223));
#532=CARTESIAN_POINT('Ctrl Pts',(200.933506349317,-175.31150445354,74.8355188639884));
#533=CARTESIAN_POINT('Ctrl Pts',(200.061072495902,-175.283985261806,74.6642889540942));
#534=CARTESIAN_POINT('Ctrl Pts',(199.311946740903,-175.283985261806,74.6642889540942));
#535=CARTESIAN_POINT('Ctrl Pts',(124.311946740903,-175.283985261806,74.6642889540942));
#536=CARTESIAN_POINT('Ctrl Pts',(123.188258108414,-175.283985261806,74.6642889540942));
#537=CARTESIAN_POINT('Ctrl Pts',(121.325921553306,-175.382217725255,75.2271919109644));
#538=CARTESIAN_POINT('Ctrl Pts',(119.651837385854,-175.473161358634,77.0324716862309));
#539=CARTESIAN_POINT('Ctrl Pts',(119.311946740903,-175.375715298853,78.3144789008269));
#540=CARTESIAN_POINT('Ctrl Pts',(119.311946740903,-175.283985261806,78.9500032398085));
#541=CARTESIAN_POINT('Ctrl Pts',(124.311946740903,-175.381090619486,75.3370546068468));
#542=CARTESIAN_POINT('Ctrl Pts',(123.343073507083,-175.381090619486,75.3370546068468));
#543=CARTESIAN_POINT('Ctrl Pts',(121.741125179958,-175.441293654047,75.8518720669865));
#544=CARTESIAN_POINT('Ctrl Pts',(120.358942465061,-175.454031522571,77.3799393613713));
#545=CARTESIAN_POINT('Ctrl Pts',(120.070256969341,-175.359497467933,78.4239022174041));
#546=CARTESIAN_POINT('Ctrl Pts',(120.059944991758,-175.283985261806,78.9500032398085));
#547=CARTESIAN_POINT('Ctrl Pts',(124.311946740903,-176.058190238237,76.4320749063992));
#548=CARTESIAN_POINT('Ctrl Pts',(123.610566833516,-176.058190238237,76.4320749063992));
#549=CARTESIAN_POINT('Ctrl Pts',(122.463862894762,-176.101751625275,76.8644062686265));
#550=CARTESIAN_POINT('Ctrl Pts',(121.578606667558,-176.07601257125,77.984173320151));
#551=CARTESIAN_POINT('Ctrl Pts',(121.381125287962,-175.977099558541,78.6768288382885));
#552=CARTESIAN_POINT('Ctrl Pts',(121.354400487907,-175.90647352794,79.0398516818135));
#553=CARTESIAN_POINT('Ctrl Pts',(124.311946740903,-177.248540430516,76.8071460969514));
#554=CARTESIAN_POINT('Ctrl Pts',(123.733857650931,-177.248540430516,76.8071460969514));
#555=CARTESIAN_POINT('Ctrl Pts',(122.782085175856,-177.341778538462,77.1646543192594));
#556=CARTESIAN_POINT('Ctrl Pts',(121.993073177964,-177.408717865984,78.1928363751186));
#557=CARTESIAN_POINT('Ctrl Pts',(121.823934699553,-177.299292384366,78.8792017948141));
#558=CARTESIAN_POINT('Ctrl Pts',(121.811946740903,-177.203098854996,79.2270034272169));
#559=CARTESIAN_POINT('Ctrl Pts',(124.311946740903,-177.758343558333,76.8071460969514));
#560=CARTESIAN_POINT('Ctrl Pts',(123.750102424658,-177.758343558333,76.8071460969514));
#561=CARTESIAN_POINT('Ctrl Pts',(122.818934147105,-177.872948099023,77.1355061551257));
#562=CARTESIAN_POINT('Ctrl Pts',(121.981892063378,-177.979049004632,78.1885860240313));
#563=CARTESIAN_POINT('Ctrl Pts',(121.811946740903,-177.865361934888,78.9364235658788));
#564=CARTESIAN_POINT('Ctrl Pts',(121.811946740903,-177.758343558333,79.3071460969514));
#565=CARTESIAN_POINT('',(124.311946740903,-175.283985261806,74.6642889540942));
#566=CARTESIAN_POINT('',(124.311946740903,-177.758343558333,76.8071460969514));
#567=CARTESIAN_POINT('Origin',(124.311946740903,-177.758343558333,74.3071460969514));
#568=CARTESIAN_POINT('',(121.811946740904,-175.355584713354,75.238465795017));
#569=CARTESIAN_POINT('Ctrl Pts',(124.311946740903,-175.283985261806,74.6642889540942));
#570=CARTESIAN_POINT('Ctrl Pts',(123.43862359857,-175.283985261806,74.6642889540942));
#571=CARTESIAN_POINT('Ctrl Pts',(122.569097806513,-175.319586429952,74.8682948612444));
#572=CARTESIAN_POINT('Ctrl Pts',(121.813067804031,-175.357496655082,75.2405479092935));
#573=CARTESIAN_POINT('',(121.811946740903,-177.758343558333,79.3071460969514));
#574=CARTESIAN_POINT('Ctrl Pts',(121.811946740903,-177.758343558333,79.3071460969514));
#575=CARTESIAN_POINT('Ctrl Pts',(121.811946740903,-177.756655831052,79.3048402872016));
#576=CARTESIAN_POINT('Ctrl Pts',(121.811946740903,-177.754967217211,79.3025351597206));
#577=CARTESIAN_POINT('Ctrl Pts',(121.811946740903,-177.04205116172,78.3301277092513));
#578=CARTESIAN_POINT('Ctrl Pts',(121.811946740903,-176.239988172101,77.5696220140712));
#579=CARTESIAN_POINT('Ctrl Pts',(121.811946740903,-175.492611714832,76.031388109838));
#580=CARTESIAN_POINT('Ctrl Pts',(121.811946740903,-175.392698506057,75.5914084895045));
#581=CARTESIAN_POINT('Ctrl Pts',(121.811946740903,-175.355584713354,75.2384657950181));
#582=CARTESIAN_POINT('Ctrl Pts',(124.311946740903,-177.758343558333,76.8071460969514));
#583=CARTESIAN_POINT('Ctrl Pts',(123.75009431364,-177.758343558333,76.8071460969514));
#584=CARTESIAN_POINT('Ctrl Pts',(122.818901641021,-177.872950661441,77.1355039794522));
#585=CARTESIAN_POINT('Ctrl Pts',(121.981868542597,-177.979044872311,78.1886359271278));
#586=CARTESIAN_POINT('Ctrl Pts',(121.811946740903,-177.865363068288,78.9364196396657));
#587=CARTESIAN_POINT('Ctrl Pts',(121.811946740903,-177.758343558333,79.3071460969514));
#588=CARTESIAN_POINT('Origin',(161.811946740903,-160.437835482645,76.8071460969514));
#589=CARTESIAN_POINT('',(161.811946740903,-175.283985261806,74.6642889540942));
#590=CARTESIAN_POINT('',(201.811946740902,-145.520086251935,75.238465795017));
#591=CARTESIAN_POINT('Origin',(201.811946740903,-160.437835482645,76.8071460969514));
#592=CARTESIAN_POINT('',(199.311946740903,-145.591685703483,74.6642889540942));
#593=CARTESIAN_POINT('Ctrl Pts',(199.311946740903,-145.591685703483,74.6642889540942));
#594=CARTESIAN_POINT('Ctrl Pts',(200.1852703678,-145.591685703483,74.6642889540942));
#595=CARTESIAN_POINT('Ctrl Pts',(201.054794647019,-145.556082844153,74.8682971429079));
#596=CARTESIAN_POINT('Ctrl Pts',(201.810823628034,-145.518171705166,75.240551790155));
#597=CARTESIAN_POINT('',(124.311946740903,-145.591685703483,74.6642889540942));
#598=CARTESIAN_POINT('',(161.811946740903,-145.591685703483,74.6642889540942));
#599=CARTESIAN_POINT('',(121.811946742553,-145.520086252107,75.2384657933853));
#600=CARTESIAN_POINT('Ctrl Pts',(121.813066103959,-145.518176475727,75.2405446859467));
#601=CARTESIAN_POINT('Ctrl Pts',(122.569096954336,-145.55608594152,74.8682929664694));
#602=CARTESIAN_POINT('Ctrl Pts',(123.438624002271,-145.591685703483,74.6642889540942));
#603=CARTESIAN_POINT('Ctrl Pts',(124.311946740903,-145.591685703483,74.6642889540942));
#604=CARTESIAN_POINT('Origin',(121.811946740903,-160.437835482645,76.8071460969514));
#605=CARTESIAN_POINT('Ctrl Pts',(119.311946740903,-145.591685703483,78.9500032398086));
#606=CARTESIAN_POINT('Ctrl Pts',(119.311946740903,-145.499955666626,78.3144789021447));
#607=CARTESIAN_POINT('Ctrl Pts',(119.65183414653,-145.402510917443,77.0324693759198));
#608=CARTESIAN_POINT('Ctrl Pts',(121.325916985731,-145.493457029357,75.2271872024871));
#609=CARTESIAN_POINT('Ctrl Pts',(123.188258109143,-145.591685703483,74.6642889540942));
#610=CARTESIAN_POINT('Ctrl Pts',(124.311946740903,-145.591685703483,74.6642889540942));
#611=CARTESIAN_POINT('Ctrl Pts',(120.059944991758,-145.591685703483,78.9500032398086));
#612=CARTESIAN_POINT('Ctrl Pts',(120.07025696932,-145.516173497513,78.4239022184951));
#613=CARTESIAN_POINT('Ctrl Pts',(120.358938818465,-145.421638999892,77.3799317409147));
#614=CARTESIAN_POINT('Ctrl Pts',(121.741120156635,-145.434379688477,75.8518591924053));
#615=CARTESIAN_POINT('Ctrl Pts',(123.343073507713,-145.494580345803,75.3370546068468));
#616=CARTESIAN_POINT('Ctrl Pts',(124.311946740903,-145.494580345803,75.3370546068468));
#617=CARTESIAN_POINT('Ctrl Pts',(121.354411288388,-144.969213210804,79.0398494051113));
#618=CARTESIAN_POINT('Ctrl Pts',(121.381136088387,-144.89858718035,78.676826562339));
#619=CARTESIAN_POINT('Ctrl Pts',(121.578612642937,-144.79967427804,77.9841706873999));
#620=CARTESIAN_POINT('Ctrl Pts',(122.463865204942,-144.77393639707,76.8643996805763));
#621=CARTESIAN_POINT('Ctrl Pts',(123.610566833972,-144.817491013205,76.4320833255408));
#622=CARTESIAN_POINT('Ctrl Pts',(124.311946740903,-144.817491013205,76.4320833255408));
#623=CARTESIAN_POINT('Ctrl Pts',(121.811946740903,-143.672572110293,79.2270034272169));
#624=CARTESIAN_POINT('Ctrl Pts',(121.823934699528,-143.576378581123,78.8792017955353));
#625=CARTESIAN_POINT('Ctrl Pts',(121.993071028989,-143.466955094412,78.1928324108734));
#626=CARTESIAN_POINT('Ctrl Pts',(122.782081516041,-143.533896722897,77.1646471743539));
#627=CARTESIAN_POINT('Ctrl Pts',(123.733857651308,-143.627130534773,76.8071460969513));
#628=CARTESIAN_POINT('Ctrl Pts',(124.311946740903,-143.627130534773,76.8071460969513));
#629=CARTESIAN_POINT('Ctrl Pts',(121.811946740903,-143.117327406956,79.3071460969514));
#630=CARTESIAN_POINT('Ctrl Pts',(121.811946740903,-143.010309030623,78.9364235666475));
#631=CARTESIAN_POINT('Ctrl Pts',(121.981890443717,-142.896623489909,78.1885846763497));
#632=CARTESIAN_POINT('Ctrl Pts',(122.818931863317,-143.002727287142,77.1355034085137));
#633=CARTESIAN_POINT('Ctrl Pts',(123.750102425025,-143.117327406956,76.8071460969513));
#634=CARTESIAN_POINT('Ctrl Pts',(124.311946740903,-143.117327406956,76.8071460969513));
#635=CARTESIAN_POINT('',(124.311946740903,-143.117327406956,76.8071460969514));
#636=CARTESIAN_POINT('Origin',(124.311946740903,-143.117327406956,74.3071460969514));
#637=CARTESIAN_POINT('',(121.811946740903,-143.117327406956,79.3071460969514));
#638=CARTESIAN_POINT('Ctrl Pts',(121.811946740903,-143.117327406956,79.3071460969514));
#639=CARTESIAN_POINT('Ctrl Pts',(121.811946740903,-142.95679680615,78.7510517834227));
#640=CARTESIAN_POINT('Ctrl Pts',(122.139064629575,-142.896807920336,77.815376066166));
#641=CARTESIAN_POINT('Ctrl Pts',(123.190690119056,-143.065105938471,76.9792096292175));
#642=CARTESIAN_POINT('Ctrl Pts',(123.937375339024,-143.117327406956,76.8071460969514));
#643=CARTESIAN_POINT('Ctrl Pts',(124.311946740903,-143.117327406956,76.8071460969514));
#644=CARTESIAN_POINT('Ctrl Pts',(121.811946740903,-145.520086251935,75.238465795018));
#645=CARTESIAN_POINT('Ctrl Pts',(121.811946740903,-145.482972459232,75.5914084895009));
#646=CARTESIAN_POINT('Ctrl Pts',(121.811946740903,-145.383059250458,76.0313881098351));
#647=CARTESIAN_POINT('Ctrl Pts',(121.811946740903,-144.635682797712,77.5696220047604));
#648=CARTESIAN_POINT('Ctrl Pts',(121.811946740903,-143.833619827259,78.3301276769991));
#649=CARTESIAN_POINT('Ctrl Pts',(121.811946740903,-143.120703747887,79.30253515998));
#650=CARTESIAN_POINT('Ctrl Pts',(121.811946740903,-143.119015134431,79.3048402869361));
#651=CARTESIAN_POINT('Ctrl Pts',(121.811946740903,-143.117327406956,79.3071460969513));
#652=CARTESIAN_POINT('Ctrl Pts',(199.311946740903,-145.591685703483,74.6642889540942));
#653=CARTESIAN_POINT('Ctrl Pts',(200.435635372654,-145.591685703483,74.6642889540942));
#654=CARTESIAN_POINT('Ctrl Pts',(202.297966426848,-145.493448682782,75.2271975812398));
#655=CARTESIAN_POINT('Ctrl Pts',(203.972052191767,-145.402508025078,77.0324744644794));
#656=CARTESIAN_POINT('Ctrl Pts',(204.311946740903,-145.499955666628,78.3144789021612));
#657=CARTESIAN_POINT('Ctrl Pts',(204.311946740903,-145.591685703483,78.9500032398085));
#658=CARTESIAN_POINT('Ctrl Pts',(199.311946740903,-145.494580345803,75.3370546068468));
#659=CARTESIAN_POINT('Ctrl Pts',(200.280819974086,-145.494580345803,75.3370546068468));
#660=CARTESIAN_POINT('Ctrl Pts',(201.882762251599,-145.434374456286,75.8518875668234));
#661=CARTESIAN_POINT('Ctrl Pts',(203.264946623476,-145.421639969539,77.3799485339876));
#662=CARTESIAN_POINT('Ctrl Pts',(203.553636512487,-145.516173497514,78.4239022185087));
#663=CARTESIAN_POINT('Ctrl Pts',(203.563948490048,-145.591685703483,78.9500032398085));
#664=CARTESIAN_POINT('Ctrl Pts',(199.311946740903,-144.817468316055,76.4320647480891));
#665=CARTESIAN_POINT('Ctrl Pts',(200.013326647829,-144.817468316055,76.4320647480891));
#666=CARTESIAN_POINT('Ctrl Pts',(201.160033383913,-144.773898775177,76.8644142337669));
#667=CARTESIAN_POINT('Ctrl Pts',(202.045294007594,-144.799639243838,77.9841765162835));
#668=CARTESIAN_POINT('Ctrl Pts',(202.242781225471,-144.898552375069,78.6768315860584));
#669=CARTESIAN_POINT('Ctrl Pts',(202.269506025469,-144.969178405521,79.0398544288212));
#670=CARTESIAN_POINT('Ctrl Pts',(199.311946740903,-143.627130534773,76.8071460969514));
#671=CARTESIAN_POINT('Ctrl Pts',(199.890035830494,-143.627130534773,76.8071460969514));
#672=CARTESIAN_POINT('Ctrl Pts',(200.841803899809,-143.533887258484,77.16466292059));
#673=CARTESIAN_POINT('Ctrl Pts',(201.630817713492,-143.466950694869,78.1928411470453));
#674=CARTESIAN_POINT('Ctrl Pts',(201.799958782279,-143.576378581125,78.8792017955444));
#675=CARTESIAN_POINT('Ctrl Pts',(201.811946740903,-143.672572110293,79.2270034272169));
#676=CARTESIAN_POINT('Ctrl Pts',(199.311946740903,-143.117327406956,76.8071460969514));
#677=CARTESIAN_POINT('Ctrl Pts',(199.873791056778,-143.117327406956,76.8071460969514));
#678=CARTESIAN_POINT('Ctrl Pts',(200.804956583876,-143.002717549471,77.1355094627865));
#679=CARTESIAN_POINT('Ctrl Pts',(201.641999466335,-142.896620115484,78.1885876446761));
#680=CARTESIAN_POINT('Ctrl Pts',(201.811946740903,-143.010309030626,78.9364235666573));
#681=CARTESIAN_POINT('Ctrl Pts',(201.811946740903,-143.117327406956,79.3071460969514));
#682=CARTESIAN_POINT('',(199.311946740903,-143.117327406956,76.8071460969514));
#683=CARTESIAN_POINT('Origin',(199.311946740903,-143.117327406956,74.3071460969514));
#684=CARTESIAN_POINT('',(201.811946740903,-143.117327406956,79.3071460969514));
#685=CARTESIAN_POINT('Ctrl Pts',(201.811946740903,-143.117327406956,79.3071460969514));
#686=CARTESIAN_POINT('Ctrl Pts',(201.811946740903,-143.119015134431,79.304840286937));
#687=CARTESIAN_POINT('Ctrl Pts',(201.811946740903,-143.120703747888,79.3025351599792));
#688=CARTESIAN_POINT('Ctrl Pts',(201.811946740903,-143.833619827916,78.3301276761046));
#689=CARTESIAN_POINT('Ctrl Pts',(201.811946740903,-144.635682797837,77.569622004502));
#690=CARTESIAN_POINT('Ctrl Pts',(201.811946740903,-145.383059250458,76.0313881098363));
#691=CARTESIAN_POINT('Ctrl Pts',(201.811946740903,-145.482972459232,75.5914084895022));
#692=CARTESIAN_POINT('Ctrl Pts',(201.811946740903,-145.520086251935,75.2384657950181));
#693=CARTESIAN_POINT('Ctrl Pts',(199.311946740903,-143.117327406956,76.8071460969514));
#694=CARTESIAN_POINT('Ctrl Pts',(199.873799168166,-143.117327406956,76.8071460969514));
#695=CARTESIAN_POINT('Ctrl Pts',(200.804989030842,-143.00271485272,77.1355073507706));
#696=CARTESIAN_POINT('Ctrl Pts',(201.642022947624,-142.896624205821,78.1886375747721));
#697=CARTESIAN_POINT('Ctrl Pts',(201.811946740903,-143.010307897001,78.9364196396657));
#698=CARTESIAN_POINT('Ctrl Pts',(201.811946740903,-143.117327406956,79.3071460969514));
#699=CARTESIAN_POINT('Ctrl Pts',(199.311946740903,-143.117327406956,76.8071460969514));
#700=CARTESIAN_POINT('Ctrl Pts',(199.873799168166,-143.117327406956,76.8071460969514));
#701=CARTESIAN_POINT('Ctrl Pts',(200.804989030842,-143.00271485272,77.1355073507706));
#702=CARTESIAN_POINT('Ctrl Pts',(201.642022947624,-142.896624205821,78.1886375747721));
#703=CARTESIAN_POINT('Ctrl Pts',(201.811946740903,-143.010307897001,78.9364196396657));
#704=CARTESIAN_POINT('Ctrl Pts',(201.811946740903,-143.117327406956,79.3071460969514));
#705=CARTESIAN_POINT('Ctrl Pts',(199.311946740903,-142.70919790798,76.8071460969514));
#706=CARTESIAN_POINT('Ctrl Pts',(199.860442718069,-142.70919790798,76.8071460969514));
#707=CARTESIAN_POINT('Ctrl Pts',(200.779445524587,-142.611240182992,77.1146961277787));
#708=CARTESIAN_POINT('Ctrl Pts',(201.650019147653,-142.527615930476,78.1872486682097));
#709=CARTESIAN_POINT('Ctrl Pts',(201.819889625221,-142.642855346877,78.9733302651082));
#710=CARTESIAN_POINT('Ctrl Pts',(201.811946740903,-142.747164271398,79.360574543441));
#711=CARTESIAN_POINT('Ctrl Pts',(199.311946740903,-141.894630145868,76.6029963260491));
#712=CARTESIAN_POINT('Ctrl Pts',(199.87995523113,-141.894630145868,76.6029963260491));
#713=CARTESIAN_POINT('Ctrl Pts',(200.845594550888,-141.829686292405,76.9127903168966));
#714=CARTESIAN_POINT('Ctrl Pts',(201.820931241077,-141.790739327207,78.1125524563749));
#715=CARTESIAN_POINT('Ctrl Pts',(202.001989370937,-141.909042240554,79.021542219473));
#716=CARTESIAN_POINT('Ctrl Pts',(201.982912988872,-142.007975803752,79.4672672086352));
#717=CARTESIAN_POINT('Ctrl Pts',(199.311946740903,-140.800097969502,75.6165737776601));
#718=CARTESIAN_POINT('Ctrl Pts',(200.066098303156,-140.800097969502,75.6165737776601));
#719=CARTESIAN_POINT('Ctrl Pts',(201.342239919394,-140.755052712742,76.076344627523));
#720=CARTESIAN_POINT('Ctrl Pts',(202.601695002955,-140.745590673359,77.7540236400216));
#721=CARTESIAN_POINT('Ctrl Pts',(202.839477309837,-140.869594463551,79.0020988405242));
#722=CARTESIAN_POINT('Ctrl Pts',(202.819521027585,-140.967702091368,79.6174177856041));
#723=CARTESIAN_POINT('Ctrl Pts',(199.311946740903,-140.55551278922,74.5559184069181));
#724=CARTESIAN_POINT('Ctrl Pts',(200.296405284845,-140.55551278922,74.5559184069181));
#725=CARTESIAN_POINT('Ctrl Pts',(201.938388441336,-140.467473574489,75.2042051712671));
#726=CARTESIAN_POINT('Ctrl Pts',(203.45693108631,-140.405101932926,77.3527239458214));
#727=CARTESIAN_POINT('Ctrl Pts',(203.758559371552,-140.532570350689,78.8983628470081));
#728=CARTESIAN_POINT('Ctrl Pts',(203.750948052762,-140.642969110429,79.6642889540942));
#729=CARTESIAN_POINT('Ctrl Pts',(199.311946740903,-140.642969110429,73.9500032398085));
#730=CARTESIAN_POINT('Ctrl Pts',(200.435651595429,-140.642969110429,73.9500032398085));
#731=CARTESIAN_POINT('Ctrl Pts',(202.298031320781,-140.51198333416,74.7005432485381));
#732=CARTESIAN_POINT('Ctrl Pts',(203.972099154345,-140.39073688056,77.1076980462558));
#733=CARTESIAN_POINT('Ctrl Pts',(204.311946740903,-140.520661099052,78.8169141945842));
#734=CARTESIAN_POINT('Ctrl Pts',(204.311946740903,-140.642969110429,79.6642889540942));
#735=CARTESIAN_POINT('',(204.311946740903,-140.642969110429,79.6642889540942));
#736=CARTESIAN_POINT('',(199.311946740903,-140.642969110429,73.9500032398085));
#737=CARTESIAN_POINT('Ctrl Pts',(204.311946740903,-140.642969110429,79.6642889540942));
#738=CARTESIAN_POINT('Ctrl Pts',(204.311946740903,-140.520661099052,78.8169141945842));
#739=CARTESIAN_POINT('Ctrl Pts',(203.972099154345,-140.39073688056,77.1076980462558));
#740=CARTESIAN_POINT('Ctrl Pts',(202.298031320781,-140.51198333416,74.7005432485381));
#741=CARTESIAN_POINT('Ctrl Pts',(200.435651595429,-140.642969110429,73.9500032398085));
#742=CARTESIAN_POINT('Ctrl Pts',(199.311946740903,-140.642969110429,73.9500032398085));
#743=CARTESIAN_POINT('Origin',(199.311946740903,-143.117327406956,74.3071460969514));
#744=CARTESIAN_POINT('Origin',(204.311946740903,-143.117327406956,79.3071460969514));
#745=CARTESIAN_POINT('Ctrl Pts',(201.811946740903,-177.758343558333,79.3071460969513));
#746=CARTESIAN_POINT('Ctrl Pts',(201.811946740903,-177.918874159139,78.7510517834228));
#747=CARTESIAN_POINT('Ctrl Pts',(201.484813542138,-177.978842471641,77.8153828265604));
#748=CARTESIAN_POINT('Ctrl Pts',(200.433195194032,-177.810556615414,76.9792140888377));
#749=CARTESIAN_POINT('Ctrl Pts',(199.686518142782,-177.758343558333,76.8071460969513));
#750=CARTESIAN_POINT('Ctrl Pts',(199.311946740903,-177.758343558333,76.8071460969513));
#751=CARTESIAN_POINT('Ctrl Pts',(201.811946740903,-178.128506693891,79.360574543441));
#752=CARTESIAN_POINT('Ctrl Pts',(201.823861166527,-178.284971382711,78.7797032921578));
#753=CARTESIAN_POINT('Ctrl Pts',(201.480957663429,-178.352275211096,77.7979017655074));
#754=CARTESIAN_POINT('Ctrl Pts',(200.407318234709,-178.210265414106,76.9691223328005));
#755=CARTESIAN_POINT('Ctrl Pts',(199.677613768619,-178.16647305731,76.8071460969513));
#756=CARTESIAN_POINT('Ctrl Pts',(199.311946740903,-178.16647305731,76.8071460969513));
#757=CARTESIAN_POINT('Ctrl Pts',(201.982913997646,-178.867693519047,79.4672669715623));
#758=CARTESIAN_POINT('Ctrl Pts',(202.011528808865,-179.016095098784,78.7986739240484));
#759=CARTESIAN_POINT('Ctrl Pts',(201.62468404256,-179.097925652144,77.6659468103892));
#760=CARTESIAN_POINT('Ctrl Pts',(200.447352716147,-179.00815057815,76.7669539100634));
#761=CARTESIAN_POINT('Ctrl Pts',(199.690622218911,-178.981038411468,76.6029951822134));
#762=CARTESIAN_POINT('Ctrl Pts',(199.311946740903,-178.981038411468,76.6029951822134));
#763=CARTESIAN_POINT('Ctrl Pts',(202.819522431239,-179.907965910648,79.6174173578926));
#764=CARTESIAN_POINT('Ctrl Pts',(202.849457103722,-180.055128577004,78.6944312595427));
#765=CARTESIAN_POINT('Ctrl Pts',(202.35158790844,-180.149755632134,77.1383957084942));
#766=CARTESIAN_POINT('Ctrl Pts',(200.819240553652,-180.092558750431,75.8588631484032));
#767=CARTESIAN_POINT('Ctrl Pts',(199.814718632943,-180.075568642027,75.616572299283));
#768=CARTESIAN_POINT('Ctrl Pts',(199.311946740903,-180.075568642027,75.616572299283));
#769=CARTESIAN_POINT('Ctrl Pts',(203.750948052762,-180.23270185486,79.6642889540942));
#770=CARTESIAN_POINT('Ctrl Pts',(203.762365125955,-180.398301372524,78.5153902327782));
#771=CARTESIAN_POINT('Ctrl Pts',(203.166445912054,-180.480977879926,76.5841025778534));
#772=CARTESIAN_POINT('Ctrl Pts',(201.277654189704,-180.358707501886,74.8960446194349));
#773=CARTESIAN_POINT('Ctrl Pts',(199.968257898429,-180.320158176069,74.5559184069181));
#774=CARTESIAN_POINT('Ctrl Pts',(199.311946740903,-180.320158176069,74.5559184069181));
#775=CARTESIAN_POINT('Ctrl Pts',(204.311946740903,-180.23270185486,79.6642889540942));
#776=CARTESIAN_POINT('Ctrl Pts',(204.311946740903,-180.416165398638,78.3932162374579));
#777=CARTESIAN_POINT('Ctrl Pts',(203.657680343373,-180.484700612926,76.2545443360578));
#778=CARTESIAN_POINT('Ctrl Pts',(201.55444364716,-180.292373920095,74.3433015069775));
#779=CARTESIAN_POINT('Ctrl Pts',(200.061089544661,-180.23270185486,73.9500032398085));
#780=CARTESIAN_POINT('Ctrl Pts',(199.311946740903,-180.23270185486,73.9500032398085));
#781=CARTESIAN_POINT('',(199.311946740903,-180.23270185486,73.9500032398085));
#782=CARTESIAN_POINT('Origin',(199.311946740903,-177.758343558333,74.3071460969514));
#783=CARTESIAN_POINT('',(203.638759193716,-180.434829842488,76.8088006348016));
#784=CARTESIAN_POINT('Ctrl Pts',(199.311946740903,-180.23270185486,73.9500032398085));
#785=CARTESIAN_POINT('Ctrl Pts',(200.061089544661,-180.23270185486,73.9500032398085));
#786=CARTESIAN_POINT('Ctrl Pts',(201.55444364716,-180.292373920095,74.3433015069775));
#787=CARTESIAN_POINT('Ctrl Pts',(202.95546397371,-180.420487701335,75.6164297560876));
#788=CARTESIAN_POINT('Ctrl Pts',(203.515022106025,-180.435246819308,76.5628817108808));
#789=CARTESIAN_POINT('Ctrl Pts',(203.638467981434,-180.43456577194,76.8089459997468));
#790=CARTESIAN_POINT('',(204.311946740903,-180.23270185486,79.6642889540942));
#791=CARTESIAN_POINT('Ctrl Pts',(203.638467981434,-180.43456577194,76.8089459997468));
#792=CARTESIAN_POINT('Ctrl Pts',(204.073701060956,-180.432164603474,77.6764947764822));
#793=CARTESIAN_POINT('Ctrl Pts',(204.311946740903,-180.37562723702,78.6740728597238));
#794=CARTESIAN_POINT('Ctrl Pts',(204.311946740903,-180.23270185486,79.6642889540942));
#795=CARTESIAN_POINT('Origin',(204.311946740903,-177.758343558333,79.3071460969514));
#796=CARTESIAN_POINT('Ctrl Pts',(121.811946740903,-143.117327406956,79.3071460969514));
#797=CARTESIAN_POINT('Ctrl Pts',(121.811946740903,-142.95679680615,78.7510517834227));
#798=CARTESIAN_POINT('Ctrl Pts',(122.139064629575,-142.896807920336,77.815376066166));
#799=CARTESIAN_POINT('Ctrl Pts',(123.190690119056,-143.065105938471,76.9792096292175));
#800=CARTESIAN_POINT('Ctrl Pts',(123.937375339024,-143.117327406956,76.8071460969514));
#801=CARTESIAN_POINT('Ctrl Pts',(124.311946740903,-143.117327406956,76.8071460969514));
#802=CARTESIAN_POINT('Ctrl Pts',(121.811946740903,-142.747164271398,79.360574543441));
#803=CARTESIAN_POINT('Ctrl Pts',(121.800032315279,-142.590699582578,78.7797032921575));
#804=CARTESIAN_POINT('Ctrl Pts',(122.142913107336,-142.523375055543,77.7978927829599));
#805=CARTESIAN_POINT('Ctrl Pts',(123.216563480011,-142.665396758266,76.9691175074157));
#806=CARTESIAN_POINT('Ctrl Pts',(123.946279713188,-142.709197907979,76.8071460969514));
#807=CARTESIAN_POINT('Ctrl Pts',(124.311946740903,-142.709197907979,76.8071460969514));
#808=CARTESIAN_POINT('Ctrl Pts',(121.64098322144,-142.007971368131,79.467267848862));
#809=CARTESIAN_POINT('Ctrl Pts',(121.612368410221,-141.859569788394,78.7986748013477));
#810=CARTESIAN_POINT('Ctrl Pts',(121.99917994086,-141.777716165684,77.6659378365162));
#811=CARTESIAN_POINT('Ctrl Pts',(123.17652705432,-141.867502811426,76.7669521222889));
#812=CARTESIAN_POINT('Ctrl Pts',(123.933271262896,-141.894623643174,76.6029994210253));
#813=CARTESIAN_POINT('Ctrl Pts',(124.311946740903,-141.894623643174,76.6029994210253));
#814=CARTESIAN_POINT('Ctrl Pts',(120.804376255152,-140.967694059677,79.617418944879));
#815=CARTESIAN_POINT('Ctrl Pts',(120.774441582669,-140.82053139332,78.6944328465282));
#816=CARTESIAN_POINT('Ctrl Pts',(121.272271055654,-140.725880797133,77.1383853920555));
#817=CARTESIAN_POINT('Ctrl Pts',(122.804636825504,-140.783088153051,75.8588605554584));
#818=CARTESIAN_POINT('Ctrl Pts',(123.809174848863,-140.800086168932,75.6165777796792));
#819=CARTESIAN_POINT('Ctrl Pts',(124.311946740903,-140.800086168932,75.6165777796792));
#820=CARTESIAN_POINT('Ctrl Pts',(119.872945429044,-140.642969110429,79.6642889540942));
#821=CARTESIAN_POINT('Ctrl Pts',(119.861528355852,-140.477369592765,78.5153902327772));
#822=CARTESIAN_POINT('Ctrl Pts',(120.457412562186,-140.394667126774,76.5840887561918));
#823=CARTESIAN_POINT('Ctrl Pts',(122.346220635162,-140.516952553635,74.8960362992143));
#824=CARTESIAN_POINT('Ctrl Pts',(123.655635583377,-140.55551278922,74.5559184069181));
#825=CARTESIAN_POINT('Ctrl Pts',(124.311946740903,-140.55551278922,74.5559184069181));
#826=CARTESIAN_POINT('Ctrl Pts',(119.311946740903,-140.642969110429,79.6642889540942));
#827=CARTESIAN_POINT('Ctrl Pts',(119.311946740903,-140.459505566651,78.393216237457));
#828=CARTESIAN_POINT('Ctrl Pts',(119.966182518247,-140.390946840006,76.2545288837276));
#829=CARTESIAN_POINT('Ctrl Pts',(122.069433497209,-140.58328743216,74.3432913135596));
#830=CARTESIAN_POINT('Ctrl Pts',(123.562803937145,-140.642969110429,73.9500032398085));
#831=CARTESIAN_POINT('Ctrl Pts',(124.311946740903,-140.642969110429,73.9500032398085));
#832=CARTESIAN_POINT('',(124.311946740903,-140.642969110429,73.9500032398085));
#833=CARTESIAN_POINT('Origin',(124.311946740903,-143.117327406956,74.3071460969514));
#834=CARTESIAN_POINT('',(119.311946740903,-140.642969110429,79.6642889540942));
#835=CARTESIAN_POINT('Ctrl Pts',(124.311946740903,-140.642969110429,73.9500032398085));
#836=CARTESIAN_POINT('Ctrl Pts',(123.562803937145,-140.642969110429,73.9500032398085));
#837=CARTESIAN_POINT('Ctrl Pts',(122.069433497209,-140.58328743216,74.3432913135596));
#838=CARTESIAN_POINT('Ctrl Pts',(119.966182518247,-140.390946840006,76.2545288837276));
#839=CARTESIAN_POINT('Ctrl Pts',(119.311946740903,-140.459505566651,78.393216237457));
#840=CARTESIAN_POINT('Ctrl Pts',(119.311946740903,-140.642969110429,79.6642889540942));
#841=CARTESIAN_POINT('Origin',(119.311946740903,-143.117327406956,79.3071460969514));
#842=CARTESIAN_POINT('Origin',(161.811946740903,-143.117327406956,74.3071460969514));
#843=CARTESIAN_POINT('',(161.811946740903,-140.642969110429,73.9500032398085));
#844=CARTESIAN_POINT('Ctrl Pts',(124.311946740903,-177.758343558333,76.8071460969514));
#845=CARTESIAN_POINT('Ctrl Pts',(123.75009431364,-177.758343558333,76.8071460969514));
#846=CARTESIAN_POINT('Ctrl Pts',(122.818901641021,-177.872950661441,77.1355039794522));
#847=CARTESIAN_POINT('Ctrl Pts',(121.981868542597,-177.979044872311,78.1886359271278));
#848=CARTESIAN_POINT('Ctrl Pts',(121.811946740903,-177.865363068288,78.9364196396657));
#849=CARTESIAN_POINT('Ctrl Pts',(121.811946740903,-177.758343558333,79.3071460969514));
#850=CARTESIAN_POINT('Ctrl Pts',(124.311946740903,-178.16647305731,76.8071460969514));
#851=CARTESIAN_POINT('Ctrl Pts',(123.763450763737,-178.16647305731,76.8071460969514));
#852=CARTESIAN_POINT('Ctrl Pts',(122.844447810324,-178.264426009366,77.1146941422558));
#853=CARTESIAN_POINT('Ctrl Pts',(121.973873410712,-178.348053510307,78.187247766239));
#854=CARTESIAN_POINT('Ctrl Pts',(121.804003856585,-178.232815618412,78.9733302651082));
#855=CARTESIAN_POINT('Ctrl Pts',(121.811946740903,-178.128506693891,79.360574543441));
#856=CARTESIAN_POINT('Ctrl Pts',(124.311946740903,-178.981044093398,76.6029978831963));
#857=CARTESIAN_POINT('Ctrl Pts',(123.743938250676,-178.981044093398,76.6029978831963));
#858=CARTESIAN_POINT('Ctrl Pts',(122.778304180625,-179.045983980903,76.9127911911225));
#859=CARTESIAN_POINT('Ctrl Pts',(121.802964167226,-179.084933553442,78.1125533784627));
#860=CARTESIAN_POINT('Ctrl Pts',(121.621905483825,-178.966630957969,79.0215425418125));
#861=CARTESIAN_POINT('Ctrl Pts',(121.64098186589,-178.867697394771,79.4672675309749));
#862=CARTESIAN_POINT('Ctrl Pts',(124.311946740903,-180.075578929187,75.6165757908206));
#863=CARTESIAN_POINT('Ctrl Pts',(123.55779517865,-180.075578929187,75.6165757908206));
#864=CARTESIAN_POINT('Ctrl Pts',(122.281658764642,-180.120620315318,76.0763438413046));
#865=CARTESIAN_POINT('Ctrl Pts',(121.022200369374,-180.130084485859,77.7540238968351));
#866=CARTESIAN_POINT('Ctrl Pts',(120.784418083757,-180.006080540132,79.002099423416));
#867=CARTESIAN_POINT('Ctrl Pts',(120.804374366009,-179.907972912315,79.6174183684962));
#868=CARTESIAN_POINT('Ctrl Pts',(124.311946740903,-180.320158176069,74.5559184069181));
#869=CARTESIAN_POINT('Ctrl Pts',(123.327488196962,-180.320158176069,74.5559184069181));
#870=CARTESIAN_POINT('Ctrl Pts',(121.685502494686,-180.408193575133,75.2041997562048));
#871=CARTESIAN_POINT('Ctrl Pts',(120.166959865173,-180.470568674121,77.3527214410366));
#872=CARTESIAN_POINT('Ctrl Pts',(119.865334110255,-180.3431006146,78.8983628470078));
#873=CARTESIAN_POINT('Ctrl Pts',(119.872945429044,-180.23270185486,79.6642889540942));
#874=CARTESIAN_POINT('Ctrl Pts',(124.311946740903,-180.23270185486,73.9500032398085));
#875=CARTESIAN_POINT('Ctrl Pts',(123.188241886377,-180.23270185486,73.9500032398085));
#876=CARTESIAN_POINT('Ctrl Pts',(121.325856541139,-180.363681401269,74.7005355426674));
#877=CARTESIAN_POINT('Ctrl Pts',(119.651790344291,-180.484931927978,77.1076942802118));
#878=CARTESIAN_POINT('Ctrl Pts',(119.311946740903,-180.355009866237,78.8169141945839));
#879=CARTESIAN_POINT('Ctrl Pts',(119.311946740903,-180.23270185486,79.6642889540942));
#880=CARTESIAN_POINT('',(119.311946740903,-180.23270185486,79.6642889540942));
#881=CARTESIAN_POINT('',(119.983181934441,-180.438754587002,76.807834680802));
#882=CARTESIAN_POINT('Ctrl Pts',(119.311946740903,-180.23270185486,79.6642889540942));
#883=CARTESIAN_POINT('Ctrl Pts',(119.311946740903,-180.355009866237,78.8169141945839));
#884=CARTESIAN_POINT('Ctrl Pts',(119.510569102182,-180.430943108552,77.8179567566545));
#885=CARTESIAN_POINT('Ctrl Pts',(119.919869014267,-180.438829971125,76.9329862640506));
#886=CARTESIAN_POINT('Ctrl Pts',(119.983181934441,-180.438754587002,76.8078346808019));
#887=CARTESIAN_POINT('',(124.311946740903,-180.23270185486,73.9500032398085));
#888=CARTESIAN_POINT('Ctrl Pts',(119.983181934441,-180.438754587002,76.8078346808019));
#889=CARTESIAN_POINT('Ctrl Pts',(120.294713464065,-180.438383659057,76.192025710731));
#890=CARTESIAN_POINT('Ctrl Pts',(121.451682658889,-180.354832186539,74.6498282246806));
#891=CARTESIAN_POINT('Ctrl Pts',(123.188241886377,-180.23270185486,73.9500032398085));
#892=CARTESIAN_POINT('Ctrl Pts',(124.311946740903,-180.23270185486,73.9500032398085));
#893=CARTESIAN_POINT('Origin',(124.311946740903,-177.758343558333,74.3071460969514));
#894=CARTESIAN_POINT('Origin',(119.311946740903,-177.758343558333,79.3071460969514));
#895=CARTESIAN_POINT('Origin',(161.811946740903,-177.758343558333,74.3071460969514));
#896=CARTESIAN_POINT('',(161.811946740903,-180.23270185486,73.9500032398085));
#897=CARTESIAN_POINT('Origin',(119.311946740903,-160.437835482645,76.8071460969514));
#898=CARTESIAN_POINT('Origin',(119.311946740903,-160.437835482645,76.8071460969514));
#899=CARTESIAN_POINT('Origin',(121.811946740903,-160.437835482645,76.8071460969514));
#900=CARTESIAN_POINT('Origin',(204.311946740903,-160.437835482645,76.8071460969514));
#901=CARTESIAN_POINT('Origin',(204.311946740903,-160.437835482645,76.8071460969514));
#902=CARTESIAN_POINT('Origin',(201.811946740903,-160.437835482645,76.8071460969514));
#903=CARTESIAN_POINT('Origin',(201.811946740903,-145.437835482644,76.8071460969514));
#904=CARTESIAN_POINT('',(201.811946740903,-169.587835482644,76.8071460969514));
#905=CARTESIAN_POINT('Origin',(201.811946740903,-160.437835482645,76.8071460969514));
#906=CARTESIAN_POINT('Origin',(161.811946740903,-160.437835482645,76.8071460969514));
#907=CARTESIAN_POINT('',(206.811946740903,-180.437835482645,76.8071460969514));
#908=CARTESIAN_POINT('Origin',(206.811946740903,-160.437835482645,76.8071460969514));
#909=CARTESIAN_POINT('',(161.811946740903,-180.437835482645,76.8071460969514));
#910=CARTESIAN_POINT('',(116.811946740903,-180.437835482645,76.8071460969514));
#911=CARTESIAN_POINT('',(161.811946740903,-180.437835482645,76.8071460969514));
#912=CARTESIAN_POINT('Origin',(116.811946740903,-160.437835482645,76.8071460969514));
#913=CARTESIAN_POINT('Origin',(121.811946740903,-151.287835482645,76.8071460969514));
#914=CARTESIAN_POINT('',(121.811946740903,-169.587835482644,76.8071460969514));
#915=CARTESIAN_POINT('Origin',(121.811946740903,-160.437835482645,76.8071460969514));
#916=CARTESIAN_POINT('Origin',(119.311946740903,-160.437835482645,76.8071460969514));
#917=CARTESIAN_POINT('',(116.811946740903,-169.587835482644,76.8071460969514));
#918=CARTESIAN_POINT('',(119.311946740903,-169.587835482644,76.8071460969514));
#919=CARTESIAN_POINT('Origin',(116.811946740903,-160.437835482645,76.8071460969514));
#920=CARTESIAN_POINT('Origin',(116.811946740903,-140.437835482645,76.8071460969514));
#921=CARTESIAN_POINT('Origin',(206.811946740903,-151.287835482645,76.8071460969514));
#922=CARTESIAN_POINT('',(206.811946740903,-169.587835482644,76.8071460969514));
#923=CARTESIAN_POINT('Origin',(206.811946740903,-160.437835482645,76.8071460969514));
#924=CARTESIAN_POINT('Origin',(204.311946740903,-160.437835482645,76.8071460969514));
#925=CARTESIAN_POINT('',(204.311946740903,-169.587835482644,76.8071460969514));
#926=UNCERTAINTY_MEASURE_WITH_UNIT(LENGTH_MEASURE(0.01),#930,
'DISTANCE_ACCURACY_VALUE',
'Maximum model space distance between geometric entities at asserted c
onnectivities');
#927=UNCERTAINTY_MEASURE_WITH_UNIT(LENGTH_MEASURE(0.01),#930,
'DISTANCE_ACCURACY_VALUE',
'Maximum model space distance between geometric entities at asserted c
onnectivities');
#928=(
GEOMETRIC_REPRESENTATION_CONTEXT(3)
GLOBAL_UNCERTAINTY_ASSIGNED_CONTEXT((#926))
GLOBAL_UNIT_ASSIGNED_CONTEXT((#930,#932,#933))
REPRESENTATION_CONTEXT('','3D')
);
#929=(
GEOMETRIC_REPRESENTATION_CONTEXT(3)
GLOBAL_UNCERTAINTY_ASSIGNED_CONTEXT((#927))
GLOBAL_UNIT_ASSIGNED_CONTEXT((#930,#932,#933))
REPRESENTATION_CONTEXT('','3D')
);
#930=(
LENGTH_UNIT()
NAMED_UNIT(*)
SI_UNIT(.MILLI.,.METRE.)
);
#931=(
LENGTH_UNIT()
NAMED_UNIT(*)
SI_UNIT($,.METRE.)
);
#932=(
NAMED_UNIT(*)
PLANE_ANGLE_UNIT()
SI_UNIT($,.RADIAN.)
);
#933=(
NAMED_UNIT(*)
SI_UNIT($,.STERADIAN.)
SOLID_ANGLE_UNIT()
);
#934=SHAPE_DEFINITION_REPRESENTATION(#935,#936);
#935=PRODUCT_DEFINITION_SHAPE('',$,#938);
#936=SHAPE_REPRESENTATION('',(#356),#928);
#937=PRODUCT_DEFINITION_CONTEXT('part definition',#942,'design');
#938=PRODUCT_DEFINITION('2026-06-06-17-22-20-413','DRUM',#939,#937);
#939=PRODUCT_DEFINITION_FORMATION('',$,#944);
#940=PRODUCT_RELATED_PRODUCT_CATEGORY('DRUM','DRUM',(#944));
#941=APPLICATION_PROTOCOL_DEFINITION('international standard',
'automotive_design',2009,#942);
#942=APPLICATION_CONTEXT(
'Core Data for Automotive Mechanical Design Process');
#943=PRODUCT_CONTEXT('part definition',#942,'mechanical');
#944=PRODUCT('2026-06-06-17-22-20-413','DRUM',$,(#943));
#945=PRESENTATION_STYLE_ASSIGNMENT((#947));
#946=PRESENTATION_STYLE_ASSIGNMENT((#948));
#947=SURFACE_STYLE_USAGE(.BOTH.,#949);
#948=SURFACE_STYLE_USAGE(.BOTH.,#950);
#949=SURFACE_SIDE_STYLE('',(#951));
#950=SURFACE_SIDE_STYLE('',(#952));
#951=SURFACE_STYLE_FILL_AREA(#953);
#952=SURFACE_STYLE_FILL_AREA(#954);
#953=FILL_AREA_STYLE('\X2\AC15CCA0\X0\ - \X2\C0C8D2F4\X0\',(#955));
#954=FILL_AREA_STYLE('\X2\C54CB8E8BBF8B284\X0\ - \X2\D53CB9C9\X0\ \X2\CC98B9AC\X0\ 
\X2\AD11D0DD\X0\(\X2\D30CB780C0C9\X0\)',(#956));
#955=FILL_AREA_STYLE_COLOUR('\X2\AC15CCA0\X0\ - \X2\C0C8D2F4\X0\',#957);
#956=FILL_AREA_STYLE_COLOUR(
'\X2\C54CB8E8BBF8B284\X0\ - \X2\D53CB9C9\X0\ \X2\CC98B9AC\X0\ \X2\AD11D0DD\X0\(
\X2\D30CB780C0C9\X0\)',#958);
#957=COLOUR_RGB('\X2\AC15CCA0\X0\ - \X2\C0C8D2F4\X0\',0.627450980392157,
0.627450980392157,0.627450980392157);
#958=COLOUR_RGB('\X2\C54CB8E8BBF8B284\X0\ - \X2\D53CB9C9\X0\ \X2\CC98B9AC\X0\ 
\X2\AD11D0DD\X0\(\X2\D30CB780C0C9\X0\)',0.349019607843137,0.584313725490196,
0.854901960784314);
ENDSEC;
END-ISO-10303-21;
