ISO-10303-21;
HEADER;
/* Generated by software containing ST-Developer
 * from STEP Tools, Inc. (www.steptools.com) 
 */

FILE_DESCRIPTION(
/* description */ (''),
/* implementation_level */ '2;1');

FILE_NAME(
/* name */ 'ROD_BAR.step',
/* time_stamp */ '2026-05-25T19:22:22+09:00',
/* author */ (''),
/* organization */ (''),
/* preprocessor_version */ 'ST-DEVELOPER v20.1',
/* originating_system */ 'Autodesk Translation Framework v15.8.0.0',
/* authorisation */ '');

FILE_SCHEMA (('AUTOMOTIVE_DESIGN { 1 0 10303 214 3 1 1 }'));
ENDSEC;

DATA;
#10=MECHANICAL_DESIGN_GEOMETRIC_PRESENTATION_REPRESENTATION('',(#13),#459);
#11=SHAPE_REPRESENTATION_RELATIONSHIP('SRR','None',#466,#12);
#12=ADVANCED_BREP_SHAPE_REPRESENTATION('',(#14),#458);
#13=STYLED_ITEM('',(#476),#14);
#14=MANIFOLD_SOLID_BREP('\X2\BCF8CCB4\X0\1',#265);
#15=CYLINDRICAL_SURFACE('',#285,14.9999999999917);
#16=CYLINDRICAL_SURFACE('',#295,3.15);
#17=CYLINDRICAL_SURFACE('',#299,10.);
#18=CYLINDRICAL_SURFACE('',#303,9.);
#19=FACE_BOUND('',#97,.T.);
#20=FACE_BOUND('',#106,.T.);
#21=FACE_BOUND('',#109,.T.);
#22=FACE_BOUND('',#112,.T.);
#23=FACE_BOUND('',#115,.T.);
#24=LINE('',#396,#46);
#25=LINE('',#398,#47);
#26=LINE('',#400,#48);
#27=LINE('',#402,#49);
#28=LINE('',#404,#50);
#29=LINE('',#405,#51);
#30=LINE('',#409,#52);
#31=LINE('',#412,#53);
#32=LINE('',#414,#54);
#33=LINE('',#415,#55);
#34=LINE('',#418,#56);
#35=LINE('',#419,#57);
#36=LINE('',#422,#58);
#37=LINE('',#423,#59);
#38=LINE('',#426,#60);
#39=LINE('',#427,#61);
#40=LINE('',#430,#62);
#41=LINE('',#431,#63);
#42=LINE('',#433,#64);
#43=LINE('',#440,#65);
#44=LINE('',#447,#66);
#45=LINE('',#454,#67);
#46=VECTOR('',#320,10.);
#47=VECTOR('',#321,10.);
#48=VECTOR('',#322,10.);
#49=VECTOR('',#323,10.);
#50=VECTOR('',#324,10.);
#51=VECTOR('',#325,10.);
#52=VECTOR('',#330,14.9999999999917);
#53=VECTOR('',#333,10.);
#54=VECTOR('',#334,10.);
#55=VECTOR('',#335,10.);
#56=VECTOR('',#338,10.);
#57=VECTOR('',#339,10.);
#58=VECTOR('',#342,10.);
#59=VECTOR('',#343,10.);
#60=VECTOR('',#346,10.);
#61=VECTOR('',#347,10.);
#62=VECTOR('',#350,10.);
#63=VECTOR('',#351,10.);
#64=VECTOR('',#354,10.);
#65=VECTOR('',#363,3.15);
#66=VECTOR('',#372,10.);
#67=VECTOR('',#381,9.);
#68=PLANE('',#284);
#69=PLANE('',#287);
#70=PLANE('',#288);
#71=PLANE('',#289);
#72=PLANE('',#290);
#73=PLANE('',#291);
#74=PLANE('',#292);
#75=PLANE('',#293);
#76=PLANE('',#297);
#77=PLANE('',#301);
#78=PLANE('',#305);
#79=FACE_OUTER_BOUND('',#95,.T.);
#80=FACE_OUTER_BOUND('',#96,.T.);
#81=FACE_OUTER_BOUND('',#98,.T.);
#82=FACE_OUTER_BOUND('',#99,.T.);
#83=FACE_OUTER_BOUND('',#100,.T.);
#84=FACE_OUTER_BOUND('',#101,.T.);
#85=FACE_OUTER_BOUND('',#102,.T.);
#86=FACE_OUTER_BOUND('',#103,.T.);
#87=FACE_OUTER_BOUND('',#104,.T.);
#88=FACE_OUTER_BOUND('',#105,.T.);
#89=FACE_OUTER_BOUND('',#107,.T.);
#90=FACE_OUTER_BOUND('',#108,.T.);
#91=FACE_OUTER_BOUND('',#110,.T.);
#92=FACE_OUTER_BOUND('',#111,.T.);
#93=FACE_OUTER_BOUND('',#113,.T.);
#94=FACE_OUTER_BOUND('',#114,.T.);
#95=EDGE_LOOP('',(#182,#183,#184,#185,#186));
#96=EDGE_LOOP('',(#187));
#97=EDGE_LOOP('',(#188,#189,#190,#191,#192,#193));
#98=EDGE_LOOP('',(#194,#195,#196,#197,#198));
#99=EDGE_LOOP('',(#199,#200,#201,#202));
#100=EDGE_LOOP('',(#203,#204,#205,#206));
#101=EDGE_LOOP('',(#207,#208,#209,#210));
#102=EDGE_LOOP('',(#211,#212,#213,#214));
#103=EDGE_LOOP('',(#215,#216,#217,#218));
#104=EDGE_LOOP('',(#219,#220,#221,#222));
#105=EDGE_LOOP('',(#223,#224,#225,#226,#227,#228));
#106=EDGE_LOOP('',(#229));
#107=EDGE_LOOP('',(#230,#231,#232,#233));
#108=EDGE_LOOP('',(#234));
#109=EDGE_LOOP('',(#235));
#110=EDGE_LOOP('',(#236,#237,#238,#239));
#111=EDGE_LOOP('',(#240));
#112=EDGE_LOOP('',(#241));
#113=EDGE_LOOP('',(#242,#243,#244,#245));
#114=EDGE_LOOP('',(#246));
#115=EDGE_LOOP('',(#247));
#116=CIRCLE('',#280,14.9999999999917);
#117=CIRCLE('',#281,14.9999999999917);
#118=CIRCLE('',#282,2.5);
#119=CIRCLE('',#283,12.4999999999917);
#120=CIRCLE('',#286,14.9999999999833);
#121=CIRCLE('',#294,3.15);
#122=CIRCLE('',#296,3.15);
#123=CIRCLE('',#298,10.);
#124=CIRCLE('',#300,10.);
#125=CIRCLE('',#302,9.);
#126=CIRCLE('',#304,9.);
#127=VERTEX_POINT('',#386);
#128=VERTEX_POINT('',#387);
#129=VERTEX_POINT('',#390);
#130=VERTEX_POINT('',#394);
#131=VERTEX_POINT('',#395);
#132=VERTEX_POINT('',#397);
#133=VERTEX_POINT('',#399);
#134=VERTEX_POINT('',#401);
#135=VERTEX_POINT('',#403);
#136=VERTEX_POINT('',#407);
#137=VERTEX_POINT('',#411);
#138=VERTEX_POINT('',#413);
#139=VERTEX_POINT('',#417);
#140=VERTEX_POINT('',#421);
#141=VERTEX_POINT('',#425);
#142=VERTEX_POINT('',#429);
#143=VERTEX_POINT('',#435);
#144=VERTEX_POINT('',#438);
#145=VERTEX_POINT('',#442);
#146=VERTEX_POINT('',#445);
#147=VERTEX_POINT('',#449);
#148=VERTEX_POINT('',#452);
#149=EDGE_CURVE('',#127,#128,#116,.T.);
#150=EDGE_CURVE('',#128,#127,#117,.T.);
#151=EDGE_CURVE('',#127,#129,#118,.T.);
#152=EDGE_CURVE('',#129,#129,#119,.T.);
#153=EDGE_CURVE('',#130,#131,#24,.T.);
#154=EDGE_CURVE('',#131,#132,#25,.T.);
#155=EDGE_CURVE('',#132,#133,#26,.T.);
#156=EDGE_CURVE('',#133,#134,#27,.T.);
#157=EDGE_CURVE('',#134,#135,#28,.T.);
#158=EDGE_CURVE('',#135,#130,#29,.T.);
#159=EDGE_CURVE('',#136,#136,#120,.T.);
#160=EDGE_CURVE('',#136,#128,#30,.T.);
#161=EDGE_CURVE('',#130,#137,#31,.T.);
#162=EDGE_CURVE('',#137,#138,#32,.T.);
#163=EDGE_CURVE('',#131,#138,#33,.T.);
#164=EDGE_CURVE('',#135,#139,#34,.T.);
#165=EDGE_CURVE('',#139,#137,#35,.T.);
#166=EDGE_CURVE('',#134,#140,#36,.T.);
#167=EDGE_CURVE('',#140,#139,#37,.T.);
#168=EDGE_CURVE('',#133,#141,#38,.T.);
#169=EDGE_CURVE('',#141,#140,#39,.T.);
#170=EDGE_CURVE('',#132,#142,#40,.T.);
#171=EDGE_CURVE('',#142,#141,#41,.T.);
#172=EDGE_CURVE('',#138,#142,#42,.T.);
#173=EDGE_CURVE('',#143,#143,#121,.T.);
#174=EDGE_CURVE('',#144,#144,#122,.T.);
#175=EDGE_CURVE('',#144,#143,#43,.T.);
#176=EDGE_CURVE('',#145,#145,#123,.T.);
#177=EDGE_CURVE('',#146,#146,#124,.T.);
#178=EDGE_CURVE('',#146,#145,#44,.T.);
#179=EDGE_CURVE('',#147,#147,#125,.T.);
#180=EDGE_CURVE('',#148,#148,#126,.T.);
#181=EDGE_CURVE('',#148,#147,#45,.T.);
#182=ORIENTED_EDGE('',*,*,#149,.T.);
#183=ORIENTED_EDGE('',*,*,#150,.T.);
#184=ORIENTED_EDGE('',*,*,#151,.T.);
#185=ORIENTED_EDGE('',*,*,#152,.T.);
#186=ORIENTED_EDGE('',*,*,#151,.F.);
#187=ORIENTED_EDGE('',*,*,#152,.F.);
#188=ORIENTED_EDGE('',*,*,#153,.T.);
#189=ORIENTED_EDGE('',*,*,#154,.T.);
#190=ORIENTED_EDGE('',*,*,#155,.T.);
#191=ORIENTED_EDGE('',*,*,#156,.T.);
#192=ORIENTED_EDGE('',*,*,#157,.T.);
#193=ORIENTED_EDGE('',*,*,#158,.T.);
#194=ORIENTED_EDGE('',*,*,#159,.F.);
#195=ORIENTED_EDGE('',*,*,#160,.T.);
#196=ORIENTED_EDGE('',*,*,#149,.F.);
#197=ORIENTED_EDGE('',*,*,#150,.F.);
#198=ORIENTED_EDGE('',*,*,#160,.F.);
#199=ORIENTED_EDGE('',*,*,#153,.F.);
#200=ORIENTED_EDGE('',*,*,#161,.T.);
#201=ORIENTED_EDGE('',*,*,#162,.T.);
#202=ORIENTED_EDGE('',*,*,#163,.F.);
#203=ORIENTED_EDGE('',*,*,#158,.F.);
#204=ORIENTED_EDGE('',*,*,#164,.T.);
#205=ORIENTED_EDGE('',*,*,#165,.T.);
#206=ORIENTED_EDGE('',*,*,#161,.F.);
#207=ORIENTED_EDGE('',*,*,#157,.F.);
#208=ORIENTED_EDGE('',*,*,#166,.T.);
#209=ORIENTED_EDGE('',*,*,#167,.T.);
#210=ORIENTED_EDGE('',*,*,#164,.F.);
#211=ORIENTED_EDGE('',*,*,#156,.F.);
#212=ORIENTED_EDGE('',*,*,#168,.T.);
#213=ORIENTED_EDGE('',*,*,#169,.T.);
#214=ORIENTED_EDGE('',*,*,#166,.F.);
#215=ORIENTED_EDGE('',*,*,#155,.F.);
#216=ORIENTED_EDGE('',*,*,#170,.T.);
#217=ORIENTED_EDGE('',*,*,#171,.T.);
#218=ORIENTED_EDGE('',*,*,#168,.F.);
#219=ORIENTED_EDGE('',*,*,#154,.F.);
#220=ORIENTED_EDGE('',*,*,#163,.T.);
#221=ORIENTED_EDGE('',*,*,#172,.T.);
#222=ORIENTED_EDGE('',*,*,#170,.F.);
#223=ORIENTED_EDGE('',*,*,#172,.F.);
#224=ORIENTED_EDGE('',*,*,#162,.F.);
#225=ORIENTED_EDGE('',*,*,#165,.F.);
#226=ORIENTED_EDGE('',*,*,#167,.F.);
#227=ORIENTED_EDGE('',*,*,#169,.F.);
#228=ORIENTED_EDGE('',*,*,#171,.F.);
#229=ORIENTED_EDGE('',*,*,#173,.F.);
#230=ORIENTED_EDGE('',*,*,#174,.F.);
#231=ORIENTED_EDGE('',*,*,#175,.T.);
#232=ORIENTED_EDGE('',*,*,#173,.T.);
#233=ORIENTED_EDGE('',*,*,#175,.F.);
#234=ORIENTED_EDGE('',*,*,#159,.T.);
#235=ORIENTED_EDGE('',*,*,#176,.F.);
#236=ORIENTED_EDGE('',*,*,#177,.F.);
#237=ORIENTED_EDGE('',*,*,#178,.T.);
#238=ORIENTED_EDGE('',*,*,#176,.T.);
#239=ORIENTED_EDGE('',*,*,#178,.F.);
#240=ORIENTED_EDGE('',*,*,#177,.T.);
#241=ORIENTED_EDGE('',*,*,#179,.F.);
#242=ORIENTED_EDGE('',*,*,#180,.F.);
#243=ORIENTED_EDGE('',*,*,#181,.T.);
#244=ORIENTED_EDGE('',*,*,#179,.T.);
#245=ORIENTED_EDGE('',*,*,#181,.F.);
#246=ORIENTED_EDGE('',*,*,#180,.T.);
#247=ORIENTED_EDGE('',*,*,#174,.T.);
#248=TOROIDAL_SURFACE('',#279,12.4999999999917,2.5);
#249=ADVANCED_FACE('',(#79),#248,.T.);
#250=ADVANCED_FACE('',(#80,#19),#68,.T.);
#251=ADVANCED_FACE('',(#81),#15,.T.);
#252=ADVANCED_FACE('',(#82),#69,.F.);
#253=ADVANCED_FACE('',(#83),#70,.F.);
#254=ADVANCED_FACE('',(#84),#71,.F.);
#255=ADVANCED_FACE('',(#85),#72,.F.);
#256=ADVANCED_FACE('',(#86),#73,.F.);
#257=ADVANCED_FACE('',(#87),#74,.F.);
#258=ADVANCED_FACE('',(#88,#20),#75,.T.);
#259=ADVANCED_FACE('',(#89),#16,.F.);
#260=ADVANCED_FACE('',(#90,#21),#76,.T.);
#261=ADVANCED_FACE('',(#91),#17,.T.);
#262=ADVANCED_FACE('',(#92,#22),#77,.T.);
#263=ADVANCED_FACE('',(#93),#18,.T.);
#264=ADVANCED_FACE('',(#94,#23),#78,.T.);
#265=CLOSED_SHELL('',(#249,#250,#251,#252,#253,#254,#255,#256,#257,#258,
#259,#260,#261,#262,#263,#264));
#266=DERIVED_UNIT_ELEMENT(#268,1.);
#267=DERIVED_UNIT_ELEMENT(#461,-3.);
#268=(
MASS_UNIT()
NAMED_UNIT(*)
SI_UNIT(.KILO.,.GRAM.)
);
#269=DERIVED_UNIT((#266,#267));
#270=MEASURE_REPRESENTATION_ITEM('density measure',
POSITIVE_RATIO_MEASURE(7850.),#269);
#271=PROPERTY_DEFINITION_REPRESENTATION(#276,#273);
#272=PROPERTY_DEFINITION_REPRESENTATION(#277,#274);
#273=REPRESENTATION('material name',(#275),#458);
#274=REPRESENTATION('density',(#270),#458);
#275=DESCRIPTIVE_REPRESENTATION_ITEM('\X2\AC15CCA0\X0\','\X2\AC15CCA0\X0\');
#276=PROPERTY_DEFINITION('material property','material name',#468);
#277=PROPERTY_DEFINITION('material property','density of part',#468);
#278=AXIS2_PLACEMENT_3D('',#384,#306,#307);
#279=AXIS2_PLACEMENT_3D('',#385,#308,#309);
#280=AXIS2_PLACEMENT_3D('',#388,#310,#311);
#281=AXIS2_PLACEMENT_3D('',#389,#312,#313);
#282=AXIS2_PLACEMENT_3D('',#391,#314,#315);
#283=AXIS2_PLACEMENT_3D('',#392,#316,#317);
#284=AXIS2_PLACEMENT_3D('',#393,#318,#319);
#285=AXIS2_PLACEMENT_3D('',#406,#326,#327);
#286=AXIS2_PLACEMENT_3D('',#408,#328,#329);
#287=AXIS2_PLACEMENT_3D('',#410,#331,#332);
#288=AXIS2_PLACEMENT_3D('',#416,#336,#337);
#289=AXIS2_PLACEMENT_3D('',#420,#340,#341);
#290=AXIS2_PLACEMENT_3D('',#424,#344,#345);
#291=AXIS2_PLACEMENT_3D('',#428,#348,#349);
#292=AXIS2_PLACEMENT_3D('',#432,#352,#353);
#293=AXIS2_PLACEMENT_3D('',#434,#355,#356);
#294=AXIS2_PLACEMENT_3D('',#436,#357,#358);
#295=AXIS2_PLACEMENT_3D('',#437,#359,#360);
#296=AXIS2_PLACEMENT_3D('',#439,#361,#362);
#297=AXIS2_PLACEMENT_3D('',#441,#364,#365);
#298=AXIS2_PLACEMENT_3D('',#443,#366,#367);
#299=AXIS2_PLACEMENT_3D('',#444,#368,#369);
#300=AXIS2_PLACEMENT_3D('',#446,#370,#371);
#301=AXIS2_PLACEMENT_3D('',#448,#373,#374);
#302=AXIS2_PLACEMENT_3D('',#450,#375,#376);
#303=AXIS2_PLACEMENT_3D('',#451,#377,#378);
#304=AXIS2_PLACEMENT_3D('',#453,#379,#380);
#305=AXIS2_PLACEMENT_3D('',#455,#382,#383);
#306=DIRECTION('axis',(0.,0.,1.));
#307=DIRECTION('refdir',(1.,0.,0.));
#308=DIRECTION('center_axis',(1.,0.,0.));
#309=DIRECTION('ref_axis',(0.,0.,-1.));
#310=DIRECTION('center_axis',(-1.,0.,0.));
#311=DIRECTION('ref_axis',(0.,-1.,1.83697019872103E-16));
#312=DIRECTION('center_axis',(-1.,0.,0.));
#313=DIRECTION('ref_axis',(0.,-1.,1.83697019872103E-16));
#314=DIRECTION('center_axis',(0.,-1.,0.));
#315=DIRECTION('ref_axis',(0.,0.,1.));
#316=DIRECTION('center_axis',(1.,0.,0.));
#317=DIRECTION('ref_axis',(0.,-1.,1.83697019872103E-16));
#318=DIRECTION('center_axis',(-1.,0.,0.));
#319=DIRECTION('ref_axis',(0.,0.,1.));
#320=DIRECTION('',(0.,0.866025403784437,-0.500000000000003));
#321=DIRECTION('',(0.,0.866025403784433,0.50000000000001));
#322=DIRECTION('',(0.,1.97012595163092E-77,1.));
#323=DIRECTION('',(0.,-0.866025403784439,0.499999999999999));
#324=DIRECTION('',(0.,-0.866025403784435,-0.500000000000006));
#325=DIRECTION('',(0.,-1.97012595163092E-77,-1.));
#326=DIRECTION('center_axis',(1.,0.,0.));
#327=DIRECTION('ref_axis',(0.,1.,0.));
#328=DIRECTION('center_axis',(1.,0.,0.));
#329=DIRECTION('ref_axis',(0.,0.,-1.));
#330=DIRECTION('',(-1.,0.,0.));
#331=DIRECTION('center_axis',(4.26983489983615E-32,-0.500000000000003,-0.866025403784437));
#332=DIRECTION('ref_axis',(2.46519032881571E-32,0.866025403784437,-0.500000000000003));
#333=DIRECTION('',(1.,0.,4.93038065763132E-32));
#334=DIRECTION('',(2.46519032881571E-32,0.866025403784437,-0.500000000000003));
#335=DIRECTION('',(1.,0.,4.93038065763132E-32));
#336=DIRECTION('center_axis',(-9.71347088501859E-109,-1.,1.97012595163092E-77));
#337=DIRECTION('ref_axis',(4.93038065763132E-32,-1.97012595163092E-77,-1.));
#338=DIRECTION('',(1.,0.,4.93038065763132E-32));
#339=DIRECTION('',(4.93038065763132E-32,-1.97012595163092E-77,-1.));
#340=DIRECTION('center_axis',(-4.26983489983614E-32,-0.500000000000006,
0.866025403784435));
#341=DIRECTION('ref_axis',(2.46519032881565E-32,-0.866025403784435,-0.500000000000006));
#342=DIRECTION('',(1.,0.,4.93038065763132E-32));
#343=DIRECTION('',(2.46519032881565E-32,-0.866025403784435,-0.500000000000006));
#344=DIRECTION('center_axis',(-4.26983489983616E-32,0.499999999999999,0.866025403784439));
#345=DIRECTION('ref_axis',(-2.46519032881569E-32,-0.866025403784439,0.499999999999999));
#346=DIRECTION('',(1.,0.,4.93038065763132E-32));
#347=DIRECTION('',(-2.46519032881569E-32,-0.866025403784439,0.499999999999999));
#348=DIRECTION('center_axis',(9.71347088501859E-109,1.,-1.97012595163092E-77));
#349=DIRECTION('ref_axis',(-4.93038065763132E-32,1.97012595163092E-77,1.));
#350=DIRECTION('',(1.,0.,4.93038065763132E-32));
#351=DIRECTION('',(-4.93038065763132E-32,1.97012595163092E-77,1.));
#352=DIRECTION('center_axis',(4.26983489983613E-32,0.50000000000001,-0.866025403784433));
#353=DIRECTION('ref_axis',(-2.46519032881568E-32,0.866025403784433,0.50000000000001));
#354=DIRECTION('',(-2.46519032881568E-32,0.866025403784433,0.50000000000001));
#355=DIRECTION('center_axis',(-1.,3.99589015217624E-46,-4.93038065763132E-32));
#356=DIRECTION('ref_axis',(-3.99589015217624E-46,-1.,0.));
#357=DIRECTION('center_axis',(-1.,3.99589015217624E-46,-4.93038065763132E-32));
#358=DIRECTION('ref_axis',(0.,1.,0.));
#359=DIRECTION('center_axis',(-1.,0.,0.));
#360=DIRECTION('ref_axis',(0.,1.,0.));
#361=DIRECTION('center_axis',(-1.,0.,0.));
#362=DIRECTION('ref_axis',(0.,1.,0.));
#363=DIRECTION('',(-1.,0.,0.));
#364=DIRECTION('center_axis',(1.,0.,0.));
#365=DIRECTION('ref_axis',(0.,0.,-1.));
#366=DIRECTION('center_axis',(1.,0.,0.));
#367=DIRECTION('ref_axis',(0.,0.,-1.));
#368=DIRECTION('center_axis',(1.,0.,0.));
#369=DIRECTION('ref_axis',(0.,1.,0.));
#370=DIRECTION('center_axis',(1.,0.,0.));
#371=DIRECTION('ref_axis',(0.,0.,-1.));
#372=DIRECTION('',(-1.,0.,0.));
#373=DIRECTION('center_axis',(1.,0.,0.));
#374=DIRECTION('ref_axis',(0.,0.,-1.));
#375=DIRECTION('center_axis',(1.,0.,0.));
#376=DIRECTION('ref_axis',(0.,0.,-1.));
#377=DIRECTION('center_axis',(1.,0.,0.));
#378=DIRECTION('ref_axis',(0.,1.,0.));
#379=DIRECTION('center_axis',(1.,0.,0.));
#380=DIRECTION('ref_axis',(0.,0.,-1.));
#381=DIRECTION('',(-1.,0.,0.));
#382=DIRECTION('center_axis',(1.,0.,0.));
#383=DIRECTION('ref_axis',(0.,0.,-1.));
#384=CARTESIAN_POINT('',(0.,0.,0.));
#385=CARTESIAN_POINT('Origin',(24.0701042220273,-142.000883686532,0.));
#386=CARTESIAN_POINT('',(24.0701042220273,-142.000883686532,14.9999999999917));
#387=CARTESIAN_POINT('',(24.0701042220273,-157.000883686524,-1.83697019872001E-15));
#388=CARTESIAN_POINT('Origin',(24.0701042220273,-142.000883686532,0.));
#389=CARTESIAN_POINT('Origin',(24.0701042220273,-142.000883686532,0.));
#390=CARTESIAN_POINT('',(21.5701042220273,-142.000883686532,12.4999999999917));
#391=CARTESIAN_POINT('Origin',(24.0701042220273,-142.000883686532,12.4999999999917));
#392=CARTESIAN_POINT('Origin',(21.5701042220273,-142.000883686532,0.));
#393=CARTESIAN_POINT('Origin',(21.5701042220273,-127.000883686532,0.));
#394=CARTESIAN_POINT('',(21.5701042220273,-147.000883686532,-2.88675134594812));
#395=CARTESIAN_POINT('',(21.5701042220273,-142.000883686532,-5.77350269189629));
#396=CARTESIAN_POINT('',(21.5701042220273,-140.125883686532,-6.85603444662681));
#397=CARTESIAN_POINT('',(21.5701042220273,-137.000883686532,-2.88675134594811));
#398=CARTESIAN_POINT('',(21.5701042220273,-135.125883686532,-1.80421959121754));
#399=CARTESIAN_POINT('',(21.5701042220273,-137.000883686532,2.8867513459481));
#400=CARTESIAN_POINT('',(21.5701042220273,-137.000883686532,-1.44337567297406));
#401=CARTESIAN_POINT('',(21.5701042220273,-142.000883686532,5.77350269189625));
#402=CARTESIAN_POINT('',(21.5701042220273,-132.625883686532,0.360843918243497));
#403=CARTESIAN_POINT('',(21.5701042220273,-147.000883686532,2.88675134594812));
#404=CARTESIAN_POINT('',(21.5701042220273,-137.625883686532,8.29941011960089));
#405=CARTESIAN_POINT('',(21.5701042220273,-147.000883686532,1.44337567297406));
#406=CARTESIAN_POINT('Origin',(24.0701042220273,-142.000883686532,0.));
#407=CARTESIAN_POINT('',(26.5701042220273,-157.000883686524,-1.83697019872001E-15));
#408=CARTESIAN_POINT('Origin',(26.5701042220273,-142.000883686532,0.));
#409=CARTESIAN_POINT('',(24.0701042220273,-157.000883686524,-1.83697019872001E-15));
#410=CARTESIAN_POINT('Origin',(21.5701042220273,-147.000883686532,-2.88675134594812));
#411=CARTESIAN_POINT('',(61.5701042220273,-147.000883686532,-2.88675134594812));
#412=CARTESIAN_POINT('',(21.5701042220273,-147.000883686532,-2.88675134594812));
#413=CARTESIAN_POINT('',(61.5701042220273,-142.000883686532,-5.77350269189629));
#414=CARTESIAN_POINT('',(61.5701042220273,-142.000883686532,-5.77350269189629));
#415=CARTESIAN_POINT('',(21.5701042220273,-142.000883686532,-5.77350269189629));
#416=CARTESIAN_POINT('Origin',(21.5701042220273,-147.000883686532,2.88675134594812));
#417=CARTESIAN_POINT('',(61.5701042220273,-147.000883686532,2.88675134594812));
#418=CARTESIAN_POINT('',(21.5701042220273,-147.000883686532,2.88675134594812));
#419=CARTESIAN_POINT('',(61.5701042220273,-147.000883686532,-2.88675134594812));
#420=CARTESIAN_POINT('Origin',(21.5701042220273,-142.000883686532,5.77350269189625));
#421=CARTESIAN_POINT('',(61.5701042220273,-142.000883686532,5.77350269189625));
#422=CARTESIAN_POINT('',(21.5701042220273,-142.000883686532,5.77350269189625));
#423=CARTESIAN_POINT('',(61.5701042220273,-147.000883686532,2.88675134594812));
#424=CARTESIAN_POINT('Origin',(21.5701042220273,-137.000883686532,2.8867513459481));
#425=CARTESIAN_POINT('',(61.5701042220273,-137.000883686532,2.8867513459481));
#426=CARTESIAN_POINT('',(21.5701042220273,-137.000883686532,2.8867513459481));
#427=CARTESIAN_POINT('',(61.5701042220273,-142.000883686532,5.77350269189625));
#428=CARTESIAN_POINT('Origin',(21.5701042220273,-137.000883686532,-2.88675134594811));
#429=CARTESIAN_POINT('',(61.5701042220273,-137.000883686532,-2.88675134594811));
#430=CARTESIAN_POINT('',(21.5701042220273,-137.000883686532,-2.88675134594811));
#431=CARTESIAN_POINT('',(61.5701042220273,-137.000883686532,2.8867513459481));
#432=CARTESIAN_POINT('Origin',(21.5701042220273,-142.000883686532,-5.77350269189629));
#433=CARTESIAN_POINT('',(61.5701042220273,-137.000883686532,-2.88675134594811));
#434=CARTESIAN_POINT('Origin',(61.5701042220273,-142.000883686532,-1.77635683940025E-14));
#435=CARTESIAN_POINT('',(61.5701042220273,-145.150883686532,3.85763741731416E-16));
#436=CARTESIAN_POINT('Origin',(61.5701042220273,-142.000883686532,0.));
#437=CARTESIAN_POINT('Origin',(88.8701042220274,-142.000883686532,0.));
#438=CARTESIAN_POINT('',(88.8701042220274,-145.150883686532,-3.85763741731416E-16));
#439=CARTESIAN_POINT('Origin',(88.8701042220274,-142.000883686532,0.));
#440=CARTESIAN_POINT('',(88.8701042220274,-145.150883686532,3.85763741731416E-16));
#441=CARTESIAN_POINT('Origin',(26.5701042220274,-132.000883686532,0.));
#442=CARTESIAN_POINT('',(26.5701042220273,-152.000883686532,-1.22464679914735E-15));
#443=CARTESIAN_POINT('Origin',(26.5701042220273,-142.000883686532,0.));
#444=CARTESIAN_POINT('Origin',(27.0701042220274,-142.000883686532,0.));
#445=CARTESIAN_POINT('',(27.5701042220274,-152.000883686532,-1.22464679914735E-15));
#446=CARTESIAN_POINT('Origin',(27.5701042220274,-142.000883686532,0.));
#447=CARTESIAN_POINT('',(27.0701042220274,-152.000883686532,-1.22464679914735E-15));
#448=CARTESIAN_POINT('Origin',(27.5701042220274,-133.000883686532,0.));
#449=CARTESIAN_POINT('',(27.5701042220274,-151.000883686532,-1.10218211923262E-15));
#450=CARTESIAN_POINT('Origin',(27.5701042220274,-142.000883686532,0.));
#451=CARTESIAN_POINT('Origin',(58.2201042220274,-142.000883686532,0.));
#452=CARTESIAN_POINT('',(88.8701042220274,-151.000883686532,-1.10218211923262E-15));
#453=CARTESIAN_POINT('Origin',(88.8701042220274,-142.000883686532,0.));
#454=CARTESIAN_POINT('',(58.2201042220274,-151.000883686532,-1.10218211923262E-15));
#455=CARTESIAN_POINT('Origin',(88.8701042220274,-142.000883686532,0.));
#456=UNCERTAINTY_MEASURE_WITH_UNIT(LENGTH_MEASURE(0.01),#460,
'DISTANCE_ACCURACY_VALUE',
'Maximum model space distance between geometric entities at asserted c
onnectivities');
#457=UNCERTAINTY_MEASURE_WITH_UNIT(LENGTH_MEASURE(0.01),#460,
'DISTANCE_ACCURACY_VALUE',
'Maximum model space distance between geometric entities at asserted c
onnectivities');
#458=(
GEOMETRIC_REPRESENTATION_CONTEXT(3)
GLOBAL_UNCERTAINTY_ASSIGNED_CONTEXT((#456))
GLOBAL_UNIT_ASSIGNED_CONTEXT((#460,#462,#463))
REPRESENTATION_CONTEXT('','3D')
);
#459=(
GEOMETRIC_REPRESENTATION_CONTEXT(3)
GLOBAL_UNCERTAINTY_ASSIGNED_CONTEXT((#457))
GLOBAL_UNIT_ASSIGNED_CONTEXT((#460,#462,#463))
REPRESENTATION_CONTEXT('','3D')
);
#460=(
LENGTH_UNIT()
NAMED_UNIT(*)
SI_UNIT(.MILLI.,.METRE.)
);
#461=(
LENGTH_UNIT()
NAMED_UNIT(*)
SI_UNIT($,.METRE.)
);
#462=(
NAMED_UNIT(*)
PLANE_ANGLE_UNIT()
SI_UNIT($,.RADIAN.)
);
#463=(
NAMED_UNIT(*)
SI_UNIT($,.STERADIAN.)
SOLID_ANGLE_UNIT()
);
#464=SHAPE_DEFINITION_REPRESENTATION(#465,#466);
#465=PRODUCT_DEFINITION_SHAPE('',$,#468);
#466=SHAPE_REPRESENTATION('',(#278),#458);
#467=PRODUCT_DEFINITION_CONTEXT('part definition',#472,'design');
#468=PRODUCT_DEFINITION('2026-05-25-19-22-22-009','ROD_BAR',#469,#467);
#469=PRODUCT_DEFINITION_FORMATION('',$,#474);
#470=PRODUCT_RELATED_PRODUCT_CATEGORY('ROD_BAR','ROD_BAR',(#474));
#471=APPLICATION_PROTOCOL_DEFINITION('international standard',
'automotive_design',2009,#472);
#472=APPLICATION_CONTEXT(
'Core Data for Automotive Mechanical Design Process');
#473=PRODUCT_CONTEXT('part definition',#472,'mechanical');
#474=PRODUCT('2026-05-25-19-22-22-009','ROD_BAR',$,(#473));
#475=PRESENTATION_STYLE_ASSIGNMENT((#477));
#476=PRESENTATION_STYLE_ASSIGNMENT((#478));
#477=SURFACE_STYLE_USAGE(.BOTH.,#479);
#478=SURFACE_STYLE_USAGE(.BOTH.,#480);
#479=SURFACE_SIDE_STYLE('',(#481));
#480=SURFACE_SIDE_STYLE('',(#482));
#481=SURFACE_STYLE_FILL_AREA(#483);
#482=SURFACE_STYLE_FILL_AREA(#484);
#483=FILL_AREA_STYLE('\X2\D3F4B9ACC774BBF8B4DC\X0\(Kapton)',(#485));
#484=FILL_AREA_STYLE('\X2\D398C778D2B8\X0\ - \X2\C5D0B098BA5C\X0\ \X2\AD11D0DD\X0\(
\X2\B179C0C9\X0\)',(#486));
#485=FILL_AREA_STYLE_COLOUR('\X2\D3F4B9ACC774BBF8B4DC\X0\(Kapton)',#487);
#486=FILL_AREA_STYLE_COLOUR('\X2\D398C778D2B8\X0\ - \X2\C5D0B098BA5C\X0\ 
\X2\AD11D0DD\X0\(\X2\B179C0C9\X0\)',#488);
#487=COLOUR_RGB('\X2\D3F4B9ACC774BBF8B4DC\X0\(Kapton)',0.784313725490196,
0.556862745098039,0.0274509803921569);
#488=COLOUR_RGB('\X2\D398C778D2B8\X0\ - \X2\C5D0B098BA5C\X0\ \X2\AD11D0DD\X0\(
\X2\B179C0C9\X0\)',0.266666666666667,0.588235294117647,0.282352941176471);
ENDSEC;
END-ISO-10303-21;
